%TF.GenerationSoftware,KiCad,Pcbnew,9.0.2*%
%TF.CreationDate,2025-05-27T21:30:05+02:00*%
%TF.ProjectId,mystery_box-v3,6d797374-6572-4795-9f62-6f782d76332e,rev?*%
%TF.SameCoordinates,Original*%
%TF.FileFunction,Soldermask,Bot*%
%TF.FilePolarity,Negative*%
%FSLAX46Y46*%
G04 Gerber Fmt 4.6, Leading zero omitted, Abs format (unit mm)*
G04 Created by KiCad (PCBNEW 9.0.2) date 2025-05-27 21:30:05*
%MOMM*%
%LPD*%
G01*
G04 APERTURE LIST*
G04 Aperture macros list*
%AMRoundRect*
0 Rectangle with rounded corners*
0 $1 Rounding radius*
0 $2 $3 $4 $5 $6 $7 $8 $9 X,Y pos of 4 corners*
0 Add a 4 corners polygon primitive as box body*
4,1,4,$2,$3,$4,$5,$6,$7,$8,$9,$2,$3,0*
0 Add four circle primitives for the rounded corners*
1,1,$1+$1,$2,$3*
1,1,$1+$1,$4,$5*
1,1,$1+$1,$6,$7*
1,1,$1+$1,$8,$9*
0 Add four rect primitives between the rounded corners*
20,1,$1+$1,$2,$3,$4,$5,0*
20,1,$1+$1,$4,$5,$6,$7,0*
20,1,$1+$1,$6,$7,$8,$9,0*
20,1,$1+$1,$8,$9,$2,$3,0*%
G04 Aperture macros list end*
%ADD10C,1.600000*%
%ADD11RoundRect,0.250001X1.149999X-1.149999X1.149999X1.149999X-1.149999X1.149999X-1.149999X-1.149999X0*%
%ADD12C,2.800000*%
%ADD13RoundRect,0.250001X-1.149999X1.149999X-1.149999X-1.149999X1.149999X-1.149999X1.149999X1.149999X0*%
%ADD14R,2.400000X2.400000*%
%ADD15O,2.400000X2.400000*%
%ADD16RoundRect,0.250001X1.149999X1.149999X-1.149999X1.149999X-1.149999X-1.149999X1.149999X-1.149999X0*%
%ADD17R,1.905000X2.000000*%
%ADD18O,1.905000X2.000000*%
%ADD19C,3.250000*%
%ADD20C,1.500000*%
%ADD21R,1.500000X1.500000*%
%ADD22C,2.300000*%
%ADD23RoundRect,0.400050X-0.899950X-0.400050X0.899950X-0.400050X0.899950X0.400050X-0.899950X0.400050X0*%
%ADD24RoundRect,0.400000X-0.900000X-0.400000X0.900000X-0.400000X0.900000X0.400000X-0.900000X0.400000X0*%
%ADD25C,1.905000*%
%ADD26RoundRect,0.250000X-0.702500X-0.702500X0.702500X-0.702500X0.702500X0.702500X-0.702500X0.702500X0*%
%ADD27R,0.850000X0.850000*%
%ADD28C,0.850000*%
%ADD29O,1.600000X1.600000*%
%ADD30O,1.854000X3.504000*%
%ADD31O,1.754000X3.304000*%
%ADD32O,3.004000X1.604000*%
%ADD33C,1.800000*%
%ADD34RoundRect,0.270000X-0.630000X-0.630000X0.630000X-0.630000X0.630000X0.630000X-0.630000X0.630000X0*%
G04 APERTURE END LIST*
D10*
%TO.C,R3*%
X136920000Y-102500000D03*
X147080000Y-102500000D03*
%TD*%
D11*
%TO.C,neopixel_pwr1
GND  12V*%
X93000000Y-94500000D03*
D12*
X93000000Y-89500000D03*
%TD*%
D13*
%TO.C,dmx_out1*%
X93000000Y-114000000D03*
D12*
X93000000Y-119000000D03*
X93000000Y-124000000D03*
%TD*%
D14*
%TO.C,D3*%
X116500000Y-46420000D03*
D15*
X116500000Y-56580000D03*
%TD*%
D16*
%TO.C,J10*%
X169500000Y-34935000D03*
D12*
X164500000Y-34935000D03*
%TD*%
D17*
%TO.C,Q3*%
X109040000Y-51055000D03*
D18*
X106500000Y-51055000D03*
X103960000Y-51055000D03*
%TD*%
D19*
%TO.C,J20*%
X213200000Y-76150000D03*
X213200000Y-50850000D03*
D20*
X206650000Y-51995000D03*
X204150000Y-53265000D03*
X206650000Y-54535000D03*
X204150000Y-55805000D03*
X206650000Y-57075000D03*
X204150000Y-58345000D03*
X206650000Y-59615000D03*
X204150000Y-60885000D03*
X206650000Y-66115000D03*
X204150000Y-67385000D03*
X206650000Y-68655000D03*
X204150000Y-69925000D03*
X206650000Y-71195000D03*
X204150000Y-72465000D03*
X206650000Y-73735000D03*
D21*
X204150000Y-75005000D03*
D22*
X217450000Y-79050000D03*
X202450000Y-63500000D03*
X217450000Y-47950000D03*
%TD*%
D16*
%TO.C,J15*%
X218000000Y-35000000D03*
D12*
X213000000Y-35000000D03*
%TD*%
D23*
%TO.C,ESP32_S3*%
X156900000Y-66580000D03*
X156900000Y-69120000D03*
X156900000Y-71660000D03*
X156900000Y-64040000D03*
X156900000Y-74200000D03*
X156900000Y-76740000D03*
X156900000Y-58960000D03*
X156900000Y-79280000D03*
X173340000Y-79280000D03*
X173340000Y-76740000D03*
X173340000Y-74200000D03*
X173340000Y-71660000D03*
D24*
X173340000Y-69120000D03*
X173340000Y-66580000D03*
X173340000Y-64040000D03*
D23*
X156900000Y-61500000D03*
D24*
X173340000Y-61500000D03*
X173340000Y-58960000D03*
%TD*%
D16*
%TO.C,J12*%
X121427400Y-34797300D03*
D12*
X116427400Y-34797300D03*
%TD*%
D16*
%TO.C,J11*%
X145500000Y-34935000D03*
D12*
X140500000Y-34935000D03*
%TD*%
D16*
%TO.C,J9*%
X109210300Y-34789700D03*
D12*
X104210300Y-34789700D03*
%TD*%
D16*
%TO.C,J13*%
X97210300Y-34789700D03*
D12*
X92210300Y-34789700D03*
%TD*%
D17*
%TO.C,Q1*%
X109540000Y-65555000D03*
D18*
X107000000Y-65555000D03*
X104460000Y-65555000D03*
%TD*%
D25*
%TO.C,U2*%
X147000000Y-123120000D03*
X147000000Y-120580000D03*
X147000000Y-118040000D03*
X147000000Y-115500000D03*
D26*
X105800000Y-115500000D03*
D25*
X105800000Y-118040000D03*
X105800000Y-120580000D03*
X105800000Y-123120000D03*
%TD*%
D16*
%TO.C,J16*%
X206000000Y-35065000D03*
D12*
X201000000Y-35065000D03*
%TD*%
D16*
%TO.C,J17*%
X194250000Y-35032500D03*
D12*
X189250000Y-35032500D03*
%TD*%
D27*
%TO.C,J1*%
X177500000Y-65960000D03*
D28*
X177500000Y-64960000D03*
%TD*%
D10*
%TO.C,R2*%
X101920000Y-105000000D03*
D29*
X112080000Y-105000000D03*
%TD*%
D11*
%TO.C,12v_input_terminal1*%
X219000000Y-123000000D03*
D12*
X219000000Y-118000000D03*
%TD*%
D16*
%TO.C,J14*%
X157500000Y-34935000D03*
D12*
X152500000Y-34935000D03*
%TD*%
D13*
%TO.C,neopixel_out1*%
X93000000Y-101750000D03*
D12*
X93000000Y-106750000D03*
%TD*%
D30*
%TO.C,J18*%
X210812500Y-107550000D03*
D31*
X216812500Y-107550000D03*
D32*
X213912500Y-102650000D03*
%TD*%
D27*
%TO.C,J3*%
X177500000Y-60500000D03*
D28*
X177500000Y-59500000D03*
%TD*%
D14*
%TO.C,D1*%
X116500000Y-60920000D03*
D15*
X116500000Y-71080000D03*
%TD*%
D13*
%TO.C,switched_output_02*%
X93032500Y-64000000D03*
D12*
X93032500Y-69000000D03*
%TD*%
D13*
%TO.C,switched_output_03*%
X93000000Y-50000000D03*
D12*
X93000000Y-55000000D03*
%TD*%
D27*
%TO.C,J4*%
X150500000Y-59500000D03*
D28*
X150500000Y-60500000D03*
%TD*%
D27*
%TO.C,J2*%
X150500000Y-66960000D03*
D28*
X150500000Y-67960000D03*
%TD*%
D16*
%TO.C,J8*%
X133427400Y-34797300D03*
D12*
X128427400Y-34797300D03*
%TD*%
D17*
%TO.C,Q2*%
X110000000Y-79555000D03*
D18*
X107460000Y-79555000D03*
X104920000Y-79555000D03*
%TD*%
D14*
%TO.C,D2*%
X116500000Y-75920000D03*
D15*
X116500000Y-86080000D03*
%TD*%
D13*
%TO.C,switched_output_01*%
X93000000Y-78500000D03*
D12*
X93000000Y-83500000D03*
%TD*%
D33*
%TO.C,U1*%
X132975000Y-107450000D03*
X132975000Y-105100000D03*
X132975000Y-102750000D03*
D34*
X132975000Y-100400000D03*
D33*
X132975000Y-98050000D03*
X132975000Y-95700000D03*
X120175000Y-107450000D03*
X120175000Y-105100000D03*
X120175000Y-102750000D03*
D34*
X120175000Y-100400000D03*
D33*
X120175000Y-98050000D03*
X120175000Y-95700000D03*
%TD*%
D10*
%TO.C,R1*%
X101920000Y-100000000D03*
D29*
X112080000Y-100000000D03*
%TD*%
M02*
