%TF.GenerationSoftware,KiCad,Pcbnew,9.0.2*%
%TF.CreationDate,2025-05-27T21:30:05+02:00*%
%TF.ProjectId,mystery_box-v3,6d797374-6572-4795-9f62-6f782d76332e,rev?*%
%TF.SameCoordinates,Original*%
%TF.FileFunction,Legend,Top*%
%TF.FilePolarity,Positive*%
%FSLAX46Y46*%
G04 Gerber Fmt 4.6, Leading zero omitted, Abs format (unit mm)*
G04 Created by KiCad (PCBNEW 9.0.2) date 2025-05-27 21:30:05*
%MOMM*%
%LPD*%
G01*
G04 APERTURE LIST*
%ADD10C,0.100000*%
%ADD11C,0.200000*%
%ADD12C,0.300000*%
%ADD13C,0.150000*%
%ADD14C,0.120000*%
%ADD15C,0.127000*%
G04 APERTURE END LIST*
D10*
X194000000Y-42500000D02*
X186500000Y-42500000D01*
X212500000Y-42500000D02*
X221500000Y-42500000D01*
X116000000Y-42000000D02*
X90500000Y-42000000D01*
D11*
X205000000Y-121000000D02*
X205000000Y-127500000D01*
X205000000Y-107550000D02*
X205000000Y-102000000D01*
D10*
X145500000Y-42000000D02*
X173000000Y-42000000D01*
X199872419Y-72196115D02*
X198872419Y-72196115D01*
X198872419Y-72196115D02*
X198872419Y-71815163D01*
X198872419Y-71815163D02*
X198920038Y-71719925D01*
X198920038Y-71719925D02*
X198967657Y-71672306D01*
X198967657Y-71672306D02*
X199062895Y-71624687D01*
X199062895Y-71624687D02*
X199205752Y-71624687D01*
X199205752Y-71624687D02*
X199300990Y-71672306D01*
X199300990Y-71672306D02*
X199348609Y-71719925D01*
X199348609Y-71719925D02*
X199396228Y-71815163D01*
X199396228Y-71815163D02*
X199396228Y-72196115D01*
X198872419Y-71005639D02*
X198872419Y-70815163D01*
X198872419Y-70815163D02*
X198920038Y-70719925D01*
X198920038Y-70719925D02*
X199015276Y-70624687D01*
X199015276Y-70624687D02*
X199205752Y-70577068D01*
X199205752Y-70577068D02*
X199539085Y-70577068D01*
X199539085Y-70577068D02*
X199729561Y-70624687D01*
X199729561Y-70624687D02*
X199824800Y-70719925D01*
X199824800Y-70719925D02*
X199872419Y-70815163D01*
X199872419Y-70815163D02*
X199872419Y-71005639D01*
X199872419Y-71005639D02*
X199824800Y-71100877D01*
X199824800Y-71100877D02*
X199729561Y-71196115D01*
X199729561Y-71196115D02*
X199539085Y-71243734D01*
X199539085Y-71243734D02*
X199205752Y-71243734D01*
X199205752Y-71243734D02*
X199015276Y-71196115D01*
X199015276Y-71196115D02*
X198920038Y-71100877D01*
X198920038Y-71100877D02*
X198872419Y-71005639D01*
X199348609Y-70148496D02*
X199348609Y-69815163D01*
X199872419Y-69672306D02*
X199872419Y-70148496D01*
X199872419Y-70148496D02*
X198872419Y-70148496D01*
X198872419Y-70148496D02*
X198872419Y-69672306D01*
D11*
X196142857Y-43306028D02*
X195285714Y-43306028D01*
X195714285Y-43306028D02*
X195714285Y-41806028D01*
X195714285Y-41806028D02*
X195571428Y-42020314D01*
X195571428Y-42020314D02*
X195428571Y-42163171D01*
X195428571Y-42163171D02*
X195285714Y-42234600D01*
X196714285Y-41948885D02*
X196785713Y-41877457D01*
X196785713Y-41877457D02*
X196928571Y-41806028D01*
X196928571Y-41806028D02*
X197285713Y-41806028D01*
X197285713Y-41806028D02*
X197428571Y-41877457D01*
X197428571Y-41877457D02*
X197499999Y-41948885D01*
X197499999Y-41948885D02*
X197571428Y-42091742D01*
X197571428Y-42091742D02*
X197571428Y-42234600D01*
X197571428Y-42234600D02*
X197499999Y-42448885D01*
X197499999Y-42448885D02*
X196642856Y-43306028D01*
X196642856Y-43306028D02*
X197571428Y-43306028D01*
X197999999Y-41806028D02*
X198499999Y-43306028D01*
X198499999Y-43306028D02*
X198999999Y-41806028D01*
X201285713Y-43306028D02*
X201285713Y-42520314D01*
X201285713Y-42520314D02*
X201214284Y-42377457D01*
X201214284Y-42377457D02*
X201071427Y-42306028D01*
X201071427Y-42306028D02*
X200785713Y-42306028D01*
X200785713Y-42306028D02*
X200642855Y-42377457D01*
X201285713Y-43234600D02*
X201142855Y-43306028D01*
X201142855Y-43306028D02*
X200785713Y-43306028D01*
X200785713Y-43306028D02*
X200642855Y-43234600D01*
X200642855Y-43234600D02*
X200571427Y-43091742D01*
X200571427Y-43091742D02*
X200571427Y-42948885D01*
X200571427Y-42948885D02*
X200642855Y-42806028D01*
X200642855Y-42806028D02*
X200785713Y-42734600D01*
X200785713Y-42734600D02*
X201142855Y-42734600D01*
X201142855Y-42734600D02*
X201285713Y-42663171D01*
X202214284Y-43306028D02*
X202071427Y-43234600D01*
X202071427Y-43234600D02*
X201999998Y-43091742D01*
X201999998Y-43091742D02*
X201999998Y-41806028D01*
X202642855Y-42306028D02*
X202928570Y-43306028D01*
X202928570Y-43306028D02*
X203214284Y-42591742D01*
X203214284Y-42591742D02*
X203499998Y-43306028D01*
X203499998Y-43306028D02*
X203785712Y-42306028D01*
X204999999Y-43306028D02*
X204999999Y-42520314D01*
X204999999Y-42520314D02*
X204928570Y-42377457D01*
X204928570Y-42377457D02*
X204785713Y-42306028D01*
X204785713Y-42306028D02*
X204499999Y-42306028D01*
X204499999Y-42306028D02*
X204357141Y-42377457D01*
X204999999Y-43234600D02*
X204857141Y-43306028D01*
X204857141Y-43306028D02*
X204499999Y-43306028D01*
X204499999Y-43306028D02*
X204357141Y-43234600D01*
X204357141Y-43234600D02*
X204285713Y-43091742D01*
X204285713Y-43091742D02*
X204285713Y-42948885D01*
X204285713Y-42948885D02*
X204357141Y-42806028D01*
X204357141Y-42806028D02*
X204499999Y-42734600D01*
X204499999Y-42734600D02*
X204857141Y-42734600D01*
X204857141Y-42734600D02*
X204999999Y-42663171D01*
X205571427Y-42306028D02*
X205928570Y-43306028D01*
X206285713Y-42306028D02*
X205928570Y-43306028D01*
X205928570Y-43306028D02*
X205785713Y-43663171D01*
X205785713Y-43663171D02*
X205714284Y-43734600D01*
X205714284Y-43734600D02*
X205571427Y-43806028D01*
X206785713Y-43234600D02*
X206928570Y-43306028D01*
X206928570Y-43306028D02*
X207214284Y-43306028D01*
X207214284Y-43306028D02*
X207357141Y-43234600D01*
X207357141Y-43234600D02*
X207428570Y-43091742D01*
X207428570Y-43091742D02*
X207428570Y-43020314D01*
X207428570Y-43020314D02*
X207357141Y-42877457D01*
X207357141Y-42877457D02*
X207214284Y-42806028D01*
X207214284Y-42806028D02*
X206999999Y-42806028D01*
X206999999Y-42806028D02*
X206857141Y-42734600D01*
X206857141Y-42734600D02*
X206785713Y-42591742D01*
X206785713Y-42591742D02*
X206785713Y-42520314D01*
X206785713Y-42520314D02*
X206857141Y-42377457D01*
X206857141Y-42377457D02*
X206999999Y-42306028D01*
X206999999Y-42306028D02*
X207214284Y-42306028D01*
X207214284Y-42306028D02*
X207357141Y-42377457D01*
X209499999Y-41806028D02*
X209785713Y-41806028D01*
X209785713Y-41806028D02*
X209928570Y-41877457D01*
X209928570Y-41877457D02*
X210071427Y-42020314D01*
X210071427Y-42020314D02*
X210142856Y-42306028D01*
X210142856Y-42306028D02*
X210142856Y-42806028D01*
X210142856Y-42806028D02*
X210071427Y-43091742D01*
X210071427Y-43091742D02*
X209928570Y-43234600D01*
X209928570Y-43234600D02*
X209785713Y-43306028D01*
X209785713Y-43306028D02*
X209499999Y-43306028D01*
X209499999Y-43306028D02*
X209357142Y-43234600D01*
X209357142Y-43234600D02*
X209214284Y-43091742D01*
X209214284Y-43091742D02*
X209142856Y-42806028D01*
X209142856Y-42806028D02*
X209142856Y-42306028D01*
X209142856Y-42306028D02*
X209214284Y-42020314D01*
X209214284Y-42020314D02*
X209357142Y-41877457D01*
X209357142Y-41877457D02*
X209499999Y-41806028D01*
X210785713Y-43306028D02*
X210785713Y-41806028D01*
X210785713Y-41806028D02*
X211642856Y-43306028D01*
X211642856Y-43306028D02*
X211642856Y-41806028D01*
X119214286Y-42806028D02*
X118357143Y-42806028D01*
X118785714Y-42806028D02*
X118785714Y-41306028D01*
X118785714Y-41306028D02*
X118642857Y-41520314D01*
X118642857Y-41520314D02*
X118500000Y-41663171D01*
X118500000Y-41663171D02*
X118357143Y-41734600D01*
X119785714Y-41448885D02*
X119857142Y-41377457D01*
X119857142Y-41377457D02*
X120000000Y-41306028D01*
X120000000Y-41306028D02*
X120357142Y-41306028D01*
X120357142Y-41306028D02*
X120500000Y-41377457D01*
X120500000Y-41377457D02*
X120571428Y-41448885D01*
X120571428Y-41448885D02*
X120642857Y-41591742D01*
X120642857Y-41591742D02*
X120642857Y-41734600D01*
X120642857Y-41734600D02*
X120571428Y-41948885D01*
X120571428Y-41948885D02*
X119714285Y-42806028D01*
X119714285Y-42806028D02*
X120642857Y-42806028D01*
X121071428Y-41306028D02*
X121571428Y-42806028D01*
X121571428Y-42806028D02*
X122071428Y-41306028D01*
X124357142Y-42806028D02*
X124357142Y-42020314D01*
X124357142Y-42020314D02*
X124285713Y-41877457D01*
X124285713Y-41877457D02*
X124142856Y-41806028D01*
X124142856Y-41806028D02*
X123857142Y-41806028D01*
X123857142Y-41806028D02*
X123714284Y-41877457D01*
X124357142Y-42734600D02*
X124214284Y-42806028D01*
X124214284Y-42806028D02*
X123857142Y-42806028D01*
X123857142Y-42806028D02*
X123714284Y-42734600D01*
X123714284Y-42734600D02*
X123642856Y-42591742D01*
X123642856Y-42591742D02*
X123642856Y-42448885D01*
X123642856Y-42448885D02*
X123714284Y-42306028D01*
X123714284Y-42306028D02*
X123857142Y-42234600D01*
X123857142Y-42234600D02*
X124214284Y-42234600D01*
X124214284Y-42234600D02*
X124357142Y-42163171D01*
X125285713Y-42806028D02*
X125142856Y-42734600D01*
X125142856Y-42734600D02*
X125071427Y-42591742D01*
X125071427Y-42591742D02*
X125071427Y-41306028D01*
X125714284Y-41806028D02*
X125999999Y-42806028D01*
X125999999Y-42806028D02*
X126285713Y-42091742D01*
X126285713Y-42091742D02*
X126571427Y-42806028D01*
X126571427Y-42806028D02*
X126857141Y-41806028D01*
X128071428Y-42806028D02*
X128071428Y-42020314D01*
X128071428Y-42020314D02*
X127999999Y-41877457D01*
X127999999Y-41877457D02*
X127857142Y-41806028D01*
X127857142Y-41806028D02*
X127571428Y-41806028D01*
X127571428Y-41806028D02*
X127428570Y-41877457D01*
X128071428Y-42734600D02*
X127928570Y-42806028D01*
X127928570Y-42806028D02*
X127571428Y-42806028D01*
X127571428Y-42806028D02*
X127428570Y-42734600D01*
X127428570Y-42734600D02*
X127357142Y-42591742D01*
X127357142Y-42591742D02*
X127357142Y-42448885D01*
X127357142Y-42448885D02*
X127428570Y-42306028D01*
X127428570Y-42306028D02*
X127571428Y-42234600D01*
X127571428Y-42234600D02*
X127928570Y-42234600D01*
X127928570Y-42234600D02*
X128071428Y-42163171D01*
X128642856Y-41806028D02*
X128999999Y-42806028D01*
X129357142Y-41806028D02*
X128999999Y-42806028D01*
X128999999Y-42806028D02*
X128857142Y-43163171D01*
X128857142Y-43163171D02*
X128785713Y-43234600D01*
X128785713Y-43234600D02*
X128642856Y-43306028D01*
X129857142Y-42734600D02*
X129999999Y-42806028D01*
X129999999Y-42806028D02*
X130285713Y-42806028D01*
X130285713Y-42806028D02*
X130428570Y-42734600D01*
X130428570Y-42734600D02*
X130499999Y-42591742D01*
X130499999Y-42591742D02*
X130499999Y-42520314D01*
X130499999Y-42520314D02*
X130428570Y-42377457D01*
X130428570Y-42377457D02*
X130285713Y-42306028D01*
X130285713Y-42306028D02*
X130071428Y-42306028D01*
X130071428Y-42306028D02*
X129928570Y-42234600D01*
X129928570Y-42234600D02*
X129857142Y-42091742D01*
X129857142Y-42091742D02*
X129857142Y-42020314D01*
X129857142Y-42020314D02*
X129928570Y-41877457D01*
X129928570Y-41877457D02*
X130071428Y-41806028D01*
X130071428Y-41806028D02*
X130285713Y-41806028D01*
X130285713Y-41806028D02*
X130428570Y-41877457D01*
X132571428Y-41306028D02*
X132857142Y-41306028D01*
X132857142Y-41306028D02*
X132999999Y-41377457D01*
X132999999Y-41377457D02*
X133142856Y-41520314D01*
X133142856Y-41520314D02*
X133214285Y-41806028D01*
X133214285Y-41806028D02*
X133214285Y-42306028D01*
X133214285Y-42306028D02*
X133142856Y-42591742D01*
X133142856Y-42591742D02*
X132999999Y-42734600D01*
X132999999Y-42734600D02*
X132857142Y-42806028D01*
X132857142Y-42806028D02*
X132571428Y-42806028D01*
X132571428Y-42806028D02*
X132428571Y-42734600D01*
X132428571Y-42734600D02*
X132285713Y-42591742D01*
X132285713Y-42591742D02*
X132214285Y-42306028D01*
X132214285Y-42306028D02*
X132214285Y-41806028D01*
X132214285Y-41806028D02*
X132285713Y-41520314D01*
X132285713Y-41520314D02*
X132428571Y-41377457D01*
X132428571Y-41377457D02*
X132571428Y-41306028D01*
X133857142Y-42806028D02*
X133857142Y-41306028D01*
X133857142Y-41306028D02*
X134714285Y-42806028D01*
X134714285Y-42806028D02*
X134714285Y-41306028D01*
X136571428Y-42234600D02*
X137714286Y-42234600D01*
X137142857Y-42806028D02*
X137142857Y-41663171D01*
X139357143Y-41806028D02*
X139928571Y-41806028D01*
X139571428Y-42806028D02*
X139571428Y-41520314D01*
X139571428Y-41520314D02*
X139642857Y-41377457D01*
X139642857Y-41377457D02*
X139785714Y-41306028D01*
X139785714Y-41306028D02*
X139928571Y-41306028D01*
X141071429Y-41806028D02*
X141071429Y-42806028D01*
X140428571Y-41806028D02*
X140428571Y-42591742D01*
X140428571Y-42591742D02*
X140500000Y-42734600D01*
X140500000Y-42734600D02*
X140642857Y-42806028D01*
X140642857Y-42806028D02*
X140857143Y-42806028D01*
X140857143Y-42806028D02*
X141000000Y-42734600D01*
X141000000Y-42734600D02*
X141071429Y-42663171D01*
X141714286Y-42734600D02*
X141857143Y-42806028D01*
X141857143Y-42806028D02*
X142142857Y-42806028D01*
X142142857Y-42806028D02*
X142285714Y-42734600D01*
X142285714Y-42734600D02*
X142357143Y-42591742D01*
X142357143Y-42591742D02*
X142357143Y-42520314D01*
X142357143Y-42520314D02*
X142285714Y-42377457D01*
X142285714Y-42377457D02*
X142142857Y-42306028D01*
X142142857Y-42306028D02*
X141928572Y-42306028D01*
X141928572Y-42306028D02*
X141785714Y-42234600D01*
X141785714Y-42234600D02*
X141714286Y-42091742D01*
X141714286Y-42091742D02*
X141714286Y-42020314D01*
X141714286Y-42020314D02*
X141785714Y-41877457D01*
X141785714Y-41877457D02*
X141928572Y-41806028D01*
X141928572Y-41806028D02*
X142142857Y-41806028D01*
X142142857Y-41806028D02*
X142285714Y-41877457D01*
X143571429Y-42734600D02*
X143428572Y-42806028D01*
X143428572Y-42806028D02*
X143142858Y-42806028D01*
X143142858Y-42806028D02*
X143000000Y-42734600D01*
X143000000Y-42734600D02*
X142928572Y-42591742D01*
X142928572Y-42591742D02*
X142928572Y-42020314D01*
X142928572Y-42020314D02*
X143000000Y-41877457D01*
X143000000Y-41877457D02*
X143142858Y-41806028D01*
X143142858Y-41806028D02*
X143428572Y-41806028D01*
X143428572Y-41806028D02*
X143571429Y-41877457D01*
X143571429Y-41877457D02*
X143642858Y-42020314D01*
X143642858Y-42020314D02*
X143642858Y-42163171D01*
X143642858Y-42163171D02*
X142928572Y-42306028D01*
D12*
X205800828Y-118659774D02*
X205800828Y-119516917D01*
X205800828Y-119088346D02*
X204300828Y-119088346D01*
X204300828Y-119088346D02*
X204515114Y-119231203D01*
X204515114Y-119231203D02*
X204657971Y-119374060D01*
X204657971Y-119374060D02*
X204729400Y-119516917D01*
X204443685Y-118088346D02*
X204372257Y-118016918D01*
X204372257Y-118016918D02*
X204300828Y-117874061D01*
X204300828Y-117874061D02*
X204300828Y-117516918D01*
X204300828Y-117516918D02*
X204372257Y-117374061D01*
X204372257Y-117374061D02*
X204443685Y-117302632D01*
X204443685Y-117302632D02*
X204586542Y-117231203D01*
X204586542Y-117231203D02*
X204729400Y-117231203D01*
X204729400Y-117231203D02*
X204943685Y-117302632D01*
X204943685Y-117302632D02*
X205800828Y-118159775D01*
X205800828Y-118159775D02*
X205800828Y-117231203D01*
X204300828Y-116802632D02*
X205800828Y-116302632D01*
X205800828Y-116302632D02*
X204300828Y-115802632D01*
X205800828Y-114159776D02*
X204300828Y-114159776D01*
X204800828Y-113445490D02*
X205800828Y-113445490D01*
X204943685Y-113445490D02*
X204872257Y-113374061D01*
X204872257Y-113374061D02*
X204800828Y-113231204D01*
X204800828Y-113231204D02*
X204800828Y-113016918D01*
X204800828Y-113016918D02*
X204872257Y-112874061D01*
X204872257Y-112874061D02*
X205015114Y-112802633D01*
X205015114Y-112802633D02*
X205800828Y-112802633D01*
X204800828Y-112088347D02*
X206300828Y-112088347D01*
X204872257Y-112088347D02*
X204800828Y-111945490D01*
X204800828Y-111945490D02*
X204800828Y-111659775D01*
X204800828Y-111659775D02*
X204872257Y-111516918D01*
X204872257Y-111516918D02*
X204943685Y-111445490D01*
X204943685Y-111445490D02*
X205086542Y-111374061D01*
X205086542Y-111374061D02*
X205515114Y-111374061D01*
X205515114Y-111374061D02*
X205657971Y-111445490D01*
X205657971Y-111445490D02*
X205729400Y-111516918D01*
X205729400Y-111516918D02*
X205800828Y-111659775D01*
X205800828Y-111659775D02*
X205800828Y-111945490D01*
X205800828Y-111945490D02*
X205729400Y-112088347D01*
X204800828Y-110088347D02*
X205800828Y-110088347D01*
X204800828Y-110731204D02*
X205586542Y-110731204D01*
X205586542Y-110731204D02*
X205729400Y-110659775D01*
X205729400Y-110659775D02*
X205800828Y-110516918D01*
X205800828Y-110516918D02*
X205800828Y-110302632D01*
X205800828Y-110302632D02*
X205729400Y-110159775D01*
X205729400Y-110159775D02*
X205657971Y-110088347D01*
X204800828Y-109588346D02*
X204800828Y-109016918D01*
X204300828Y-109374061D02*
X205586542Y-109374061D01*
X205586542Y-109374061D02*
X205729400Y-109302632D01*
X205729400Y-109302632D02*
X205800828Y-109159775D01*
X205800828Y-109159775D02*
X205800828Y-109016918D01*
D10*
X199872419Y-56719925D02*
X199872419Y-57196115D01*
X199872419Y-57196115D02*
X198872419Y-57196115D01*
X199586704Y-56434210D02*
X199586704Y-55958020D01*
X199872419Y-56529448D02*
X198872419Y-56196115D01*
X198872419Y-56196115D02*
X199872419Y-55862782D01*
X199872419Y-55529448D02*
X198872419Y-55529448D01*
X198872419Y-55529448D02*
X199872419Y-54958020D01*
X199872419Y-54958020D02*
X198872419Y-54958020D01*
D13*
X141833333Y-100584819D02*
X141500000Y-100108628D01*
X141261905Y-100584819D02*
X141261905Y-99584819D01*
X141261905Y-99584819D02*
X141642857Y-99584819D01*
X141642857Y-99584819D02*
X141738095Y-99632438D01*
X141738095Y-99632438D02*
X141785714Y-99680057D01*
X141785714Y-99680057D02*
X141833333Y-99775295D01*
X141833333Y-99775295D02*
X141833333Y-99918152D01*
X141833333Y-99918152D02*
X141785714Y-100013390D01*
X141785714Y-100013390D02*
X141738095Y-100061009D01*
X141738095Y-100061009D02*
X141642857Y-100108628D01*
X141642857Y-100108628D02*
X141261905Y-100108628D01*
X142166667Y-99584819D02*
X142785714Y-99584819D01*
X142785714Y-99584819D02*
X142452381Y-99965771D01*
X142452381Y-99965771D02*
X142595238Y-99965771D01*
X142595238Y-99965771D02*
X142690476Y-100013390D01*
X142690476Y-100013390D02*
X142738095Y-100061009D01*
X142738095Y-100061009D02*
X142785714Y-100156247D01*
X142785714Y-100156247D02*
X142785714Y-100394342D01*
X142785714Y-100394342D02*
X142738095Y-100489580D01*
X142738095Y-100489580D02*
X142690476Y-100537200D01*
X142690476Y-100537200D02*
X142595238Y-100584819D01*
X142595238Y-100584819D02*
X142309524Y-100584819D01*
X142309524Y-100584819D02*
X142214286Y-100537200D01*
X142214286Y-100537200D02*
X142166667Y-100489580D01*
X99483180Y-97273809D02*
X100149847Y-97273809D01*
X99578418Y-97273809D02*
X99530799Y-97226190D01*
X99530799Y-97226190D02*
X99483180Y-97130952D01*
X99483180Y-97130952D02*
X99483180Y-96988095D01*
X99483180Y-96988095D02*
X99530799Y-96892857D01*
X99530799Y-96892857D02*
X99626037Y-96845238D01*
X99626037Y-96845238D02*
X100149847Y-96845238D01*
X100102228Y-95988095D02*
X100149847Y-96083333D01*
X100149847Y-96083333D02*
X100149847Y-96273809D01*
X100149847Y-96273809D02*
X100102228Y-96369047D01*
X100102228Y-96369047D02*
X100006989Y-96416666D01*
X100006989Y-96416666D02*
X99626037Y-96416666D01*
X99626037Y-96416666D02*
X99530799Y-96369047D01*
X99530799Y-96369047D02*
X99483180Y-96273809D01*
X99483180Y-96273809D02*
X99483180Y-96083333D01*
X99483180Y-96083333D02*
X99530799Y-95988095D01*
X99530799Y-95988095D02*
X99626037Y-95940476D01*
X99626037Y-95940476D02*
X99721275Y-95940476D01*
X99721275Y-95940476D02*
X99816513Y-96416666D01*
X100149847Y-95369047D02*
X100102228Y-95464285D01*
X100102228Y-95464285D02*
X100054608Y-95511904D01*
X100054608Y-95511904D02*
X99959370Y-95559523D01*
X99959370Y-95559523D02*
X99673656Y-95559523D01*
X99673656Y-95559523D02*
X99578418Y-95511904D01*
X99578418Y-95511904D02*
X99530799Y-95464285D01*
X99530799Y-95464285D02*
X99483180Y-95369047D01*
X99483180Y-95369047D02*
X99483180Y-95226190D01*
X99483180Y-95226190D02*
X99530799Y-95130952D01*
X99530799Y-95130952D02*
X99578418Y-95083333D01*
X99578418Y-95083333D02*
X99673656Y-95035714D01*
X99673656Y-95035714D02*
X99959370Y-95035714D01*
X99959370Y-95035714D02*
X100054608Y-95083333D01*
X100054608Y-95083333D02*
X100102228Y-95130952D01*
X100102228Y-95130952D02*
X100149847Y-95226190D01*
X100149847Y-95226190D02*
X100149847Y-95369047D01*
X99483180Y-94607142D02*
X100483180Y-94607142D01*
X99530799Y-94607142D02*
X99483180Y-94511904D01*
X99483180Y-94511904D02*
X99483180Y-94321428D01*
X99483180Y-94321428D02*
X99530799Y-94226190D01*
X99530799Y-94226190D02*
X99578418Y-94178571D01*
X99578418Y-94178571D02*
X99673656Y-94130952D01*
X99673656Y-94130952D02*
X99959370Y-94130952D01*
X99959370Y-94130952D02*
X100054608Y-94178571D01*
X100054608Y-94178571D02*
X100102228Y-94226190D01*
X100102228Y-94226190D02*
X100149847Y-94321428D01*
X100149847Y-94321428D02*
X100149847Y-94511904D01*
X100149847Y-94511904D02*
X100102228Y-94607142D01*
X100149847Y-93702380D02*
X99483180Y-93702380D01*
X99149847Y-93702380D02*
X99197466Y-93749999D01*
X99197466Y-93749999D02*
X99245085Y-93702380D01*
X99245085Y-93702380D02*
X99197466Y-93654761D01*
X99197466Y-93654761D02*
X99149847Y-93702380D01*
X99149847Y-93702380D02*
X99245085Y-93702380D01*
X100149847Y-93321428D02*
X99483180Y-92797619D01*
X99483180Y-93321428D02*
X100149847Y-92797619D01*
X100102228Y-92035714D02*
X100149847Y-92130952D01*
X100149847Y-92130952D02*
X100149847Y-92321428D01*
X100149847Y-92321428D02*
X100102228Y-92416666D01*
X100102228Y-92416666D02*
X100006989Y-92464285D01*
X100006989Y-92464285D02*
X99626037Y-92464285D01*
X99626037Y-92464285D02*
X99530799Y-92416666D01*
X99530799Y-92416666D02*
X99483180Y-92321428D01*
X99483180Y-92321428D02*
X99483180Y-92130952D01*
X99483180Y-92130952D02*
X99530799Y-92035714D01*
X99530799Y-92035714D02*
X99626037Y-91988095D01*
X99626037Y-91988095D02*
X99721275Y-91988095D01*
X99721275Y-91988095D02*
X99816513Y-92464285D01*
X100149847Y-91416666D02*
X100102228Y-91511904D01*
X100102228Y-91511904D02*
X100006989Y-91559523D01*
X100006989Y-91559523D02*
X99149847Y-91559523D01*
X100245085Y-91273809D02*
X100245085Y-90511904D01*
X99483180Y-90273808D02*
X100483180Y-90273808D01*
X99530799Y-90273808D02*
X99483180Y-90178570D01*
X99483180Y-90178570D02*
X99483180Y-89988094D01*
X99483180Y-89988094D02*
X99530799Y-89892856D01*
X99530799Y-89892856D02*
X99578418Y-89845237D01*
X99578418Y-89845237D02*
X99673656Y-89797618D01*
X99673656Y-89797618D02*
X99959370Y-89797618D01*
X99959370Y-89797618D02*
X100054608Y-89845237D01*
X100054608Y-89845237D02*
X100102228Y-89892856D01*
X100102228Y-89892856D02*
X100149847Y-89988094D01*
X100149847Y-89988094D02*
X100149847Y-90178570D01*
X100149847Y-90178570D02*
X100102228Y-90273808D01*
X99483180Y-89464284D02*
X100149847Y-89273808D01*
X100149847Y-89273808D02*
X99673656Y-89083332D01*
X99673656Y-89083332D02*
X100149847Y-88892856D01*
X100149847Y-88892856D02*
X99483180Y-88702380D01*
X100149847Y-88321427D02*
X99483180Y-88321427D01*
X99673656Y-88321427D02*
X99578418Y-88273808D01*
X99578418Y-88273808D02*
X99530799Y-88226189D01*
X99530799Y-88226189D02*
X99483180Y-88130951D01*
X99483180Y-88130951D02*
X99483180Y-88035713D01*
X100149847Y-87178570D02*
X100149847Y-87749998D01*
X100149847Y-87464284D02*
X99149847Y-87464284D01*
X99149847Y-87464284D02*
X99292704Y-87559522D01*
X99292704Y-87559522D02*
X99387942Y-87654760D01*
X99387942Y-87654760D02*
X99435561Y-87749998D01*
X100807410Y-95154762D02*
X100759791Y-95250000D01*
X100759791Y-95250000D02*
X100759791Y-95392857D01*
X100759791Y-95392857D02*
X100807410Y-95535714D01*
X100807410Y-95535714D02*
X100902648Y-95630952D01*
X100902648Y-95630952D02*
X100997886Y-95678571D01*
X100997886Y-95678571D02*
X101188362Y-95726190D01*
X101188362Y-95726190D02*
X101331219Y-95726190D01*
X101331219Y-95726190D02*
X101521695Y-95678571D01*
X101521695Y-95678571D02*
X101616933Y-95630952D01*
X101616933Y-95630952D02*
X101712172Y-95535714D01*
X101712172Y-95535714D02*
X101759791Y-95392857D01*
X101759791Y-95392857D02*
X101759791Y-95297619D01*
X101759791Y-95297619D02*
X101712172Y-95154762D01*
X101712172Y-95154762D02*
X101664552Y-95107143D01*
X101664552Y-95107143D02*
X101331219Y-95107143D01*
X101331219Y-95107143D02*
X101331219Y-95297619D01*
X101759791Y-94678571D02*
X100759791Y-94678571D01*
X100759791Y-94678571D02*
X101759791Y-94107143D01*
X101759791Y-94107143D02*
X100759791Y-94107143D01*
X101759791Y-93630952D02*
X100759791Y-93630952D01*
X100759791Y-93630952D02*
X100759791Y-93392857D01*
X100759791Y-93392857D02*
X100807410Y-93250000D01*
X100807410Y-93250000D02*
X100902648Y-93154762D01*
X100902648Y-93154762D02*
X100997886Y-93107143D01*
X100997886Y-93107143D02*
X101188362Y-93059524D01*
X101188362Y-93059524D02*
X101331219Y-93059524D01*
X101331219Y-93059524D02*
X101521695Y-93107143D01*
X101521695Y-93107143D02*
X101616933Y-93154762D01*
X101616933Y-93154762D02*
X101712172Y-93250000D01*
X101712172Y-93250000D02*
X101759791Y-93392857D01*
X101759791Y-93392857D02*
X101759791Y-93630952D01*
X101759791Y-90583333D02*
X101759791Y-91154761D01*
X101759791Y-90869047D02*
X100759791Y-90869047D01*
X100759791Y-90869047D02*
X100902648Y-90964285D01*
X100902648Y-90964285D02*
X100997886Y-91059523D01*
X100997886Y-91059523D02*
X101045505Y-91154761D01*
X100855029Y-90202380D02*
X100807410Y-90154761D01*
X100807410Y-90154761D02*
X100759791Y-90059523D01*
X100759791Y-90059523D02*
X100759791Y-89821428D01*
X100759791Y-89821428D02*
X100807410Y-89726190D01*
X100807410Y-89726190D02*
X100855029Y-89678571D01*
X100855029Y-89678571D02*
X100950267Y-89630952D01*
X100950267Y-89630952D02*
X101045505Y-89630952D01*
X101045505Y-89630952D02*
X101188362Y-89678571D01*
X101188362Y-89678571D02*
X101759791Y-90249999D01*
X101759791Y-90249999D02*
X101759791Y-89630952D01*
X100759791Y-89345237D02*
X101759791Y-89011904D01*
X101759791Y-89011904D02*
X100759791Y-88678571D01*
X98574819Y-121654762D02*
X97574819Y-121654762D01*
X98527200Y-121654762D02*
X98574819Y-121750000D01*
X98574819Y-121750000D02*
X98574819Y-121940476D01*
X98574819Y-121940476D02*
X98527200Y-122035714D01*
X98527200Y-122035714D02*
X98479580Y-122083333D01*
X98479580Y-122083333D02*
X98384342Y-122130952D01*
X98384342Y-122130952D02*
X98098628Y-122130952D01*
X98098628Y-122130952D02*
X98003390Y-122083333D01*
X98003390Y-122083333D02*
X97955771Y-122035714D01*
X97955771Y-122035714D02*
X97908152Y-121940476D01*
X97908152Y-121940476D02*
X97908152Y-121750000D01*
X97908152Y-121750000D02*
X97955771Y-121654762D01*
X98574819Y-121178571D02*
X97908152Y-121178571D01*
X98003390Y-121178571D02*
X97955771Y-121130952D01*
X97955771Y-121130952D02*
X97908152Y-121035714D01*
X97908152Y-121035714D02*
X97908152Y-120892857D01*
X97908152Y-120892857D02*
X97955771Y-120797619D01*
X97955771Y-120797619D02*
X98051009Y-120750000D01*
X98051009Y-120750000D02*
X98574819Y-120750000D01*
X98051009Y-120750000D02*
X97955771Y-120702381D01*
X97955771Y-120702381D02*
X97908152Y-120607143D01*
X97908152Y-120607143D02*
X97908152Y-120464286D01*
X97908152Y-120464286D02*
X97955771Y-120369047D01*
X97955771Y-120369047D02*
X98051009Y-120321428D01*
X98051009Y-120321428D02*
X98574819Y-120321428D01*
X98574819Y-119940476D02*
X97908152Y-119416667D01*
X97908152Y-119940476D02*
X98574819Y-119416667D01*
X98670057Y-119273810D02*
X98670057Y-118511905D01*
X98574819Y-118130952D02*
X98527200Y-118226190D01*
X98527200Y-118226190D02*
X98479580Y-118273809D01*
X98479580Y-118273809D02*
X98384342Y-118321428D01*
X98384342Y-118321428D02*
X98098628Y-118321428D01*
X98098628Y-118321428D02*
X98003390Y-118273809D01*
X98003390Y-118273809D02*
X97955771Y-118226190D01*
X97955771Y-118226190D02*
X97908152Y-118130952D01*
X97908152Y-118130952D02*
X97908152Y-117988095D01*
X97908152Y-117988095D02*
X97955771Y-117892857D01*
X97955771Y-117892857D02*
X98003390Y-117845238D01*
X98003390Y-117845238D02*
X98098628Y-117797619D01*
X98098628Y-117797619D02*
X98384342Y-117797619D01*
X98384342Y-117797619D02*
X98479580Y-117845238D01*
X98479580Y-117845238D02*
X98527200Y-117892857D01*
X98527200Y-117892857D02*
X98574819Y-117988095D01*
X98574819Y-117988095D02*
X98574819Y-118130952D01*
X97908152Y-116940476D02*
X98574819Y-116940476D01*
X97908152Y-117369047D02*
X98431961Y-117369047D01*
X98431961Y-117369047D02*
X98527200Y-117321428D01*
X98527200Y-117321428D02*
X98574819Y-117226190D01*
X98574819Y-117226190D02*
X98574819Y-117083333D01*
X98574819Y-117083333D02*
X98527200Y-116988095D01*
X98527200Y-116988095D02*
X98479580Y-116940476D01*
X97908152Y-116607142D02*
X97908152Y-116226190D01*
X97574819Y-116464285D02*
X98431961Y-116464285D01*
X98431961Y-116464285D02*
X98527200Y-116416666D01*
X98527200Y-116416666D02*
X98574819Y-116321428D01*
X98574819Y-116321428D02*
X98574819Y-116226190D01*
X98574819Y-115369047D02*
X98574819Y-115940475D01*
X98574819Y-115654761D02*
X97574819Y-115654761D01*
X97574819Y-115654761D02*
X97717676Y-115749999D01*
X97717676Y-115749999D02*
X97812914Y-115845237D01*
X97812914Y-115845237D02*
X97860533Y-115940475D01*
X119874819Y-52238094D02*
X118874819Y-52238094D01*
X118874819Y-52238094D02*
X118874819Y-51999999D01*
X118874819Y-51999999D02*
X118922438Y-51857142D01*
X118922438Y-51857142D02*
X119017676Y-51761904D01*
X119017676Y-51761904D02*
X119112914Y-51714285D01*
X119112914Y-51714285D02*
X119303390Y-51666666D01*
X119303390Y-51666666D02*
X119446247Y-51666666D01*
X119446247Y-51666666D02*
X119636723Y-51714285D01*
X119636723Y-51714285D02*
X119731961Y-51761904D01*
X119731961Y-51761904D02*
X119827200Y-51857142D01*
X119827200Y-51857142D02*
X119874819Y-51999999D01*
X119874819Y-51999999D02*
X119874819Y-52238094D01*
X118874819Y-51333332D02*
X118874819Y-50714285D01*
X118874819Y-50714285D02*
X119255771Y-51047618D01*
X119255771Y-51047618D02*
X119255771Y-50904761D01*
X119255771Y-50904761D02*
X119303390Y-50809523D01*
X119303390Y-50809523D02*
X119351009Y-50761904D01*
X119351009Y-50761904D02*
X119446247Y-50714285D01*
X119446247Y-50714285D02*
X119684342Y-50714285D01*
X119684342Y-50714285D02*
X119779580Y-50761904D01*
X119779580Y-50761904D02*
X119827200Y-50809523D01*
X119827200Y-50809523D02*
X119874819Y-50904761D01*
X119874819Y-50904761D02*
X119874819Y-51190475D01*
X119874819Y-51190475D02*
X119827200Y-51285713D01*
X119827200Y-51285713D02*
X119779580Y-51333332D01*
X119154819Y-46681904D02*
X118154819Y-46681904D01*
X119154819Y-46110476D02*
X118583390Y-46539047D01*
X118154819Y-46110476D02*
X118726247Y-46681904D01*
X166440476Y-39509819D02*
X166440476Y-40224104D01*
X166440476Y-40224104D02*
X166392857Y-40366961D01*
X166392857Y-40366961D02*
X166297619Y-40462200D01*
X166297619Y-40462200D02*
X166154762Y-40509819D01*
X166154762Y-40509819D02*
X166059524Y-40509819D01*
X167440476Y-40509819D02*
X166869048Y-40509819D01*
X167154762Y-40509819D02*
X167154762Y-39509819D01*
X167154762Y-39509819D02*
X167059524Y-39652676D01*
X167059524Y-39652676D02*
X166964286Y-39747914D01*
X166964286Y-39747914D02*
X166869048Y-39795533D01*
X168059524Y-39509819D02*
X168154762Y-39509819D01*
X168154762Y-39509819D02*
X168250000Y-39557438D01*
X168250000Y-39557438D02*
X168297619Y-39605057D01*
X168297619Y-39605057D02*
X168345238Y-39700295D01*
X168345238Y-39700295D02*
X168392857Y-39890771D01*
X168392857Y-39890771D02*
X168392857Y-40128866D01*
X168392857Y-40128866D02*
X168345238Y-40319342D01*
X168345238Y-40319342D02*
X168297619Y-40414580D01*
X168297619Y-40414580D02*
X168250000Y-40462200D01*
X168250000Y-40462200D02*
X168154762Y-40509819D01*
X168154762Y-40509819D02*
X168059524Y-40509819D01*
X168059524Y-40509819D02*
X167964286Y-40462200D01*
X167964286Y-40462200D02*
X167916667Y-40414580D01*
X167916667Y-40414580D02*
X167869048Y-40319342D01*
X167869048Y-40319342D02*
X167821429Y-40128866D01*
X167821429Y-40128866D02*
X167821429Y-39890771D01*
X167821429Y-39890771D02*
X167869048Y-39700295D01*
X167869048Y-39700295D02*
X167916667Y-39605057D01*
X167916667Y-39605057D02*
X167964286Y-39557438D01*
X167964286Y-39557438D02*
X168059524Y-39509819D01*
X214940476Y-39574819D02*
X214940476Y-40289104D01*
X214940476Y-40289104D02*
X214892857Y-40431961D01*
X214892857Y-40431961D02*
X214797619Y-40527200D01*
X214797619Y-40527200D02*
X214654762Y-40574819D01*
X214654762Y-40574819D02*
X214559524Y-40574819D01*
X215940476Y-40574819D02*
X215369048Y-40574819D01*
X215654762Y-40574819D02*
X215654762Y-39574819D01*
X215654762Y-39574819D02*
X215559524Y-39717676D01*
X215559524Y-39717676D02*
X215464286Y-39812914D01*
X215464286Y-39812914D02*
X215369048Y-39860533D01*
X216845238Y-39574819D02*
X216369048Y-39574819D01*
X216369048Y-39574819D02*
X216321429Y-40051009D01*
X216321429Y-40051009D02*
X216369048Y-40003390D01*
X216369048Y-40003390D02*
X216464286Y-39955771D01*
X216464286Y-39955771D02*
X216702381Y-39955771D01*
X216702381Y-39955771D02*
X216797619Y-40003390D01*
X216797619Y-40003390D02*
X216845238Y-40051009D01*
X216845238Y-40051009D02*
X216892857Y-40146247D01*
X216892857Y-40146247D02*
X216892857Y-40384342D01*
X216892857Y-40384342D02*
X216845238Y-40479580D01*
X216845238Y-40479580D02*
X216797619Y-40527200D01*
X216797619Y-40527200D02*
X216702381Y-40574819D01*
X216702381Y-40574819D02*
X216464286Y-40574819D01*
X216464286Y-40574819D02*
X216369048Y-40527200D01*
X216369048Y-40527200D02*
X216321429Y-40479580D01*
X164858095Y-68443866D02*
X164905714Y-68396247D01*
X164905714Y-68396247D02*
X165000952Y-68348628D01*
X165000952Y-68348628D02*
X165191428Y-68443866D01*
X165191428Y-68443866D02*
X165286666Y-68396247D01*
X165286666Y-68396247D02*
X165334285Y-68348628D01*
X118367876Y-39372119D02*
X118367876Y-40086404D01*
X118367876Y-40086404D02*
X118320257Y-40229261D01*
X118320257Y-40229261D02*
X118225019Y-40324500D01*
X118225019Y-40324500D02*
X118082162Y-40372119D01*
X118082162Y-40372119D02*
X117986924Y-40372119D01*
X119367876Y-40372119D02*
X118796448Y-40372119D01*
X119082162Y-40372119D02*
X119082162Y-39372119D01*
X119082162Y-39372119D02*
X118986924Y-39514976D01*
X118986924Y-39514976D02*
X118891686Y-39610214D01*
X118891686Y-39610214D02*
X118796448Y-39657833D01*
X119748829Y-39467357D02*
X119796448Y-39419738D01*
X119796448Y-39419738D02*
X119891686Y-39372119D01*
X119891686Y-39372119D02*
X120129781Y-39372119D01*
X120129781Y-39372119D02*
X120225019Y-39419738D01*
X120225019Y-39419738D02*
X120272638Y-39467357D01*
X120272638Y-39467357D02*
X120320257Y-39562595D01*
X120320257Y-39562595D02*
X120320257Y-39657833D01*
X120320257Y-39657833D02*
X120272638Y-39800690D01*
X120272638Y-39800690D02*
X119701210Y-40372119D01*
X119701210Y-40372119D02*
X120320257Y-40372119D01*
X142440476Y-39509819D02*
X142440476Y-40224104D01*
X142440476Y-40224104D02*
X142392857Y-40366961D01*
X142392857Y-40366961D02*
X142297619Y-40462200D01*
X142297619Y-40462200D02*
X142154762Y-40509819D01*
X142154762Y-40509819D02*
X142059524Y-40509819D01*
X143440476Y-40509819D02*
X142869048Y-40509819D01*
X143154762Y-40509819D02*
X143154762Y-39509819D01*
X143154762Y-39509819D02*
X143059524Y-39652676D01*
X143059524Y-39652676D02*
X142964286Y-39747914D01*
X142964286Y-39747914D02*
X142869048Y-39795533D01*
X144392857Y-40509819D02*
X143821429Y-40509819D01*
X144107143Y-40509819D02*
X144107143Y-39509819D01*
X144107143Y-39509819D02*
X144011905Y-39652676D01*
X144011905Y-39652676D02*
X143916667Y-39747914D01*
X143916667Y-39747914D02*
X143821429Y-39795533D01*
X106626966Y-39364519D02*
X106626966Y-40078804D01*
X106626966Y-40078804D02*
X106579347Y-40221661D01*
X106579347Y-40221661D02*
X106484109Y-40316900D01*
X106484109Y-40316900D02*
X106341252Y-40364519D01*
X106341252Y-40364519D02*
X106246014Y-40364519D01*
X107150776Y-40364519D02*
X107341252Y-40364519D01*
X107341252Y-40364519D02*
X107436490Y-40316900D01*
X107436490Y-40316900D02*
X107484109Y-40269280D01*
X107484109Y-40269280D02*
X107579347Y-40126423D01*
X107579347Y-40126423D02*
X107626966Y-39935947D01*
X107626966Y-39935947D02*
X107626966Y-39554995D01*
X107626966Y-39554995D02*
X107579347Y-39459757D01*
X107579347Y-39459757D02*
X107531728Y-39412138D01*
X107531728Y-39412138D02*
X107436490Y-39364519D01*
X107436490Y-39364519D02*
X107246014Y-39364519D01*
X107246014Y-39364519D02*
X107150776Y-39412138D01*
X107150776Y-39412138D02*
X107103157Y-39459757D01*
X107103157Y-39459757D02*
X107055538Y-39554995D01*
X107055538Y-39554995D02*
X107055538Y-39793090D01*
X107055538Y-39793090D02*
X107103157Y-39888328D01*
X107103157Y-39888328D02*
X107150776Y-39935947D01*
X107150776Y-39935947D02*
X107246014Y-39983566D01*
X107246014Y-39983566D02*
X107436490Y-39983566D01*
X107436490Y-39983566D02*
X107531728Y-39935947D01*
X107531728Y-39935947D02*
X107579347Y-39888328D01*
X107579347Y-39888328D02*
X107626966Y-39793090D01*
X94150776Y-39364519D02*
X94150776Y-40078804D01*
X94150776Y-40078804D02*
X94103157Y-40221661D01*
X94103157Y-40221661D02*
X94007919Y-40316900D01*
X94007919Y-40316900D02*
X93865062Y-40364519D01*
X93865062Y-40364519D02*
X93769824Y-40364519D01*
X95150776Y-40364519D02*
X94579348Y-40364519D01*
X94865062Y-40364519D02*
X94865062Y-39364519D01*
X94865062Y-39364519D02*
X94769824Y-39507376D01*
X94769824Y-39507376D02*
X94674586Y-39602614D01*
X94674586Y-39602614D02*
X94579348Y-39650233D01*
X95484110Y-39364519D02*
X96103157Y-39364519D01*
X96103157Y-39364519D02*
X95769824Y-39745471D01*
X95769824Y-39745471D02*
X95912681Y-39745471D01*
X95912681Y-39745471D02*
X96007919Y-39793090D01*
X96007919Y-39793090D02*
X96055538Y-39840709D01*
X96055538Y-39840709D02*
X96103157Y-39935947D01*
X96103157Y-39935947D02*
X96103157Y-40174042D01*
X96103157Y-40174042D02*
X96055538Y-40269280D01*
X96055538Y-40269280D02*
X96007919Y-40316900D01*
X96007919Y-40316900D02*
X95912681Y-40364519D01*
X95912681Y-40364519D02*
X95626967Y-40364519D01*
X95626967Y-40364519D02*
X95531729Y-40316900D01*
X95531729Y-40316900D02*
X95484110Y-40269280D01*
X106904761Y-70375057D02*
X106809523Y-70327438D01*
X106809523Y-70327438D02*
X106714285Y-70232200D01*
X106714285Y-70232200D02*
X106571428Y-70089342D01*
X106571428Y-70089342D02*
X106476190Y-70041723D01*
X106476190Y-70041723D02*
X106380952Y-70041723D01*
X106428571Y-70279819D02*
X106333333Y-70232200D01*
X106333333Y-70232200D02*
X106238095Y-70136961D01*
X106238095Y-70136961D02*
X106190476Y-69946485D01*
X106190476Y-69946485D02*
X106190476Y-69613152D01*
X106190476Y-69613152D02*
X106238095Y-69422676D01*
X106238095Y-69422676D02*
X106333333Y-69327438D01*
X106333333Y-69327438D02*
X106428571Y-69279819D01*
X106428571Y-69279819D02*
X106619047Y-69279819D01*
X106619047Y-69279819D02*
X106714285Y-69327438D01*
X106714285Y-69327438D02*
X106809523Y-69422676D01*
X106809523Y-69422676D02*
X106857142Y-69613152D01*
X106857142Y-69613152D02*
X106857142Y-69946485D01*
X106857142Y-69946485D02*
X106809523Y-70136961D01*
X106809523Y-70136961D02*
X106714285Y-70232200D01*
X106714285Y-70232200D02*
X106619047Y-70279819D01*
X106619047Y-70279819D02*
X106428571Y-70279819D01*
X107809523Y-70279819D02*
X107238095Y-70279819D01*
X107523809Y-70279819D02*
X107523809Y-69279819D01*
X107523809Y-69279819D02*
X107428571Y-69422676D01*
X107428571Y-69422676D02*
X107333333Y-69517914D01*
X107333333Y-69517914D02*
X107238095Y-69565533D01*
X202940476Y-39639819D02*
X202940476Y-40354104D01*
X202940476Y-40354104D02*
X202892857Y-40496961D01*
X202892857Y-40496961D02*
X202797619Y-40592200D01*
X202797619Y-40592200D02*
X202654762Y-40639819D01*
X202654762Y-40639819D02*
X202559524Y-40639819D01*
X203940476Y-40639819D02*
X203369048Y-40639819D01*
X203654762Y-40639819D02*
X203654762Y-39639819D01*
X203654762Y-39639819D02*
X203559524Y-39782676D01*
X203559524Y-39782676D02*
X203464286Y-39877914D01*
X203464286Y-39877914D02*
X203369048Y-39925533D01*
X204797619Y-39639819D02*
X204607143Y-39639819D01*
X204607143Y-39639819D02*
X204511905Y-39687438D01*
X204511905Y-39687438D02*
X204464286Y-39735057D01*
X204464286Y-39735057D02*
X204369048Y-39877914D01*
X204369048Y-39877914D02*
X204321429Y-40068390D01*
X204321429Y-40068390D02*
X204321429Y-40449342D01*
X204321429Y-40449342D02*
X204369048Y-40544580D01*
X204369048Y-40544580D02*
X204416667Y-40592200D01*
X204416667Y-40592200D02*
X204511905Y-40639819D01*
X204511905Y-40639819D02*
X204702381Y-40639819D01*
X204702381Y-40639819D02*
X204797619Y-40592200D01*
X204797619Y-40592200D02*
X204845238Y-40544580D01*
X204845238Y-40544580D02*
X204892857Y-40449342D01*
X204892857Y-40449342D02*
X204892857Y-40211247D01*
X204892857Y-40211247D02*
X204845238Y-40116009D01*
X204845238Y-40116009D02*
X204797619Y-40068390D01*
X204797619Y-40068390D02*
X204702381Y-40020771D01*
X204702381Y-40020771D02*
X204511905Y-40020771D01*
X204511905Y-40020771D02*
X204416667Y-40068390D01*
X204416667Y-40068390D02*
X204369048Y-40116009D01*
X204369048Y-40116009D02*
X204321429Y-40211247D01*
X191190476Y-39607319D02*
X191190476Y-40321604D01*
X191190476Y-40321604D02*
X191142857Y-40464461D01*
X191142857Y-40464461D02*
X191047619Y-40559700D01*
X191047619Y-40559700D02*
X190904762Y-40607319D01*
X190904762Y-40607319D02*
X190809524Y-40607319D01*
X192190476Y-40607319D02*
X191619048Y-40607319D01*
X191904762Y-40607319D02*
X191904762Y-39607319D01*
X191904762Y-39607319D02*
X191809524Y-39750176D01*
X191809524Y-39750176D02*
X191714286Y-39845414D01*
X191714286Y-39845414D02*
X191619048Y-39893033D01*
X192523810Y-39607319D02*
X193190476Y-39607319D01*
X193190476Y-39607319D02*
X192761905Y-40607319D01*
X181545180Y-65166666D02*
X180830895Y-65166666D01*
X180830895Y-65166666D02*
X180688038Y-65119047D01*
X180688038Y-65119047D02*
X180592800Y-65023809D01*
X180592800Y-65023809D02*
X180545180Y-64880952D01*
X180545180Y-64880952D02*
X180545180Y-64785714D01*
X180545180Y-66166666D02*
X180545180Y-65595238D01*
X180545180Y-65880952D02*
X181545180Y-65880952D01*
X181545180Y-65880952D02*
X181402323Y-65785714D01*
X181402323Y-65785714D02*
X181307085Y-65690476D01*
X181307085Y-65690476D02*
X181259466Y-65595238D01*
X188238095Y-66454819D02*
X188238095Y-67264342D01*
X188238095Y-67264342D02*
X188285714Y-67359580D01*
X188285714Y-67359580D02*
X188333333Y-67407200D01*
X188333333Y-67407200D02*
X188428571Y-67454819D01*
X188428571Y-67454819D02*
X188619047Y-67454819D01*
X188619047Y-67454819D02*
X188714285Y-67407200D01*
X188714285Y-67407200D02*
X188761904Y-67359580D01*
X188761904Y-67359580D02*
X188809523Y-67264342D01*
X188809523Y-67264342D02*
X188809523Y-66454819D01*
X189190476Y-66454819D02*
X189809523Y-66454819D01*
X189809523Y-66454819D02*
X189476190Y-66835771D01*
X189476190Y-66835771D02*
X189619047Y-66835771D01*
X189619047Y-66835771D02*
X189714285Y-66883390D01*
X189714285Y-66883390D02*
X189761904Y-66931009D01*
X189761904Y-66931009D02*
X189809523Y-67026247D01*
X189809523Y-67026247D02*
X189809523Y-67264342D01*
X189809523Y-67264342D02*
X189761904Y-67359580D01*
X189761904Y-67359580D02*
X189714285Y-67407200D01*
X189714285Y-67407200D02*
X189619047Y-67454819D01*
X189619047Y-67454819D02*
X189333333Y-67454819D01*
X189333333Y-67454819D02*
X189238095Y-67407200D01*
X189238095Y-67407200D02*
X189190476Y-67359580D01*
X106833333Y-103084819D02*
X106500000Y-102608628D01*
X106261905Y-103084819D02*
X106261905Y-102084819D01*
X106261905Y-102084819D02*
X106642857Y-102084819D01*
X106642857Y-102084819D02*
X106738095Y-102132438D01*
X106738095Y-102132438D02*
X106785714Y-102180057D01*
X106785714Y-102180057D02*
X106833333Y-102275295D01*
X106833333Y-102275295D02*
X106833333Y-102418152D01*
X106833333Y-102418152D02*
X106785714Y-102513390D01*
X106785714Y-102513390D02*
X106738095Y-102561009D01*
X106738095Y-102561009D02*
X106642857Y-102608628D01*
X106642857Y-102608628D02*
X106261905Y-102608628D01*
X107214286Y-102180057D02*
X107261905Y-102132438D01*
X107261905Y-102132438D02*
X107357143Y-102084819D01*
X107357143Y-102084819D02*
X107595238Y-102084819D01*
X107595238Y-102084819D02*
X107690476Y-102132438D01*
X107690476Y-102132438D02*
X107738095Y-102180057D01*
X107738095Y-102180057D02*
X107785714Y-102275295D01*
X107785714Y-102275295D02*
X107785714Y-102370533D01*
X107785714Y-102370533D02*
X107738095Y-102513390D01*
X107738095Y-102513390D02*
X107166667Y-103084819D01*
X107166667Y-103084819D02*
X107785714Y-103084819D01*
X214334819Y-127535715D02*
X214334819Y-128107143D01*
X214334819Y-127821429D02*
X213334819Y-127821429D01*
X213334819Y-127821429D02*
X213477676Y-127916667D01*
X213477676Y-127916667D02*
X213572914Y-128011905D01*
X213572914Y-128011905D02*
X213620533Y-128107143D01*
X213430057Y-127154762D02*
X213382438Y-127107143D01*
X213382438Y-127107143D02*
X213334819Y-127011905D01*
X213334819Y-127011905D02*
X213334819Y-126773810D01*
X213334819Y-126773810D02*
X213382438Y-126678572D01*
X213382438Y-126678572D02*
X213430057Y-126630953D01*
X213430057Y-126630953D02*
X213525295Y-126583334D01*
X213525295Y-126583334D02*
X213620533Y-126583334D01*
X213620533Y-126583334D02*
X213763390Y-126630953D01*
X213763390Y-126630953D02*
X214334819Y-127202381D01*
X214334819Y-127202381D02*
X214334819Y-126583334D01*
X213668152Y-126250000D02*
X214334819Y-126011905D01*
X214334819Y-126011905D02*
X213668152Y-125773810D01*
X214430057Y-125630953D02*
X214430057Y-124869048D01*
X214334819Y-124630952D02*
X213668152Y-124630952D01*
X213334819Y-124630952D02*
X213382438Y-124678571D01*
X213382438Y-124678571D02*
X213430057Y-124630952D01*
X213430057Y-124630952D02*
X213382438Y-124583333D01*
X213382438Y-124583333D02*
X213334819Y-124630952D01*
X213334819Y-124630952D02*
X213430057Y-124630952D01*
X213668152Y-124154762D02*
X214334819Y-124154762D01*
X213763390Y-124154762D02*
X213715771Y-124107143D01*
X213715771Y-124107143D02*
X213668152Y-124011905D01*
X213668152Y-124011905D02*
X213668152Y-123869048D01*
X213668152Y-123869048D02*
X213715771Y-123773810D01*
X213715771Y-123773810D02*
X213811009Y-123726191D01*
X213811009Y-123726191D02*
X214334819Y-123726191D01*
X213668152Y-123250000D02*
X214668152Y-123250000D01*
X213715771Y-123250000D02*
X213668152Y-123154762D01*
X213668152Y-123154762D02*
X213668152Y-122964286D01*
X213668152Y-122964286D02*
X213715771Y-122869048D01*
X213715771Y-122869048D02*
X213763390Y-122821429D01*
X213763390Y-122821429D02*
X213858628Y-122773810D01*
X213858628Y-122773810D02*
X214144342Y-122773810D01*
X214144342Y-122773810D02*
X214239580Y-122821429D01*
X214239580Y-122821429D02*
X214287200Y-122869048D01*
X214287200Y-122869048D02*
X214334819Y-122964286D01*
X214334819Y-122964286D02*
X214334819Y-123154762D01*
X214334819Y-123154762D02*
X214287200Y-123250000D01*
X213668152Y-121916667D02*
X214334819Y-121916667D01*
X213668152Y-122345238D02*
X214191961Y-122345238D01*
X214191961Y-122345238D02*
X214287200Y-122297619D01*
X214287200Y-122297619D02*
X214334819Y-122202381D01*
X214334819Y-122202381D02*
X214334819Y-122059524D01*
X214334819Y-122059524D02*
X214287200Y-121964286D01*
X214287200Y-121964286D02*
X214239580Y-121916667D01*
X213668152Y-121583333D02*
X213668152Y-121202381D01*
X213334819Y-121440476D02*
X214191961Y-121440476D01*
X214191961Y-121440476D02*
X214287200Y-121392857D01*
X214287200Y-121392857D02*
X214334819Y-121297619D01*
X214334819Y-121297619D02*
X214334819Y-121202381D01*
X214430057Y-121107143D02*
X214430057Y-120345238D01*
X213668152Y-120249999D02*
X213668152Y-119869047D01*
X213334819Y-120107142D02*
X214191961Y-120107142D01*
X214191961Y-120107142D02*
X214287200Y-120059523D01*
X214287200Y-120059523D02*
X214334819Y-119964285D01*
X214334819Y-119964285D02*
X214334819Y-119869047D01*
X214287200Y-119154761D02*
X214334819Y-119249999D01*
X214334819Y-119249999D02*
X214334819Y-119440475D01*
X214334819Y-119440475D02*
X214287200Y-119535713D01*
X214287200Y-119535713D02*
X214191961Y-119583332D01*
X214191961Y-119583332D02*
X213811009Y-119583332D01*
X213811009Y-119583332D02*
X213715771Y-119535713D01*
X213715771Y-119535713D02*
X213668152Y-119440475D01*
X213668152Y-119440475D02*
X213668152Y-119249999D01*
X213668152Y-119249999D02*
X213715771Y-119154761D01*
X213715771Y-119154761D02*
X213811009Y-119107142D01*
X213811009Y-119107142D02*
X213906247Y-119107142D01*
X213906247Y-119107142D02*
X214001485Y-119583332D01*
X214334819Y-118678570D02*
X213668152Y-118678570D01*
X213858628Y-118678570D02*
X213763390Y-118630951D01*
X213763390Y-118630951D02*
X213715771Y-118583332D01*
X213715771Y-118583332D02*
X213668152Y-118488094D01*
X213668152Y-118488094D02*
X213668152Y-118392856D01*
X214334819Y-118059522D02*
X213668152Y-118059522D01*
X213763390Y-118059522D02*
X213715771Y-118011903D01*
X213715771Y-118011903D02*
X213668152Y-117916665D01*
X213668152Y-117916665D02*
X213668152Y-117773808D01*
X213668152Y-117773808D02*
X213715771Y-117678570D01*
X213715771Y-117678570D02*
X213811009Y-117630951D01*
X213811009Y-117630951D02*
X214334819Y-117630951D01*
X213811009Y-117630951D02*
X213715771Y-117583332D01*
X213715771Y-117583332D02*
X213668152Y-117488094D01*
X213668152Y-117488094D02*
X213668152Y-117345237D01*
X213668152Y-117345237D02*
X213715771Y-117249998D01*
X213715771Y-117249998D02*
X213811009Y-117202379D01*
X213811009Y-117202379D02*
X214334819Y-117202379D01*
X214334819Y-116726189D02*
X213668152Y-116726189D01*
X213334819Y-116726189D02*
X213382438Y-116773808D01*
X213382438Y-116773808D02*
X213430057Y-116726189D01*
X213430057Y-116726189D02*
X213382438Y-116678570D01*
X213382438Y-116678570D02*
X213334819Y-116726189D01*
X213334819Y-116726189D02*
X213430057Y-116726189D01*
X213668152Y-116249999D02*
X214334819Y-116249999D01*
X213763390Y-116249999D02*
X213715771Y-116202380D01*
X213715771Y-116202380D02*
X213668152Y-116107142D01*
X213668152Y-116107142D02*
X213668152Y-115964285D01*
X213668152Y-115964285D02*
X213715771Y-115869047D01*
X213715771Y-115869047D02*
X213811009Y-115821428D01*
X213811009Y-115821428D02*
X214334819Y-115821428D01*
X214334819Y-114916666D02*
X213811009Y-114916666D01*
X213811009Y-114916666D02*
X213715771Y-114964285D01*
X213715771Y-114964285D02*
X213668152Y-115059523D01*
X213668152Y-115059523D02*
X213668152Y-115249999D01*
X213668152Y-115249999D02*
X213715771Y-115345237D01*
X214287200Y-114916666D02*
X214334819Y-115011904D01*
X214334819Y-115011904D02*
X214334819Y-115249999D01*
X214334819Y-115249999D02*
X214287200Y-115345237D01*
X214287200Y-115345237D02*
X214191961Y-115392856D01*
X214191961Y-115392856D02*
X214096723Y-115392856D01*
X214096723Y-115392856D02*
X214001485Y-115345237D01*
X214001485Y-115345237D02*
X213953866Y-115249999D01*
X213953866Y-115249999D02*
X213953866Y-115011904D01*
X213953866Y-115011904D02*
X213906247Y-114916666D01*
X214334819Y-114297618D02*
X214287200Y-114392856D01*
X214287200Y-114392856D02*
X214191961Y-114440475D01*
X214191961Y-114440475D02*
X213334819Y-114440475D01*
X214334819Y-113392856D02*
X214334819Y-113964284D01*
X214334819Y-113678570D02*
X213334819Y-113678570D01*
X213334819Y-113678570D02*
X213477676Y-113773808D01*
X213477676Y-113773808D02*
X213572914Y-113869046D01*
X213572914Y-113869046D02*
X213620533Y-113964284D01*
X154440476Y-39509819D02*
X154440476Y-40224104D01*
X154440476Y-40224104D02*
X154392857Y-40366961D01*
X154392857Y-40366961D02*
X154297619Y-40462200D01*
X154297619Y-40462200D02*
X154154762Y-40509819D01*
X154154762Y-40509819D02*
X154059524Y-40509819D01*
X155440476Y-40509819D02*
X154869048Y-40509819D01*
X155154762Y-40509819D02*
X155154762Y-39509819D01*
X155154762Y-39509819D02*
X155059524Y-39652676D01*
X155059524Y-39652676D02*
X154964286Y-39747914D01*
X154964286Y-39747914D02*
X154869048Y-39795533D01*
X156297619Y-39843152D02*
X156297619Y-40509819D01*
X156059524Y-39462200D02*
X155821429Y-40176485D01*
X155821429Y-40176485D02*
X156440476Y-40176485D01*
X97908152Y-108928571D02*
X98574819Y-108928571D01*
X98003390Y-108928571D02*
X97955771Y-108880952D01*
X97955771Y-108880952D02*
X97908152Y-108785714D01*
X97908152Y-108785714D02*
X97908152Y-108642857D01*
X97908152Y-108642857D02*
X97955771Y-108547619D01*
X97955771Y-108547619D02*
X98051009Y-108500000D01*
X98051009Y-108500000D02*
X98574819Y-108500000D01*
X98527200Y-107642857D02*
X98574819Y-107738095D01*
X98574819Y-107738095D02*
X98574819Y-107928571D01*
X98574819Y-107928571D02*
X98527200Y-108023809D01*
X98527200Y-108023809D02*
X98431961Y-108071428D01*
X98431961Y-108071428D02*
X98051009Y-108071428D01*
X98051009Y-108071428D02*
X97955771Y-108023809D01*
X97955771Y-108023809D02*
X97908152Y-107928571D01*
X97908152Y-107928571D02*
X97908152Y-107738095D01*
X97908152Y-107738095D02*
X97955771Y-107642857D01*
X97955771Y-107642857D02*
X98051009Y-107595238D01*
X98051009Y-107595238D02*
X98146247Y-107595238D01*
X98146247Y-107595238D02*
X98241485Y-108071428D01*
X98574819Y-107023809D02*
X98527200Y-107119047D01*
X98527200Y-107119047D02*
X98479580Y-107166666D01*
X98479580Y-107166666D02*
X98384342Y-107214285D01*
X98384342Y-107214285D02*
X98098628Y-107214285D01*
X98098628Y-107214285D02*
X98003390Y-107166666D01*
X98003390Y-107166666D02*
X97955771Y-107119047D01*
X97955771Y-107119047D02*
X97908152Y-107023809D01*
X97908152Y-107023809D02*
X97908152Y-106880952D01*
X97908152Y-106880952D02*
X97955771Y-106785714D01*
X97955771Y-106785714D02*
X98003390Y-106738095D01*
X98003390Y-106738095D02*
X98098628Y-106690476D01*
X98098628Y-106690476D02*
X98384342Y-106690476D01*
X98384342Y-106690476D02*
X98479580Y-106738095D01*
X98479580Y-106738095D02*
X98527200Y-106785714D01*
X98527200Y-106785714D02*
X98574819Y-106880952D01*
X98574819Y-106880952D02*
X98574819Y-107023809D01*
X97908152Y-106261904D02*
X98908152Y-106261904D01*
X97955771Y-106261904D02*
X97908152Y-106166666D01*
X97908152Y-106166666D02*
X97908152Y-105976190D01*
X97908152Y-105976190D02*
X97955771Y-105880952D01*
X97955771Y-105880952D02*
X98003390Y-105833333D01*
X98003390Y-105833333D02*
X98098628Y-105785714D01*
X98098628Y-105785714D02*
X98384342Y-105785714D01*
X98384342Y-105785714D02*
X98479580Y-105833333D01*
X98479580Y-105833333D02*
X98527200Y-105880952D01*
X98527200Y-105880952D02*
X98574819Y-105976190D01*
X98574819Y-105976190D02*
X98574819Y-106166666D01*
X98574819Y-106166666D02*
X98527200Y-106261904D01*
X98574819Y-105357142D02*
X97908152Y-105357142D01*
X97574819Y-105357142D02*
X97622438Y-105404761D01*
X97622438Y-105404761D02*
X97670057Y-105357142D01*
X97670057Y-105357142D02*
X97622438Y-105309523D01*
X97622438Y-105309523D02*
X97574819Y-105357142D01*
X97574819Y-105357142D02*
X97670057Y-105357142D01*
X98574819Y-104976190D02*
X97908152Y-104452381D01*
X97908152Y-104976190D02*
X98574819Y-104452381D01*
X98527200Y-103690476D02*
X98574819Y-103785714D01*
X98574819Y-103785714D02*
X98574819Y-103976190D01*
X98574819Y-103976190D02*
X98527200Y-104071428D01*
X98527200Y-104071428D02*
X98431961Y-104119047D01*
X98431961Y-104119047D02*
X98051009Y-104119047D01*
X98051009Y-104119047D02*
X97955771Y-104071428D01*
X97955771Y-104071428D02*
X97908152Y-103976190D01*
X97908152Y-103976190D02*
X97908152Y-103785714D01*
X97908152Y-103785714D02*
X97955771Y-103690476D01*
X97955771Y-103690476D02*
X98051009Y-103642857D01*
X98051009Y-103642857D02*
X98146247Y-103642857D01*
X98146247Y-103642857D02*
X98241485Y-104119047D01*
X98574819Y-103071428D02*
X98527200Y-103166666D01*
X98527200Y-103166666D02*
X98431961Y-103214285D01*
X98431961Y-103214285D02*
X97574819Y-103214285D01*
X98670057Y-102928571D02*
X98670057Y-102166666D01*
X98574819Y-101785713D02*
X98527200Y-101880951D01*
X98527200Y-101880951D02*
X98479580Y-101928570D01*
X98479580Y-101928570D02*
X98384342Y-101976189D01*
X98384342Y-101976189D02*
X98098628Y-101976189D01*
X98098628Y-101976189D02*
X98003390Y-101928570D01*
X98003390Y-101928570D02*
X97955771Y-101880951D01*
X97955771Y-101880951D02*
X97908152Y-101785713D01*
X97908152Y-101785713D02*
X97908152Y-101642856D01*
X97908152Y-101642856D02*
X97955771Y-101547618D01*
X97955771Y-101547618D02*
X98003390Y-101499999D01*
X98003390Y-101499999D02*
X98098628Y-101452380D01*
X98098628Y-101452380D02*
X98384342Y-101452380D01*
X98384342Y-101452380D02*
X98479580Y-101499999D01*
X98479580Y-101499999D02*
X98527200Y-101547618D01*
X98527200Y-101547618D02*
X98574819Y-101642856D01*
X98574819Y-101642856D02*
X98574819Y-101785713D01*
X97908152Y-100595237D02*
X98574819Y-100595237D01*
X97908152Y-101023808D02*
X98431961Y-101023808D01*
X98431961Y-101023808D02*
X98527200Y-100976189D01*
X98527200Y-100976189D02*
X98574819Y-100880951D01*
X98574819Y-100880951D02*
X98574819Y-100738094D01*
X98574819Y-100738094D02*
X98527200Y-100642856D01*
X98527200Y-100642856D02*
X98479580Y-100595237D01*
X97908152Y-100261903D02*
X97908152Y-99880951D01*
X97574819Y-100119046D02*
X98431961Y-100119046D01*
X98431961Y-100119046D02*
X98527200Y-100071427D01*
X98527200Y-100071427D02*
X98574819Y-99976189D01*
X98574819Y-99976189D02*
X98574819Y-99880951D01*
X98574819Y-99023808D02*
X98574819Y-99595236D01*
X98574819Y-99309522D02*
X97574819Y-99309522D01*
X97574819Y-99309522D02*
X97717676Y-99404760D01*
X97717676Y-99404760D02*
X97812914Y-99499998D01*
X97812914Y-99499998D02*
X97860533Y-99595236D01*
X217954819Y-101309523D02*
X218669104Y-101309523D01*
X218669104Y-101309523D02*
X218811961Y-101357142D01*
X218811961Y-101357142D02*
X218907200Y-101452380D01*
X218907200Y-101452380D02*
X218954819Y-101595237D01*
X218954819Y-101595237D02*
X218954819Y-101690475D01*
X218954819Y-100309523D02*
X218954819Y-100880951D01*
X218954819Y-100595237D02*
X217954819Y-100595237D01*
X217954819Y-100595237D02*
X218097676Y-100690475D01*
X218097676Y-100690475D02*
X218192914Y-100785713D01*
X218192914Y-100785713D02*
X218240533Y-100880951D01*
X218383390Y-99738094D02*
X218335771Y-99833332D01*
X218335771Y-99833332D02*
X218288152Y-99880951D01*
X218288152Y-99880951D02*
X218192914Y-99928570D01*
X218192914Y-99928570D02*
X218145295Y-99928570D01*
X218145295Y-99928570D02*
X218050057Y-99880951D01*
X218050057Y-99880951D02*
X218002438Y-99833332D01*
X218002438Y-99833332D02*
X217954819Y-99738094D01*
X217954819Y-99738094D02*
X217954819Y-99547618D01*
X217954819Y-99547618D02*
X218002438Y-99452380D01*
X218002438Y-99452380D02*
X218050057Y-99404761D01*
X218050057Y-99404761D02*
X218145295Y-99357142D01*
X218145295Y-99357142D02*
X218192914Y-99357142D01*
X218192914Y-99357142D02*
X218288152Y-99404761D01*
X218288152Y-99404761D02*
X218335771Y-99452380D01*
X218335771Y-99452380D02*
X218383390Y-99547618D01*
X218383390Y-99547618D02*
X218383390Y-99738094D01*
X218383390Y-99738094D02*
X218431009Y-99833332D01*
X218431009Y-99833332D02*
X218478628Y-99880951D01*
X218478628Y-99880951D02*
X218573866Y-99928570D01*
X218573866Y-99928570D02*
X218764342Y-99928570D01*
X218764342Y-99928570D02*
X218859580Y-99880951D01*
X218859580Y-99880951D02*
X218907200Y-99833332D01*
X218907200Y-99833332D02*
X218954819Y-99738094D01*
X218954819Y-99738094D02*
X218954819Y-99547618D01*
X218954819Y-99547618D02*
X218907200Y-99452380D01*
X218907200Y-99452380D02*
X218859580Y-99404761D01*
X218859580Y-99404761D02*
X218764342Y-99357142D01*
X218764342Y-99357142D02*
X218573866Y-99357142D01*
X218573866Y-99357142D02*
X218478628Y-99404761D01*
X218478628Y-99404761D02*
X218431009Y-99452380D01*
X218431009Y-99452380D02*
X218383390Y-99547618D01*
X180045180Y-59666666D02*
X179330895Y-59666666D01*
X179330895Y-59666666D02*
X179188038Y-59619047D01*
X179188038Y-59619047D02*
X179092800Y-59523809D01*
X179092800Y-59523809D02*
X179045180Y-59380952D01*
X179045180Y-59380952D02*
X179045180Y-59285714D01*
X180045180Y-60047619D02*
X180045180Y-60666666D01*
X180045180Y-60666666D02*
X179664228Y-60333333D01*
X179664228Y-60333333D02*
X179664228Y-60476190D01*
X179664228Y-60476190D02*
X179616609Y-60571428D01*
X179616609Y-60571428D02*
X179568990Y-60619047D01*
X179568990Y-60619047D02*
X179473752Y-60666666D01*
X179473752Y-60666666D02*
X179235657Y-60666666D01*
X179235657Y-60666666D02*
X179140419Y-60619047D01*
X179140419Y-60619047D02*
X179092800Y-60571428D01*
X179092800Y-60571428D02*
X179045180Y-60476190D01*
X179045180Y-60476190D02*
X179045180Y-60190476D01*
X179045180Y-60190476D02*
X179092800Y-60095238D01*
X179092800Y-60095238D02*
X179140419Y-60047619D01*
X119874819Y-66738094D02*
X118874819Y-66738094D01*
X118874819Y-66738094D02*
X118874819Y-66499999D01*
X118874819Y-66499999D02*
X118922438Y-66357142D01*
X118922438Y-66357142D02*
X119017676Y-66261904D01*
X119017676Y-66261904D02*
X119112914Y-66214285D01*
X119112914Y-66214285D02*
X119303390Y-66166666D01*
X119303390Y-66166666D02*
X119446247Y-66166666D01*
X119446247Y-66166666D02*
X119636723Y-66214285D01*
X119636723Y-66214285D02*
X119731961Y-66261904D01*
X119731961Y-66261904D02*
X119827200Y-66357142D01*
X119827200Y-66357142D02*
X119874819Y-66499999D01*
X119874819Y-66499999D02*
X119874819Y-66738094D01*
X119874819Y-65214285D02*
X119874819Y-65785713D01*
X119874819Y-65499999D02*
X118874819Y-65499999D01*
X118874819Y-65499999D02*
X119017676Y-65595237D01*
X119017676Y-65595237D02*
X119112914Y-65690475D01*
X119112914Y-65690475D02*
X119160533Y-65785713D01*
X119154819Y-61181904D02*
X118154819Y-61181904D01*
X119154819Y-60610476D02*
X118583390Y-61039047D01*
X118154819Y-60610476D02*
X118726247Y-61181904D01*
X100407200Y-73619048D02*
X100454819Y-73523810D01*
X100454819Y-73523810D02*
X100454819Y-73333334D01*
X100454819Y-73333334D02*
X100407200Y-73238096D01*
X100407200Y-73238096D02*
X100311961Y-73190477D01*
X100311961Y-73190477D02*
X100264342Y-73190477D01*
X100264342Y-73190477D02*
X100169104Y-73238096D01*
X100169104Y-73238096D02*
X100121485Y-73333334D01*
X100121485Y-73333334D02*
X100121485Y-73476191D01*
X100121485Y-73476191D02*
X100073866Y-73571429D01*
X100073866Y-73571429D02*
X99978628Y-73619048D01*
X99978628Y-73619048D02*
X99931009Y-73619048D01*
X99931009Y-73619048D02*
X99835771Y-73571429D01*
X99835771Y-73571429D02*
X99788152Y-73476191D01*
X99788152Y-73476191D02*
X99788152Y-73333334D01*
X99788152Y-73333334D02*
X99835771Y-73238096D01*
X99788152Y-72857143D02*
X100454819Y-72666667D01*
X100454819Y-72666667D02*
X99978628Y-72476191D01*
X99978628Y-72476191D02*
X100454819Y-72285715D01*
X100454819Y-72285715D02*
X99788152Y-72095239D01*
X100454819Y-71714286D02*
X99788152Y-71714286D01*
X99454819Y-71714286D02*
X99502438Y-71761905D01*
X99502438Y-71761905D02*
X99550057Y-71714286D01*
X99550057Y-71714286D02*
X99502438Y-71666667D01*
X99502438Y-71666667D02*
X99454819Y-71714286D01*
X99454819Y-71714286D02*
X99550057Y-71714286D01*
X99788152Y-71380953D02*
X99788152Y-71000001D01*
X99454819Y-71238096D02*
X100311961Y-71238096D01*
X100311961Y-71238096D02*
X100407200Y-71190477D01*
X100407200Y-71190477D02*
X100454819Y-71095239D01*
X100454819Y-71095239D02*
X100454819Y-71000001D01*
X100407200Y-70238096D02*
X100454819Y-70333334D01*
X100454819Y-70333334D02*
X100454819Y-70523810D01*
X100454819Y-70523810D02*
X100407200Y-70619048D01*
X100407200Y-70619048D02*
X100359580Y-70666667D01*
X100359580Y-70666667D02*
X100264342Y-70714286D01*
X100264342Y-70714286D02*
X99978628Y-70714286D01*
X99978628Y-70714286D02*
X99883390Y-70666667D01*
X99883390Y-70666667D02*
X99835771Y-70619048D01*
X99835771Y-70619048D02*
X99788152Y-70523810D01*
X99788152Y-70523810D02*
X99788152Y-70333334D01*
X99788152Y-70333334D02*
X99835771Y-70238096D01*
X100454819Y-69809524D02*
X99454819Y-69809524D01*
X100454819Y-69380953D02*
X99931009Y-69380953D01*
X99931009Y-69380953D02*
X99835771Y-69428572D01*
X99835771Y-69428572D02*
X99788152Y-69523810D01*
X99788152Y-69523810D02*
X99788152Y-69666667D01*
X99788152Y-69666667D02*
X99835771Y-69761905D01*
X99835771Y-69761905D02*
X99883390Y-69809524D01*
X100407200Y-68523810D02*
X100454819Y-68619048D01*
X100454819Y-68619048D02*
X100454819Y-68809524D01*
X100454819Y-68809524D02*
X100407200Y-68904762D01*
X100407200Y-68904762D02*
X100311961Y-68952381D01*
X100311961Y-68952381D02*
X99931009Y-68952381D01*
X99931009Y-68952381D02*
X99835771Y-68904762D01*
X99835771Y-68904762D02*
X99788152Y-68809524D01*
X99788152Y-68809524D02*
X99788152Y-68619048D01*
X99788152Y-68619048D02*
X99835771Y-68523810D01*
X99835771Y-68523810D02*
X99931009Y-68476191D01*
X99931009Y-68476191D02*
X100026247Y-68476191D01*
X100026247Y-68476191D02*
X100121485Y-68952381D01*
X100454819Y-67619048D02*
X99454819Y-67619048D01*
X100407200Y-67619048D02*
X100454819Y-67714286D01*
X100454819Y-67714286D02*
X100454819Y-67904762D01*
X100454819Y-67904762D02*
X100407200Y-68000000D01*
X100407200Y-68000000D02*
X100359580Y-68047619D01*
X100359580Y-68047619D02*
X100264342Y-68095238D01*
X100264342Y-68095238D02*
X99978628Y-68095238D01*
X99978628Y-68095238D02*
X99883390Y-68047619D01*
X99883390Y-68047619D02*
X99835771Y-68000000D01*
X99835771Y-68000000D02*
X99788152Y-67904762D01*
X99788152Y-67904762D02*
X99788152Y-67714286D01*
X99788152Y-67714286D02*
X99835771Y-67619048D01*
X100550057Y-67380953D02*
X100550057Y-66619048D01*
X100454819Y-66238095D02*
X100407200Y-66333333D01*
X100407200Y-66333333D02*
X100359580Y-66380952D01*
X100359580Y-66380952D02*
X100264342Y-66428571D01*
X100264342Y-66428571D02*
X99978628Y-66428571D01*
X99978628Y-66428571D02*
X99883390Y-66380952D01*
X99883390Y-66380952D02*
X99835771Y-66333333D01*
X99835771Y-66333333D02*
X99788152Y-66238095D01*
X99788152Y-66238095D02*
X99788152Y-66095238D01*
X99788152Y-66095238D02*
X99835771Y-66000000D01*
X99835771Y-66000000D02*
X99883390Y-65952381D01*
X99883390Y-65952381D02*
X99978628Y-65904762D01*
X99978628Y-65904762D02*
X100264342Y-65904762D01*
X100264342Y-65904762D02*
X100359580Y-65952381D01*
X100359580Y-65952381D02*
X100407200Y-66000000D01*
X100407200Y-66000000D02*
X100454819Y-66095238D01*
X100454819Y-66095238D02*
X100454819Y-66238095D01*
X99788152Y-65047619D02*
X100454819Y-65047619D01*
X99788152Y-65476190D02*
X100311961Y-65476190D01*
X100311961Y-65476190D02*
X100407200Y-65428571D01*
X100407200Y-65428571D02*
X100454819Y-65333333D01*
X100454819Y-65333333D02*
X100454819Y-65190476D01*
X100454819Y-65190476D02*
X100407200Y-65095238D01*
X100407200Y-65095238D02*
X100359580Y-65047619D01*
X99788152Y-64714285D02*
X99788152Y-64333333D01*
X99454819Y-64571428D02*
X100311961Y-64571428D01*
X100311961Y-64571428D02*
X100407200Y-64523809D01*
X100407200Y-64523809D02*
X100454819Y-64428571D01*
X100454819Y-64428571D02*
X100454819Y-64333333D01*
X99788152Y-63999999D02*
X100788152Y-63999999D01*
X99835771Y-63999999D02*
X99788152Y-63904761D01*
X99788152Y-63904761D02*
X99788152Y-63714285D01*
X99788152Y-63714285D02*
X99835771Y-63619047D01*
X99835771Y-63619047D02*
X99883390Y-63571428D01*
X99883390Y-63571428D02*
X99978628Y-63523809D01*
X99978628Y-63523809D02*
X100264342Y-63523809D01*
X100264342Y-63523809D02*
X100359580Y-63571428D01*
X100359580Y-63571428D02*
X100407200Y-63619047D01*
X100407200Y-63619047D02*
X100454819Y-63714285D01*
X100454819Y-63714285D02*
X100454819Y-63904761D01*
X100454819Y-63904761D02*
X100407200Y-63999999D01*
X99788152Y-62666666D02*
X100454819Y-62666666D01*
X99788152Y-63095237D02*
X100311961Y-63095237D01*
X100311961Y-63095237D02*
X100407200Y-63047618D01*
X100407200Y-63047618D02*
X100454819Y-62952380D01*
X100454819Y-62952380D02*
X100454819Y-62809523D01*
X100454819Y-62809523D02*
X100407200Y-62714285D01*
X100407200Y-62714285D02*
X100359580Y-62666666D01*
X99788152Y-62333332D02*
X99788152Y-61952380D01*
X99454819Y-62190475D02*
X100311961Y-62190475D01*
X100311961Y-62190475D02*
X100407200Y-62142856D01*
X100407200Y-62142856D02*
X100454819Y-62047618D01*
X100454819Y-62047618D02*
X100454819Y-61952380D01*
X100550057Y-61857142D02*
X100550057Y-61095237D01*
X99454819Y-60666665D02*
X99454819Y-60571427D01*
X99454819Y-60571427D02*
X99502438Y-60476189D01*
X99502438Y-60476189D02*
X99550057Y-60428570D01*
X99550057Y-60428570D02*
X99645295Y-60380951D01*
X99645295Y-60380951D02*
X99835771Y-60333332D01*
X99835771Y-60333332D02*
X100073866Y-60333332D01*
X100073866Y-60333332D02*
X100264342Y-60380951D01*
X100264342Y-60380951D02*
X100359580Y-60428570D01*
X100359580Y-60428570D02*
X100407200Y-60476189D01*
X100407200Y-60476189D02*
X100454819Y-60571427D01*
X100454819Y-60571427D02*
X100454819Y-60666665D01*
X100454819Y-60666665D02*
X100407200Y-60761903D01*
X100407200Y-60761903D02*
X100359580Y-60809522D01*
X100359580Y-60809522D02*
X100264342Y-60857141D01*
X100264342Y-60857141D02*
X100073866Y-60904760D01*
X100073866Y-60904760D02*
X99835771Y-60904760D01*
X99835771Y-60904760D02*
X99645295Y-60857141D01*
X99645295Y-60857141D02*
X99550057Y-60809522D01*
X99550057Y-60809522D02*
X99502438Y-60761903D01*
X99502438Y-60761903D02*
X99454819Y-60666665D01*
X99550057Y-59952379D02*
X99502438Y-59904760D01*
X99502438Y-59904760D02*
X99454819Y-59809522D01*
X99454819Y-59809522D02*
X99454819Y-59571427D01*
X99454819Y-59571427D02*
X99502438Y-59476189D01*
X99502438Y-59476189D02*
X99550057Y-59428570D01*
X99550057Y-59428570D02*
X99645295Y-59380951D01*
X99645295Y-59380951D02*
X99740533Y-59380951D01*
X99740533Y-59380951D02*
X99883390Y-59428570D01*
X99883390Y-59428570D02*
X100454819Y-59999998D01*
X100454819Y-59999998D02*
X100454819Y-59380951D01*
X98527200Y-59369048D02*
X98574819Y-59273810D01*
X98574819Y-59273810D02*
X98574819Y-59083334D01*
X98574819Y-59083334D02*
X98527200Y-58988096D01*
X98527200Y-58988096D02*
X98431961Y-58940477D01*
X98431961Y-58940477D02*
X98384342Y-58940477D01*
X98384342Y-58940477D02*
X98289104Y-58988096D01*
X98289104Y-58988096D02*
X98241485Y-59083334D01*
X98241485Y-59083334D02*
X98241485Y-59226191D01*
X98241485Y-59226191D02*
X98193866Y-59321429D01*
X98193866Y-59321429D02*
X98098628Y-59369048D01*
X98098628Y-59369048D02*
X98051009Y-59369048D01*
X98051009Y-59369048D02*
X97955771Y-59321429D01*
X97955771Y-59321429D02*
X97908152Y-59226191D01*
X97908152Y-59226191D02*
X97908152Y-59083334D01*
X97908152Y-59083334D02*
X97955771Y-58988096D01*
X97908152Y-58607143D02*
X98574819Y-58416667D01*
X98574819Y-58416667D02*
X98098628Y-58226191D01*
X98098628Y-58226191D02*
X98574819Y-58035715D01*
X98574819Y-58035715D02*
X97908152Y-57845239D01*
X98574819Y-57464286D02*
X97908152Y-57464286D01*
X97574819Y-57464286D02*
X97622438Y-57511905D01*
X97622438Y-57511905D02*
X97670057Y-57464286D01*
X97670057Y-57464286D02*
X97622438Y-57416667D01*
X97622438Y-57416667D02*
X97574819Y-57464286D01*
X97574819Y-57464286D02*
X97670057Y-57464286D01*
X97908152Y-57130953D02*
X97908152Y-56750001D01*
X97574819Y-56988096D02*
X98431961Y-56988096D01*
X98431961Y-56988096D02*
X98527200Y-56940477D01*
X98527200Y-56940477D02*
X98574819Y-56845239D01*
X98574819Y-56845239D02*
X98574819Y-56750001D01*
X98527200Y-55988096D02*
X98574819Y-56083334D01*
X98574819Y-56083334D02*
X98574819Y-56273810D01*
X98574819Y-56273810D02*
X98527200Y-56369048D01*
X98527200Y-56369048D02*
X98479580Y-56416667D01*
X98479580Y-56416667D02*
X98384342Y-56464286D01*
X98384342Y-56464286D02*
X98098628Y-56464286D01*
X98098628Y-56464286D02*
X98003390Y-56416667D01*
X98003390Y-56416667D02*
X97955771Y-56369048D01*
X97955771Y-56369048D02*
X97908152Y-56273810D01*
X97908152Y-56273810D02*
X97908152Y-56083334D01*
X97908152Y-56083334D02*
X97955771Y-55988096D01*
X98574819Y-55559524D02*
X97574819Y-55559524D01*
X98574819Y-55130953D02*
X98051009Y-55130953D01*
X98051009Y-55130953D02*
X97955771Y-55178572D01*
X97955771Y-55178572D02*
X97908152Y-55273810D01*
X97908152Y-55273810D02*
X97908152Y-55416667D01*
X97908152Y-55416667D02*
X97955771Y-55511905D01*
X97955771Y-55511905D02*
X98003390Y-55559524D01*
X98527200Y-54273810D02*
X98574819Y-54369048D01*
X98574819Y-54369048D02*
X98574819Y-54559524D01*
X98574819Y-54559524D02*
X98527200Y-54654762D01*
X98527200Y-54654762D02*
X98431961Y-54702381D01*
X98431961Y-54702381D02*
X98051009Y-54702381D01*
X98051009Y-54702381D02*
X97955771Y-54654762D01*
X97955771Y-54654762D02*
X97908152Y-54559524D01*
X97908152Y-54559524D02*
X97908152Y-54369048D01*
X97908152Y-54369048D02*
X97955771Y-54273810D01*
X97955771Y-54273810D02*
X98051009Y-54226191D01*
X98051009Y-54226191D02*
X98146247Y-54226191D01*
X98146247Y-54226191D02*
X98241485Y-54702381D01*
X98574819Y-53369048D02*
X97574819Y-53369048D01*
X98527200Y-53369048D02*
X98574819Y-53464286D01*
X98574819Y-53464286D02*
X98574819Y-53654762D01*
X98574819Y-53654762D02*
X98527200Y-53750000D01*
X98527200Y-53750000D02*
X98479580Y-53797619D01*
X98479580Y-53797619D02*
X98384342Y-53845238D01*
X98384342Y-53845238D02*
X98098628Y-53845238D01*
X98098628Y-53845238D02*
X98003390Y-53797619D01*
X98003390Y-53797619D02*
X97955771Y-53750000D01*
X97955771Y-53750000D02*
X97908152Y-53654762D01*
X97908152Y-53654762D02*
X97908152Y-53464286D01*
X97908152Y-53464286D02*
X97955771Y-53369048D01*
X98670057Y-53130953D02*
X98670057Y-52369048D01*
X98574819Y-51988095D02*
X98527200Y-52083333D01*
X98527200Y-52083333D02*
X98479580Y-52130952D01*
X98479580Y-52130952D02*
X98384342Y-52178571D01*
X98384342Y-52178571D02*
X98098628Y-52178571D01*
X98098628Y-52178571D02*
X98003390Y-52130952D01*
X98003390Y-52130952D02*
X97955771Y-52083333D01*
X97955771Y-52083333D02*
X97908152Y-51988095D01*
X97908152Y-51988095D02*
X97908152Y-51845238D01*
X97908152Y-51845238D02*
X97955771Y-51750000D01*
X97955771Y-51750000D02*
X98003390Y-51702381D01*
X98003390Y-51702381D02*
X98098628Y-51654762D01*
X98098628Y-51654762D02*
X98384342Y-51654762D01*
X98384342Y-51654762D02*
X98479580Y-51702381D01*
X98479580Y-51702381D02*
X98527200Y-51750000D01*
X98527200Y-51750000D02*
X98574819Y-51845238D01*
X98574819Y-51845238D02*
X98574819Y-51988095D01*
X97908152Y-50797619D02*
X98574819Y-50797619D01*
X97908152Y-51226190D02*
X98431961Y-51226190D01*
X98431961Y-51226190D02*
X98527200Y-51178571D01*
X98527200Y-51178571D02*
X98574819Y-51083333D01*
X98574819Y-51083333D02*
X98574819Y-50940476D01*
X98574819Y-50940476D02*
X98527200Y-50845238D01*
X98527200Y-50845238D02*
X98479580Y-50797619D01*
X97908152Y-50464285D02*
X97908152Y-50083333D01*
X97574819Y-50321428D02*
X98431961Y-50321428D01*
X98431961Y-50321428D02*
X98527200Y-50273809D01*
X98527200Y-50273809D02*
X98574819Y-50178571D01*
X98574819Y-50178571D02*
X98574819Y-50083333D01*
X97908152Y-49749999D02*
X98908152Y-49749999D01*
X97955771Y-49749999D02*
X97908152Y-49654761D01*
X97908152Y-49654761D02*
X97908152Y-49464285D01*
X97908152Y-49464285D02*
X97955771Y-49369047D01*
X97955771Y-49369047D02*
X98003390Y-49321428D01*
X98003390Y-49321428D02*
X98098628Y-49273809D01*
X98098628Y-49273809D02*
X98384342Y-49273809D01*
X98384342Y-49273809D02*
X98479580Y-49321428D01*
X98479580Y-49321428D02*
X98527200Y-49369047D01*
X98527200Y-49369047D02*
X98574819Y-49464285D01*
X98574819Y-49464285D02*
X98574819Y-49654761D01*
X98574819Y-49654761D02*
X98527200Y-49749999D01*
X97908152Y-48416666D02*
X98574819Y-48416666D01*
X97908152Y-48845237D02*
X98431961Y-48845237D01*
X98431961Y-48845237D02*
X98527200Y-48797618D01*
X98527200Y-48797618D02*
X98574819Y-48702380D01*
X98574819Y-48702380D02*
X98574819Y-48559523D01*
X98574819Y-48559523D02*
X98527200Y-48464285D01*
X98527200Y-48464285D02*
X98479580Y-48416666D01*
X97908152Y-48083332D02*
X97908152Y-47702380D01*
X97574819Y-47940475D02*
X98431961Y-47940475D01*
X98431961Y-47940475D02*
X98527200Y-47892856D01*
X98527200Y-47892856D02*
X98574819Y-47797618D01*
X98574819Y-47797618D02*
X98574819Y-47702380D01*
X98670057Y-47607142D02*
X98670057Y-46845237D01*
X97574819Y-46416665D02*
X97574819Y-46321427D01*
X97574819Y-46321427D02*
X97622438Y-46226189D01*
X97622438Y-46226189D02*
X97670057Y-46178570D01*
X97670057Y-46178570D02*
X97765295Y-46130951D01*
X97765295Y-46130951D02*
X97955771Y-46083332D01*
X97955771Y-46083332D02*
X98193866Y-46083332D01*
X98193866Y-46083332D02*
X98384342Y-46130951D01*
X98384342Y-46130951D02*
X98479580Y-46178570D01*
X98479580Y-46178570D02*
X98527200Y-46226189D01*
X98527200Y-46226189D02*
X98574819Y-46321427D01*
X98574819Y-46321427D02*
X98574819Y-46416665D01*
X98574819Y-46416665D02*
X98527200Y-46511903D01*
X98527200Y-46511903D02*
X98479580Y-46559522D01*
X98479580Y-46559522D02*
X98384342Y-46607141D01*
X98384342Y-46607141D02*
X98193866Y-46654760D01*
X98193866Y-46654760D02*
X97955771Y-46654760D01*
X97955771Y-46654760D02*
X97765295Y-46607141D01*
X97765295Y-46607141D02*
X97670057Y-46559522D01*
X97670057Y-46559522D02*
X97622438Y-46511903D01*
X97622438Y-46511903D02*
X97574819Y-46416665D01*
X97574819Y-45749998D02*
X97574819Y-45130951D01*
X97574819Y-45130951D02*
X97955771Y-45464284D01*
X97955771Y-45464284D02*
X97955771Y-45321427D01*
X97955771Y-45321427D02*
X98003390Y-45226189D01*
X98003390Y-45226189D02*
X98051009Y-45178570D01*
X98051009Y-45178570D02*
X98146247Y-45130951D01*
X98146247Y-45130951D02*
X98384342Y-45130951D01*
X98384342Y-45130951D02*
X98479580Y-45178570D01*
X98479580Y-45178570D02*
X98527200Y-45226189D01*
X98527200Y-45226189D02*
X98574819Y-45321427D01*
X98574819Y-45321427D02*
X98574819Y-45607141D01*
X98574819Y-45607141D02*
X98527200Y-45702379D01*
X98527200Y-45702379D02*
X98479580Y-45749998D01*
X148045180Y-59166666D02*
X147330895Y-59166666D01*
X147330895Y-59166666D02*
X147188038Y-59119047D01*
X147188038Y-59119047D02*
X147092800Y-59023809D01*
X147092800Y-59023809D02*
X147045180Y-58880952D01*
X147045180Y-58880952D02*
X147045180Y-58785714D01*
X147711847Y-60071428D02*
X147045180Y-60071428D01*
X148092800Y-59833333D02*
X147378514Y-59595238D01*
X147378514Y-59595238D02*
X147378514Y-60214285D01*
X147545180Y-67166666D02*
X146830895Y-67166666D01*
X146830895Y-67166666D02*
X146688038Y-67119047D01*
X146688038Y-67119047D02*
X146592800Y-67023809D01*
X146592800Y-67023809D02*
X146545180Y-66880952D01*
X146545180Y-66880952D02*
X146545180Y-66785714D01*
X147449942Y-67595238D02*
X147497561Y-67642857D01*
X147497561Y-67642857D02*
X147545180Y-67738095D01*
X147545180Y-67738095D02*
X147545180Y-67976190D01*
X147545180Y-67976190D02*
X147497561Y-68071428D01*
X147497561Y-68071428D02*
X147449942Y-68119047D01*
X147449942Y-68119047D02*
X147354704Y-68166666D01*
X147354704Y-68166666D02*
X147259466Y-68166666D01*
X147259466Y-68166666D02*
X147116609Y-68119047D01*
X147116609Y-68119047D02*
X146545180Y-67547619D01*
X146545180Y-67547619D02*
X146545180Y-68166666D01*
X130844066Y-39372119D02*
X130844066Y-40086404D01*
X130844066Y-40086404D02*
X130796447Y-40229261D01*
X130796447Y-40229261D02*
X130701209Y-40324500D01*
X130701209Y-40324500D02*
X130558352Y-40372119D01*
X130558352Y-40372119D02*
X130463114Y-40372119D01*
X131463114Y-39800690D02*
X131367876Y-39753071D01*
X131367876Y-39753071D02*
X131320257Y-39705452D01*
X131320257Y-39705452D02*
X131272638Y-39610214D01*
X131272638Y-39610214D02*
X131272638Y-39562595D01*
X131272638Y-39562595D02*
X131320257Y-39467357D01*
X131320257Y-39467357D02*
X131367876Y-39419738D01*
X131367876Y-39419738D02*
X131463114Y-39372119D01*
X131463114Y-39372119D02*
X131653590Y-39372119D01*
X131653590Y-39372119D02*
X131748828Y-39419738D01*
X131748828Y-39419738D02*
X131796447Y-39467357D01*
X131796447Y-39467357D02*
X131844066Y-39562595D01*
X131844066Y-39562595D02*
X131844066Y-39610214D01*
X131844066Y-39610214D02*
X131796447Y-39705452D01*
X131796447Y-39705452D02*
X131748828Y-39753071D01*
X131748828Y-39753071D02*
X131653590Y-39800690D01*
X131653590Y-39800690D02*
X131463114Y-39800690D01*
X131463114Y-39800690D02*
X131367876Y-39848309D01*
X131367876Y-39848309D02*
X131320257Y-39895928D01*
X131320257Y-39895928D02*
X131272638Y-39991166D01*
X131272638Y-39991166D02*
X131272638Y-40181642D01*
X131272638Y-40181642D02*
X131320257Y-40276880D01*
X131320257Y-40276880D02*
X131367876Y-40324500D01*
X131367876Y-40324500D02*
X131463114Y-40372119D01*
X131463114Y-40372119D02*
X131653590Y-40372119D01*
X131653590Y-40372119D02*
X131748828Y-40324500D01*
X131748828Y-40324500D02*
X131796447Y-40276880D01*
X131796447Y-40276880D02*
X131844066Y-40181642D01*
X131844066Y-40181642D02*
X131844066Y-39991166D01*
X131844066Y-39991166D02*
X131796447Y-39895928D01*
X131796447Y-39895928D02*
X131748828Y-39848309D01*
X131748828Y-39848309D02*
X131653590Y-39800690D01*
X107364761Y-84375057D02*
X107269523Y-84327438D01*
X107269523Y-84327438D02*
X107174285Y-84232200D01*
X107174285Y-84232200D02*
X107031428Y-84089342D01*
X107031428Y-84089342D02*
X106936190Y-84041723D01*
X106936190Y-84041723D02*
X106840952Y-84041723D01*
X106888571Y-84279819D02*
X106793333Y-84232200D01*
X106793333Y-84232200D02*
X106698095Y-84136961D01*
X106698095Y-84136961D02*
X106650476Y-83946485D01*
X106650476Y-83946485D02*
X106650476Y-83613152D01*
X106650476Y-83613152D02*
X106698095Y-83422676D01*
X106698095Y-83422676D02*
X106793333Y-83327438D01*
X106793333Y-83327438D02*
X106888571Y-83279819D01*
X106888571Y-83279819D02*
X107079047Y-83279819D01*
X107079047Y-83279819D02*
X107174285Y-83327438D01*
X107174285Y-83327438D02*
X107269523Y-83422676D01*
X107269523Y-83422676D02*
X107317142Y-83613152D01*
X107317142Y-83613152D02*
X107317142Y-83946485D01*
X107317142Y-83946485D02*
X107269523Y-84136961D01*
X107269523Y-84136961D02*
X107174285Y-84232200D01*
X107174285Y-84232200D02*
X107079047Y-84279819D01*
X107079047Y-84279819D02*
X106888571Y-84279819D01*
X107698095Y-83375057D02*
X107745714Y-83327438D01*
X107745714Y-83327438D02*
X107840952Y-83279819D01*
X107840952Y-83279819D02*
X108079047Y-83279819D01*
X108079047Y-83279819D02*
X108174285Y-83327438D01*
X108174285Y-83327438D02*
X108221904Y-83375057D01*
X108221904Y-83375057D02*
X108269523Y-83470295D01*
X108269523Y-83470295D02*
X108269523Y-83565533D01*
X108269523Y-83565533D02*
X108221904Y-83708390D01*
X108221904Y-83708390D02*
X107650476Y-84279819D01*
X107650476Y-84279819D02*
X108269523Y-84279819D01*
X120454819Y-82738094D02*
X119454819Y-82738094D01*
X119454819Y-82738094D02*
X119454819Y-82499999D01*
X119454819Y-82499999D02*
X119502438Y-82357142D01*
X119502438Y-82357142D02*
X119597676Y-82261904D01*
X119597676Y-82261904D02*
X119692914Y-82214285D01*
X119692914Y-82214285D02*
X119883390Y-82166666D01*
X119883390Y-82166666D02*
X120026247Y-82166666D01*
X120026247Y-82166666D02*
X120216723Y-82214285D01*
X120216723Y-82214285D02*
X120311961Y-82261904D01*
X120311961Y-82261904D02*
X120407200Y-82357142D01*
X120407200Y-82357142D02*
X120454819Y-82499999D01*
X120454819Y-82499999D02*
X120454819Y-82738094D01*
X119550057Y-81785713D02*
X119502438Y-81738094D01*
X119502438Y-81738094D02*
X119454819Y-81642856D01*
X119454819Y-81642856D02*
X119454819Y-81404761D01*
X119454819Y-81404761D02*
X119502438Y-81309523D01*
X119502438Y-81309523D02*
X119550057Y-81261904D01*
X119550057Y-81261904D02*
X119645295Y-81214285D01*
X119645295Y-81214285D02*
X119740533Y-81214285D01*
X119740533Y-81214285D02*
X119883390Y-81261904D01*
X119883390Y-81261904D02*
X120454819Y-81833332D01*
X120454819Y-81833332D02*
X120454819Y-81214285D01*
X118954819Y-75761904D02*
X117954819Y-75761904D01*
X118954819Y-75190476D02*
X118383390Y-75619047D01*
X117954819Y-75190476D02*
X118526247Y-75761904D01*
X98527200Y-87869048D02*
X98574819Y-87773810D01*
X98574819Y-87773810D02*
X98574819Y-87583334D01*
X98574819Y-87583334D02*
X98527200Y-87488096D01*
X98527200Y-87488096D02*
X98431961Y-87440477D01*
X98431961Y-87440477D02*
X98384342Y-87440477D01*
X98384342Y-87440477D02*
X98289104Y-87488096D01*
X98289104Y-87488096D02*
X98241485Y-87583334D01*
X98241485Y-87583334D02*
X98241485Y-87726191D01*
X98241485Y-87726191D02*
X98193866Y-87821429D01*
X98193866Y-87821429D02*
X98098628Y-87869048D01*
X98098628Y-87869048D02*
X98051009Y-87869048D01*
X98051009Y-87869048D02*
X97955771Y-87821429D01*
X97955771Y-87821429D02*
X97908152Y-87726191D01*
X97908152Y-87726191D02*
X97908152Y-87583334D01*
X97908152Y-87583334D02*
X97955771Y-87488096D01*
X97908152Y-87107143D02*
X98574819Y-86916667D01*
X98574819Y-86916667D02*
X98098628Y-86726191D01*
X98098628Y-86726191D02*
X98574819Y-86535715D01*
X98574819Y-86535715D02*
X97908152Y-86345239D01*
X98574819Y-85964286D02*
X97908152Y-85964286D01*
X97574819Y-85964286D02*
X97622438Y-86011905D01*
X97622438Y-86011905D02*
X97670057Y-85964286D01*
X97670057Y-85964286D02*
X97622438Y-85916667D01*
X97622438Y-85916667D02*
X97574819Y-85964286D01*
X97574819Y-85964286D02*
X97670057Y-85964286D01*
X97908152Y-85630953D02*
X97908152Y-85250001D01*
X97574819Y-85488096D02*
X98431961Y-85488096D01*
X98431961Y-85488096D02*
X98527200Y-85440477D01*
X98527200Y-85440477D02*
X98574819Y-85345239D01*
X98574819Y-85345239D02*
X98574819Y-85250001D01*
X98527200Y-84488096D02*
X98574819Y-84583334D01*
X98574819Y-84583334D02*
X98574819Y-84773810D01*
X98574819Y-84773810D02*
X98527200Y-84869048D01*
X98527200Y-84869048D02*
X98479580Y-84916667D01*
X98479580Y-84916667D02*
X98384342Y-84964286D01*
X98384342Y-84964286D02*
X98098628Y-84964286D01*
X98098628Y-84964286D02*
X98003390Y-84916667D01*
X98003390Y-84916667D02*
X97955771Y-84869048D01*
X97955771Y-84869048D02*
X97908152Y-84773810D01*
X97908152Y-84773810D02*
X97908152Y-84583334D01*
X97908152Y-84583334D02*
X97955771Y-84488096D01*
X98574819Y-84059524D02*
X97574819Y-84059524D01*
X98574819Y-83630953D02*
X98051009Y-83630953D01*
X98051009Y-83630953D02*
X97955771Y-83678572D01*
X97955771Y-83678572D02*
X97908152Y-83773810D01*
X97908152Y-83773810D02*
X97908152Y-83916667D01*
X97908152Y-83916667D02*
X97955771Y-84011905D01*
X97955771Y-84011905D02*
X98003390Y-84059524D01*
X98527200Y-82773810D02*
X98574819Y-82869048D01*
X98574819Y-82869048D02*
X98574819Y-83059524D01*
X98574819Y-83059524D02*
X98527200Y-83154762D01*
X98527200Y-83154762D02*
X98431961Y-83202381D01*
X98431961Y-83202381D02*
X98051009Y-83202381D01*
X98051009Y-83202381D02*
X97955771Y-83154762D01*
X97955771Y-83154762D02*
X97908152Y-83059524D01*
X97908152Y-83059524D02*
X97908152Y-82869048D01*
X97908152Y-82869048D02*
X97955771Y-82773810D01*
X97955771Y-82773810D02*
X98051009Y-82726191D01*
X98051009Y-82726191D02*
X98146247Y-82726191D01*
X98146247Y-82726191D02*
X98241485Y-83202381D01*
X98574819Y-81869048D02*
X97574819Y-81869048D01*
X98527200Y-81869048D02*
X98574819Y-81964286D01*
X98574819Y-81964286D02*
X98574819Y-82154762D01*
X98574819Y-82154762D02*
X98527200Y-82250000D01*
X98527200Y-82250000D02*
X98479580Y-82297619D01*
X98479580Y-82297619D02*
X98384342Y-82345238D01*
X98384342Y-82345238D02*
X98098628Y-82345238D01*
X98098628Y-82345238D02*
X98003390Y-82297619D01*
X98003390Y-82297619D02*
X97955771Y-82250000D01*
X97955771Y-82250000D02*
X97908152Y-82154762D01*
X97908152Y-82154762D02*
X97908152Y-81964286D01*
X97908152Y-81964286D02*
X97955771Y-81869048D01*
X98670057Y-81630953D02*
X98670057Y-80869048D01*
X98574819Y-80488095D02*
X98527200Y-80583333D01*
X98527200Y-80583333D02*
X98479580Y-80630952D01*
X98479580Y-80630952D02*
X98384342Y-80678571D01*
X98384342Y-80678571D02*
X98098628Y-80678571D01*
X98098628Y-80678571D02*
X98003390Y-80630952D01*
X98003390Y-80630952D02*
X97955771Y-80583333D01*
X97955771Y-80583333D02*
X97908152Y-80488095D01*
X97908152Y-80488095D02*
X97908152Y-80345238D01*
X97908152Y-80345238D02*
X97955771Y-80250000D01*
X97955771Y-80250000D02*
X98003390Y-80202381D01*
X98003390Y-80202381D02*
X98098628Y-80154762D01*
X98098628Y-80154762D02*
X98384342Y-80154762D01*
X98384342Y-80154762D02*
X98479580Y-80202381D01*
X98479580Y-80202381D02*
X98527200Y-80250000D01*
X98527200Y-80250000D02*
X98574819Y-80345238D01*
X98574819Y-80345238D02*
X98574819Y-80488095D01*
X97908152Y-79297619D02*
X98574819Y-79297619D01*
X97908152Y-79726190D02*
X98431961Y-79726190D01*
X98431961Y-79726190D02*
X98527200Y-79678571D01*
X98527200Y-79678571D02*
X98574819Y-79583333D01*
X98574819Y-79583333D02*
X98574819Y-79440476D01*
X98574819Y-79440476D02*
X98527200Y-79345238D01*
X98527200Y-79345238D02*
X98479580Y-79297619D01*
X97908152Y-78964285D02*
X97908152Y-78583333D01*
X97574819Y-78821428D02*
X98431961Y-78821428D01*
X98431961Y-78821428D02*
X98527200Y-78773809D01*
X98527200Y-78773809D02*
X98574819Y-78678571D01*
X98574819Y-78678571D02*
X98574819Y-78583333D01*
X97908152Y-78249999D02*
X98908152Y-78249999D01*
X97955771Y-78249999D02*
X97908152Y-78154761D01*
X97908152Y-78154761D02*
X97908152Y-77964285D01*
X97908152Y-77964285D02*
X97955771Y-77869047D01*
X97955771Y-77869047D02*
X98003390Y-77821428D01*
X98003390Y-77821428D02*
X98098628Y-77773809D01*
X98098628Y-77773809D02*
X98384342Y-77773809D01*
X98384342Y-77773809D02*
X98479580Y-77821428D01*
X98479580Y-77821428D02*
X98527200Y-77869047D01*
X98527200Y-77869047D02*
X98574819Y-77964285D01*
X98574819Y-77964285D02*
X98574819Y-78154761D01*
X98574819Y-78154761D02*
X98527200Y-78249999D01*
X97908152Y-76916666D02*
X98574819Y-76916666D01*
X97908152Y-77345237D02*
X98431961Y-77345237D01*
X98431961Y-77345237D02*
X98527200Y-77297618D01*
X98527200Y-77297618D02*
X98574819Y-77202380D01*
X98574819Y-77202380D02*
X98574819Y-77059523D01*
X98574819Y-77059523D02*
X98527200Y-76964285D01*
X98527200Y-76964285D02*
X98479580Y-76916666D01*
X97908152Y-76583332D02*
X97908152Y-76202380D01*
X97574819Y-76440475D02*
X98431961Y-76440475D01*
X98431961Y-76440475D02*
X98527200Y-76392856D01*
X98527200Y-76392856D02*
X98574819Y-76297618D01*
X98574819Y-76297618D02*
X98574819Y-76202380D01*
X98670057Y-76107142D02*
X98670057Y-75345237D01*
X97574819Y-74916665D02*
X97574819Y-74821427D01*
X97574819Y-74821427D02*
X97622438Y-74726189D01*
X97622438Y-74726189D02*
X97670057Y-74678570D01*
X97670057Y-74678570D02*
X97765295Y-74630951D01*
X97765295Y-74630951D02*
X97955771Y-74583332D01*
X97955771Y-74583332D02*
X98193866Y-74583332D01*
X98193866Y-74583332D02*
X98384342Y-74630951D01*
X98384342Y-74630951D02*
X98479580Y-74678570D01*
X98479580Y-74678570D02*
X98527200Y-74726189D01*
X98527200Y-74726189D02*
X98574819Y-74821427D01*
X98574819Y-74821427D02*
X98574819Y-74916665D01*
X98574819Y-74916665D02*
X98527200Y-75011903D01*
X98527200Y-75011903D02*
X98479580Y-75059522D01*
X98479580Y-75059522D02*
X98384342Y-75107141D01*
X98384342Y-75107141D02*
X98193866Y-75154760D01*
X98193866Y-75154760D02*
X97955771Y-75154760D01*
X97955771Y-75154760D02*
X97765295Y-75107141D01*
X97765295Y-75107141D02*
X97670057Y-75059522D01*
X97670057Y-75059522D02*
X97622438Y-75011903D01*
X97622438Y-75011903D02*
X97574819Y-74916665D01*
X98574819Y-73630951D02*
X98574819Y-74202379D01*
X98574819Y-73916665D02*
X97574819Y-73916665D01*
X97574819Y-73916665D02*
X97717676Y-74011903D01*
X97717676Y-74011903D02*
X97812914Y-74107141D01*
X97812914Y-74107141D02*
X97860533Y-74202379D01*
D10*
X125313095Y-113857419D02*
X125313095Y-114666942D01*
X125313095Y-114666942D02*
X125360714Y-114762180D01*
X125360714Y-114762180D02*
X125408333Y-114809800D01*
X125408333Y-114809800D02*
X125503571Y-114857419D01*
X125503571Y-114857419D02*
X125694047Y-114857419D01*
X125694047Y-114857419D02*
X125789285Y-114809800D01*
X125789285Y-114809800D02*
X125836904Y-114762180D01*
X125836904Y-114762180D02*
X125884523Y-114666942D01*
X125884523Y-114666942D02*
X125884523Y-113857419D01*
X126884523Y-114857419D02*
X126313095Y-114857419D01*
X126598809Y-114857419D02*
X126598809Y-113857419D01*
X126598809Y-113857419D02*
X126503571Y-114000276D01*
X126503571Y-114000276D02*
X126408333Y-114095514D01*
X126408333Y-114095514D02*
X126313095Y-114143133D01*
D13*
X106833333Y-98084819D02*
X106500000Y-97608628D01*
X106261905Y-98084819D02*
X106261905Y-97084819D01*
X106261905Y-97084819D02*
X106642857Y-97084819D01*
X106642857Y-97084819D02*
X106738095Y-97132438D01*
X106738095Y-97132438D02*
X106785714Y-97180057D01*
X106785714Y-97180057D02*
X106833333Y-97275295D01*
X106833333Y-97275295D02*
X106833333Y-97418152D01*
X106833333Y-97418152D02*
X106785714Y-97513390D01*
X106785714Y-97513390D02*
X106738095Y-97561009D01*
X106738095Y-97561009D02*
X106642857Y-97608628D01*
X106642857Y-97608628D02*
X106261905Y-97608628D01*
X107785714Y-98084819D02*
X107214286Y-98084819D01*
X107500000Y-98084819D02*
X107500000Y-97084819D01*
X107500000Y-97084819D02*
X107404762Y-97227676D01*
X107404762Y-97227676D02*
X107309524Y-97322914D01*
X107309524Y-97322914D02*
X107214286Y-97370533D01*
D14*
%TO.C,R3*%
X137960000Y-102500000D02*
X138730000Y-102500000D01*
X146040000Y-102500000D02*
X145270000Y-102500000D01*
X138730000Y-101130000D02*
X145270000Y-101130000D01*
X145270000Y-103870000D01*
X138730000Y-103870000D01*
X138730000Y-101130000D01*
%TO.C,neopixel_pwr1
GND  12V*%
X88880000Y-86880000D02*
X96920000Y-86880000D01*
X88880000Y-97620000D02*
X88880000Y-86880000D01*
X88880000Y-97620000D02*
X96920000Y-97620000D01*
X92500000Y-87688000D02*
X92500000Y-86880000D01*
X92500000Y-92620000D02*
X92500000Y-91312000D01*
X92500000Y-97620000D02*
X92500000Y-96380000D01*
X93500000Y-87688000D02*
X93500000Y-86880000D01*
X93500000Y-92620000D02*
X93500000Y-91312000D01*
X93500000Y-97620000D02*
X93500000Y-96380000D01*
X94800000Y-88957000D02*
X94800000Y-86880000D01*
X94800000Y-92620000D02*
X94800000Y-90043000D01*
X94800000Y-97620000D02*
X94800000Y-96380000D01*
X96920000Y-94200000D02*
X96920000Y-86880000D01*
X96920000Y-97620000D02*
X96920000Y-94800000D01*
X97530000Y-94940000D02*
X96920000Y-94500000D01*
X97530000Y-94060000D01*
X97530000Y-94940000D01*
G36*
X97530000Y-94940000D02*
G01*
X96920000Y-94500000D01*
X97530000Y-94060000D01*
X97530000Y-94940000D01*
G37*
%TO.C,dmx_out1*%
X89080000Y-110880000D02*
X89080000Y-113700000D01*
X89080000Y-114300000D02*
X89080000Y-126620000D01*
X91200000Y-110880000D02*
X91200000Y-112120000D01*
X91200000Y-115880000D02*
X91200000Y-118457000D01*
X91200000Y-119543000D02*
X91200000Y-123457000D01*
X91200000Y-124543000D02*
X91200000Y-126620000D01*
X92500000Y-110880000D02*
X92500000Y-112120000D01*
X92500000Y-115880000D02*
X92500000Y-117188000D01*
X92500000Y-120812000D02*
X92500000Y-122188000D01*
X92500000Y-125812000D02*
X92500000Y-126620000D01*
X93500000Y-110880000D02*
X93500000Y-112120000D01*
X93500000Y-115880000D02*
X93500000Y-117188000D01*
X93500000Y-120812000D02*
X93500000Y-122188000D01*
X93500000Y-125812000D02*
X93500000Y-126620000D01*
X97120000Y-110880000D02*
X89080000Y-110880000D01*
X97120000Y-110880000D02*
X97120000Y-126620000D01*
X97120000Y-126620000D02*
X89080000Y-126620000D01*
X89080000Y-114000000D02*
X88470000Y-114440000D01*
X88470000Y-113560000D01*
X89080000Y-114000000D01*
G36*
X89080000Y-114000000D02*
G01*
X88470000Y-114440000D01*
X88470000Y-113560000D01*
X89080000Y-114000000D01*
G37*
%TO.C,D3*%
X114580000Y-47580000D02*
X114580000Y-55420000D01*
X114580000Y-55420000D02*
X115060000Y-55420000D01*
X115060000Y-47580000D02*
X114580000Y-47580000D01*
X117940000Y-47580000D02*
X118420000Y-47580000D01*
X118420000Y-47580000D02*
X118420000Y-55420000D01*
X118420000Y-48720000D02*
X114580000Y-48720000D01*
X118420000Y-48840000D02*
X114580000Y-48840000D01*
X118420000Y-48960000D02*
X114580000Y-48960000D01*
X118420000Y-55420000D02*
X117940000Y-55420000D01*
%TO.C,J10*%
X161880000Y-39055000D02*
X161880000Y-31015000D01*
X162688000Y-34435000D02*
X161880000Y-34435000D01*
X162688000Y-35435000D02*
X161880000Y-35435000D01*
X163957000Y-33135000D02*
X161880000Y-33135000D01*
X167620000Y-33135000D02*
X165043000Y-33135000D01*
X167620000Y-34435000D02*
X166312000Y-34435000D01*
X167620000Y-35435000D02*
X166312000Y-35435000D01*
X169200000Y-31015000D02*
X161880000Y-31015000D01*
X172620000Y-31015000D02*
X169800000Y-31015000D01*
X172620000Y-33135000D02*
X171380000Y-33135000D01*
X172620000Y-34435000D02*
X171380000Y-34435000D01*
X172620000Y-35435000D02*
X171380000Y-35435000D01*
X172620000Y-39055000D02*
X161880000Y-39055000D01*
X172620000Y-39055000D02*
X172620000Y-31015000D01*
X169500000Y-31015000D02*
X169060000Y-30405000D01*
X169940000Y-30405000D01*
X169500000Y-31015000D01*
G36*
X169500000Y-31015000D02*
G01*
X169060000Y-30405000D01*
X169940000Y-30405000D01*
X169500000Y-31015000D01*
G37*
%TO.C,Q3*%
X101380000Y-54325000D02*
X101380000Y-49684000D01*
X104649000Y-54325000D02*
X104649000Y-52815000D01*
X108350000Y-54325000D02*
X108350000Y-52815000D01*
X111620000Y-49684000D02*
X101380000Y-49684000D01*
X111620000Y-52815000D02*
X101380000Y-52815000D01*
X111620000Y-54325000D02*
X101380000Y-54325000D01*
X111620000Y-54325000D02*
X111620000Y-49684000D01*
%TO.C,J20*%
D10*
X202450000Y-79050000D02*
X223650000Y-79050000D01*
X223650000Y-47950000D01*
X202450000Y-47950000D01*
X202450000Y-79050000D01*
D14*
%TO.C,J15*%
X210380000Y-39120000D02*
X210380000Y-31080000D01*
X211188000Y-34500000D02*
X210380000Y-34500000D01*
X211188000Y-35500000D02*
X210380000Y-35500000D01*
X212457000Y-33200000D02*
X210380000Y-33200000D01*
X216120000Y-33200000D02*
X213543000Y-33200000D01*
X216120000Y-34500000D02*
X214812000Y-34500000D01*
X216120000Y-35500000D02*
X214812000Y-35500000D01*
X217700000Y-31080000D02*
X210380000Y-31080000D01*
X221120000Y-31080000D02*
X218300000Y-31080000D01*
X221120000Y-33200000D02*
X219880000Y-33200000D01*
X221120000Y-34500000D02*
X219880000Y-34500000D01*
X221120000Y-35500000D02*
X219880000Y-35500000D01*
X221120000Y-39120000D02*
X210380000Y-39120000D01*
X221120000Y-39120000D02*
X221120000Y-31080000D01*
X218000000Y-31080000D02*
X217560000Y-30470000D01*
X218440000Y-30470000D01*
X218000000Y-31080000D01*
G36*
X218000000Y-31080000D02*
G01*
X217560000Y-30470000D01*
X218440000Y-30470000D01*
X218000000Y-31080000D01*
G37*
%TO.C,ESP32_S3*%
X156120000Y-57370000D02*
X156120000Y-80870000D01*
X156120000Y-80870000D02*
X174120000Y-80870000D01*
X174120000Y-57370000D02*
X156120000Y-57370000D01*
X174120000Y-80870000D02*
X174120000Y-57370000D01*
%TO.C,J12*%
X113807400Y-38917300D02*
X113807400Y-30877300D01*
X114615400Y-34297300D02*
X113807400Y-34297300D01*
X114615400Y-35297300D02*
X113807400Y-35297300D01*
X115884400Y-32997300D02*
X113807400Y-32997300D01*
X119547400Y-32997300D02*
X116970400Y-32997300D01*
X119547400Y-34297300D02*
X118239400Y-34297300D01*
X119547400Y-35297300D02*
X118239400Y-35297300D01*
X121127400Y-30877300D02*
X113807400Y-30877300D01*
X124547400Y-30877300D02*
X121727400Y-30877300D01*
X124547400Y-32997300D02*
X123307400Y-32997300D01*
X124547400Y-34297300D02*
X123307400Y-34297300D01*
X124547400Y-35297300D02*
X123307400Y-35297300D01*
X124547400Y-38917300D02*
X113807400Y-38917300D01*
X124547400Y-38917300D02*
X124547400Y-30877300D01*
X121427400Y-30877300D02*
X120987400Y-30267300D01*
X121867400Y-30267300D01*
X121427400Y-30877300D01*
G36*
X121427400Y-30877300D02*
G01*
X120987400Y-30267300D01*
X121867400Y-30267300D01*
X121427400Y-30877300D01*
G37*
%TO.C,J11*%
X137880000Y-39055000D02*
X137880000Y-31015000D01*
X138688000Y-34435000D02*
X137880000Y-34435000D01*
X138688000Y-35435000D02*
X137880000Y-35435000D01*
X139957000Y-33135000D02*
X137880000Y-33135000D01*
X143620000Y-33135000D02*
X141043000Y-33135000D01*
X143620000Y-34435000D02*
X142312000Y-34435000D01*
X143620000Y-35435000D02*
X142312000Y-35435000D01*
X145200000Y-31015000D02*
X137880000Y-31015000D01*
X148620000Y-31015000D02*
X145800000Y-31015000D01*
X148620000Y-33135000D02*
X147380000Y-33135000D01*
X148620000Y-34435000D02*
X147380000Y-34435000D01*
X148620000Y-35435000D02*
X147380000Y-35435000D01*
X148620000Y-39055000D02*
X137880000Y-39055000D01*
X148620000Y-39055000D02*
X148620000Y-31015000D01*
X145500000Y-31015000D02*
X145060000Y-30405000D01*
X145940000Y-30405000D01*
X145500000Y-31015000D01*
G36*
X145500000Y-31015000D02*
G01*
X145060000Y-30405000D01*
X145940000Y-30405000D01*
X145500000Y-31015000D01*
G37*
%TO.C,J9*%
X101590300Y-38909700D02*
X101590300Y-30869700D01*
X102398300Y-34289700D02*
X101590300Y-34289700D01*
X102398300Y-35289700D02*
X101590300Y-35289700D01*
X103667300Y-32989700D02*
X101590300Y-32989700D01*
X107330300Y-32989700D02*
X104753300Y-32989700D01*
X107330300Y-34289700D02*
X106022300Y-34289700D01*
X107330300Y-35289700D02*
X106022300Y-35289700D01*
X108910300Y-30869700D02*
X101590300Y-30869700D01*
X112330300Y-30869700D02*
X109510300Y-30869700D01*
X112330300Y-32989700D02*
X111090300Y-32989700D01*
X112330300Y-34289700D02*
X111090300Y-34289700D01*
X112330300Y-35289700D02*
X111090300Y-35289700D01*
X112330300Y-38909700D02*
X101590300Y-38909700D01*
X112330300Y-38909700D02*
X112330300Y-30869700D01*
X109210300Y-30869700D02*
X108770300Y-30259700D01*
X109650300Y-30259700D01*
X109210300Y-30869700D01*
G36*
X109210300Y-30869700D02*
G01*
X108770300Y-30259700D01*
X109650300Y-30259700D01*
X109210300Y-30869700D01*
G37*
%TO.C,J13*%
X89590300Y-38909700D02*
X89590300Y-30869700D01*
X90398300Y-34289700D02*
X89590300Y-34289700D01*
X90398300Y-35289700D02*
X89590300Y-35289700D01*
X91667300Y-32989700D02*
X89590300Y-32989700D01*
X95330300Y-32989700D02*
X92753300Y-32989700D01*
X95330300Y-34289700D02*
X94022300Y-34289700D01*
X95330300Y-35289700D02*
X94022300Y-35289700D01*
X96910300Y-30869700D02*
X89590300Y-30869700D01*
X100330300Y-30869700D02*
X97510300Y-30869700D01*
X100330300Y-32989700D02*
X99090300Y-32989700D01*
X100330300Y-34289700D02*
X99090300Y-34289700D01*
X100330300Y-35289700D02*
X99090300Y-35289700D01*
X100330300Y-38909700D02*
X89590300Y-38909700D01*
X100330300Y-38909700D02*
X100330300Y-30869700D01*
X97210300Y-30869700D02*
X96770300Y-30259700D01*
X97650300Y-30259700D01*
X97210300Y-30869700D01*
G36*
X97210300Y-30869700D02*
G01*
X96770300Y-30259700D01*
X97650300Y-30259700D01*
X97210300Y-30869700D01*
G37*
%TO.C,Q1*%
X101880000Y-68825000D02*
X101880000Y-64184000D01*
X105149000Y-68825000D02*
X105149000Y-67315000D01*
X108850000Y-68825000D02*
X108850000Y-67315000D01*
X112120000Y-64184000D02*
X101880000Y-64184000D01*
X112120000Y-67315000D02*
X101880000Y-67315000D01*
X112120000Y-68825000D02*
X101880000Y-68825000D01*
X112120000Y-68825000D02*
X112120000Y-64184000D01*
%TO.C,U2*%
D10*
X100800000Y-112500000D02*
X148800000Y-112500000D01*
X148800000Y-126500000D01*
X100800000Y-126500000D01*
X100800000Y-112500000D01*
D14*
%TO.C,J16*%
X198380000Y-39185000D02*
X198380000Y-31145000D01*
X199188000Y-34565000D02*
X198380000Y-34565000D01*
X199188000Y-35565000D02*
X198380000Y-35565000D01*
X200457000Y-33265000D02*
X198380000Y-33265000D01*
X204120000Y-33265000D02*
X201543000Y-33265000D01*
X204120000Y-34565000D02*
X202812000Y-34565000D01*
X204120000Y-35565000D02*
X202812000Y-35565000D01*
X205700000Y-31145000D02*
X198380000Y-31145000D01*
X209120000Y-31145000D02*
X206300000Y-31145000D01*
X209120000Y-33265000D02*
X207880000Y-33265000D01*
X209120000Y-34565000D02*
X207880000Y-34565000D01*
X209120000Y-35565000D02*
X207880000Y-35565000D01*
X209120000Y-39185000D02*
X198380000Y-39185000D01*
X209120000Y-39185000D02*
X209120000Y-31145000D01*
X206000000Y-31145000D02*
X205560000Y-30535000D01*
X206440000Y-30535000D01*
X206000000Y-31145000D01*
G36*
X206000000Y-31145000D02*
G01*
X205560000Y-30535000D01*
X206440000Y-30535000D01*
X206000000Y-31145000D01*
G37*
%TO.C,J17*%
X186630000Y-39152500D02*
X186630000Y-31112500D01*
X187438000Y-34532500D02*
X186630000Y-34532500D01*
X187438000Y-35532500D02*
X186630000Y-35532500D01*
X188707000Y-33232500D02*
X186630000Y-33232500D01*
X192370000Y-33232500D02*
X189793000Y-33232500D01*
X192370000Y-34532500D02*
X191062000Y-34532500D01*
X192370000Y-35532500D02*
X191062000Y-35532500D01*
X193950000Y-31112500D02*
X186630000Y-31112500D01*
X197370000Y-31112500D02*
X194550000Y-31112500D01*
X197370000Y-33232500D02*
X196130000Y-33232500D01*
X197370000Y-34532500D02*
X196130000Y-34532500D01*
X197370000Y-35532500D02*
X196130000Y-35532500D01*
X197370000Y-39152500D02*
X186630000Y-39152500D01*
X197370000Y-39152500D02*
X197370000Y-31112500D01*
X194250000Y-31112500D02*
X193810000Y-30502500D01*
X194690000Y-30502500D01*
X194250000Y-31112500D01*
G36*
X194250000Y-31112500D02*
G01*
X193810000Y-30502500D01*
X194690000Y-30502500D01*
X194250000Y-31112500D01*
G37*
%TO.C,J1*%
X176755000Y-65225000D02*
X176755000Y-64350000D01*
X176814435Y-65225000D02*
X176755000Y-65225000D01*
X177089970Y-64350000D02*
X176755000Y-64350000D01*
X178245000Y-64350000D02*
X177910030Y-64350000D01*
X178245000Y-65225000D02*
X178185565Y-65225000D01*
X178245000Y-65225000D02*
X178245000Y-64350000D01*
X178245000Y-65960000D02*
X178245000Y-66695000D01*
X178245000Y-66695000D02*
X177500000Y-66695000D01*
%TO.C,U3*%
X189000000Y-69440000D02*
X187050000Y-69440000D01*
X189000000Y-69440000D02*
X190950000Y-69440000D01*
X189000000Y-74560000D02*
X187050000Y-74560000D01*
X189000000Y-74560000D02*
X190950000Y-74560000D01*
X186300000Y-69535000D02*
X186060000Y-69205000D01*
X186540000Y-69205000D01*
X186300000Y-69535000D01*
G36*
X186300000Y-69535000D02*
G01*
X186060000Y-69205000D01*
X186540000Y-69205000D01*
X186300000Y-69535000D01*
G37*
%TO.C,R2*%
X102960000Y-105000000D02*
X103730000Y-105000000D01*
X103730000Y-103630000D02*
X103730000Y-106370000D01*
X103730000Y-106370000D02*
X110270000Y-106370000D01*
X110270000Y-103630000D02*
X103730000Y-103630000D01*
X110270000Y-106370000D02*
X110270000Y-103630000D01*
X111040000Y-105000000D02*
X110270000Y-105000000D01*
%TO.C,12v_input_terminal1*%
X214880000Y-115380000D02*
X222920000Y-115380000D01*
X214880000Y-126120000D02*
X214880000Y-115380000D01*
X214880000Y-126120000D02*
X222920000Y-126120000D01*
X218500000Y-116188000D02*
X218500000Y-115380000D01*
X218500000Y-121120000D02*
X218500000Y-119812000D01*
X218500000Y-126120000D02*
X218500000Y-124880000D01*
X219500000Y-116188000D02*
X219500000Y-115380000D01*
X219500000Y-121120000D02*
X219500000Y-119812000D01*
X219500000Y-126120000D02*
X219500000Y-124880000D01*
X220800000Y-117457000D02*
X220800000Y-115380000D01*
X220800000Y-121120000D02*
X220800000Y-118543000D01*
X220800000Y-126120000D02*
X220800000Y-124880000D01*
X222920000Y-122700000D02*
X222920000Y-115380000D01*
X222920000Y-126120000D02*
X222920000Y-123300000D01*
X223530000Y-123440000D02*
X222920000Y-123000000D01*
X223530000Y-122560000D01*
X223530000Y-123440000D01*
G36*
X223530000Y-123440000D02*
G01*
X222920000Y-123000000D01*
X223530000Y-122560000D01*
X223530000Y-123440000D01*
G37*
%TO.C,J14*%
X149880000Y-39055000D02*
X149880000Y-31015000D01*
X150688000Y-34435000D02*
X149880000Y-34435000D01*
X150688000Y-35435000D02*
X149880000Y-35435000D01*
X151957000Y-33135000D02*
X149880000Y-33135000D01*
X155620000Y-33135000D02*
X153043000Y-33135000D01*
X155620000Y-34435000D02*
X154312000Y-34435000D01*
X155620000Y-35435000D02*
X154312000Y-35435000D01*
X157200000Y-31015000D02*
X149880000Y-31015000D01*
X160620000Y-31015000D02*
X157800000Y-31015000D01*
X160620000Y-33135000D02*
X159380000Y-33135000D01*
X160620000Y-34435000D02*
X159380000Y-34435000D01*
X160620000Y-35435000D02*
X159380000Y-35435000D01*
X160620000Y-39055000D02*
X149880000Y-39055000D01*
X160620000Y-39055000D02*
X160620000Y-31015000D01*
X157500000Y-31015000D02*
X157060000Y-30405000D01*
X157940000Y-30405000D01*
X157500000Y-31015000D01*
G36*
X157500000Y-31015000D02*
G01*
X157060000Y-30405000D01*
X157940000Y-30405000D01*
X157500000Y-31015000D01*
G37*
%TO.C,neopixel_out1*%
X89080000Y-98630000D02*
X89080000Y-101450000D01*
X89080000Y-102050000D02*
X89080000Y-109370000D01*
X91200000Y-98630000D02*
X91200000Y-99870000D01*
X91200000Y-103630000D02*
X91200000Y-106207000D01*
X91200000Y-107293000D02*
X91200000Y-109370000D01*
X92500000Y-98630000D02*
X92500000Y-99870000D01*
X92500000Y-103630000D02*
X92500000Y-104938000D01*
X92500000Y-108562000D02*
X92500000Y-109370000D01*
X93500000Y-98630000D02*
X93500000Y-99870000D01*
X93500000Y-103630000D02*
X93500000Y-104938000D01*
X93500000Y-108562000D02*
X93500000Y-109370000D01*
X97120000Y-98630000D02*
X89080000Y-98630000D01*
X97120000Y-98630000D02*
X97120000Y-109370000D01*
X97120000Y-109370000D02*
X89080000Y-109370000D01*
X89080000Y-101750000D02*
X88470000Y-102190000D01*
X88470000Y-101310000D01*
X89080000Y-101750000D01*
G36*
X89080000Y-101750000D02*
G01*
X88470000Y-102190000D01*
X88470000Y-101310000D01*
X89080000Y-101750000D01*
G37*
D15*
%TO.C,J18*%
X210412500Y-103050000D02*
X210412500Y-105450000D01*
X210412500Y-112050000D02*
X210412500Y-109650000D01*
X210412500Y-112050000D02*
X224612500Y-112050000D01*
X211912500Y-103050000D02*
X210412500Y-103050000D01*
X224612500Y-103050000D02*
X216012500Y-103050000D01*
X224612500Y-112050000D02*
X224612500Y-103050000D01*
D11*
X209412500Y-107450000D02*
G75*
G02*
X209212500Y-107450000I-100000J0D01*
G01*
X209212500Y-107450000D02*
G75*
G02*
X209412500Y-107450000I100000J0D01*
G01*
D14*
%TO.C,J3*%
X176755000Y-59765000D02*
X176755000Y-58890000D01*
X176814435Y-59765000D02*
X176755000Y-59765000D01*
X177089970Y-58890000D02*
X176755000Y-58890000D01*
X178245000Y-58890000D02*
X177910030Y-58890000D01*
X178245000Y-59765000D02*
X178185565Y-59765000D01*
X178245000Y-59765000D02*
X178245000Y-58890000D01*
X178245000Y-60500000D02*
X178245000Y-61235000D01*
X178245000Y-61235000D02*
X177500000Y-61235000D01*
%TO.C,D1*%
X114580000Y-62080000D02*
X114580000Y-69920000D01*
X114580000Y-69920000D02*
X115060000Y-69920000D01*
X115060000Y-62080000D02*
X114580000Y-62080000D01*
X117940000Y-62080000D02*
X118420000Y-62080000D01*
X118420000Y-62080000D02*
X118420000Y-69920000D01*
X118420000Y-63220000D02*
X114580000Y-63220000D01*
X118420000Y-63340000D02*
X114580000Y-63340000D01*
X118420000Y-63460000D02*
X114580000Y-63460000D01*
X118420000Y-69920000D02*
X117940000Y-69920000D01*
%TO.C,switched_output_02*%
X89112500Y-60880000D02*
X89112500Y-63700000D01*
X89112500Y-64300000D02*
X89112500Y-71620000D01*
X91232500Y-60880000D02*
X91232500Y-62120000D01*
X91232500Y-65880000D02*
X91232500Y-68457000D01*
X91232500Y-69543000D02*
X91232500Y-71620000D01*
X92532500Y-60880000D02*
X92532500Y-62120000D01*
X92532500Y-65880000D02*
X92532500Y-67188000D01*
X92532500Y-70812000D02*
X92532500Y-71620000D01*
X93532500Y-60880000D02*
X93532500Y-62120000D01*
X93532500Y-65880000D02*
X93532500Y-67188000D01*
X93532500Y-70812000D02*
X93532500Y-71620000D01*
X97152500Y-60880000D02*
X89112500Y-60880000D01*
X97152500Y-60880000D02*
X97152500Y-71620000D01*
X97152500Y-71620000D02*
X89112500Y-71620000D01*
X89112500Y-64000000D02*
X88502500Y-64440000D01*
X88502500Y-63560000D01*
X89112500Y-64000000D01*
G36*
X89112500Y-64000000D02*
G01*
X88502500Y-64440000D01*
X88502500Y-63560000D01*
X89112500Y-64000000D01*
G37*
%TO.C,switched_output_03*%
X89080000Y-46880000D02*
X89080000Y-49700000D01*
X89080000Y-50300000D02*
X89080000Y-57620000D01*
X91200000Y-46880000D02*
X91200000Y-48120000D01*
X91200000Y-51880000D02*
X91200000Y-54457000D01*
X91200000Y-55543000D02*
X91200000Y-57620000D01*
X92500000Y-46880000D02*
X92500000Y-48120000D01*
X92500000Y-51880000D02*
X92500000Y-53188000D01*
X92500000Y-56812000D02*
X92500000Y-57620000D01*
X93500000Y-46880000D02*
X93500000Y-48120000D01*
X93500000Y-51880000D02*
X93500000Y-53188000D01*
X93500000Y-56812000D02*
X93500000Y-57620000D01*
X97120000Y-46880000D02*
X89080000Y-46880000D01*
X97120000Y-46880000D02*
X97120000Y-57620000D01*
X97120000Y-57620000D02*
X89080000Y-57620000D01*
X89080000Y-50000000D02*
X88470000Y-50440000D01*
X88470000Y-49560000D01*
X89080000Y-50000000D01*
G36*
X89080000Y-50000000D02*
G01*
X88470000Y-50440000D01*
X88470000Y-49560000D01*
X89080000Y-50000000D01*
G37*
%TO.C,J4*%
X149755000Y-58765000D02*
X150500000Y-58765000D01*
X149755000Y-59500000D02*
X149755000Y-58765000D01*
X149755000Y-60235000D02*
X149755000Y-61110000D01*
X149755000Y-60235000D02*
X149814435Y-60235000D01*
X149755000Y-61110000D02*
X150089970Y-61110000D01*
X150910030Y-61110000D02*
X151245000Y-61110000D01*
X151185565Y-60235000D02*
X151245000Y-60235000D01*
X151245000Y-60235000D02*
X151245000Y-61110000D01*
%TO.C,J2*%
X149755000Y-66225000D02*
X150500000Y-66225000D01*
X149755000Y-66960000D02*
X149755000Y-66225000D01*
X149755000Y-67695000D02*
X149755000Y-68570000D01*
X149755000Y-67695000D02*
X149814435Y-67695000D01*
X149755000Y-68570000D02*
X150089970Y-68570000D01*
X150910030Y-68570000D02*
X151245000Y-68570000D01*
X151185565Y-67695000D02*
X151245000Y-67695000D01*
X151245000Y-67695000D02*
X151245000Y-68570000D01*
%TO.C,J8*%
X125807400Y-38917300D02*
X125807400Y-30877300D01*
X126615400Y-34297300D02*
X125807400Y-34297300D01*
X126615400Y-35297300D02*
X125807400Y-35297300D01*
X127884400Y-32997300D02*
X125807400Y-32997300D01*
X131547400Y-32997300D02*
X128970400Y-32997300D01*
X131547400Y-34297300D02*
X130239400Y-34297300D01*
X131547400Y-35297300D02*
X130239400Y-35297300D01*
X133127400Y-30877300D02*
X125807400Y-30877300D01*
X136547400Y-30877300D02*
X133727400Y-30877300D01*
X136547400Y-32997300D02*
X135307400Y-32997300D01*
X136547400Y-34297300D02*
X135307400Y-34297300D01*
X136547400Y-35297300D02*
X135307400Y-35297300D01*
X136547400Y-38917300D02*
X125807400Y-38917300D01*
X136547400Y-38917300D02*
X136547400Y-30877300D01*
X133427400Y-30877300D02*
X132987400Y-30267300D01*
X133867400Y-30267300D01*
X133427400Y-30877300D01*
G36*
X133427400Y-30877300D02*
G01*
X132987400Y-30267300D01*
X133867400Y-30267300D01*
X133427400Y-30877300D01*
G37*
%TO.C,Q2*%
X102340000Y-82825000D02*
X102340000Y-78184000D01*
X105609000Y-82825000D02*
X105609000Y-81315000D01*
X109310000Y-82825000D02*
X109310000Y-81315000D01*
X112580000Y-78184000D02*
X102340000Y-78184000D01*
X112580000Y-81315000D02*
X102340000Y-81315000D01*
X112580000Y-82825000D02*
X102340000Y-82825000D01*
X112580000Y-82825000D02*
X112580000Y-78184000D01*
%TO.C,D2*%
X114580000Y-77080000D02*
X114580000Y-84920000D01*
X114580000Y-84920000D02*
X115060000Y-84920000D01*
X115060000Y-77080000D02*
X114580000Y-77080000D01*
X117940000Y-77080000D02*
X118420000Y-77080000D01*
X118420000Y-77080000D02*
X118420000Y-84920000D01*
X118420000Y-78220000D02*
X114580000Y-78220000D01*
X118420000Y-78340000D02*
X114580000Y-78340000D01*
X118420000Y-78460000D02*
X114580000Y-78460000D01*
X118420000Y-84920000D02*
X117940000Y-84920000D01*
%TO.C,switched_output_01*%
X89080000Y-75380000D02*
X89080000Y-78200000D01*
X89080000Y-78800000D02*
X89080000Y-86120000D01*
X91200000Y-75380000D02*
X91200000Y-76620000D01*
X91200000Y-80380000D02*
X91200000Y-82957000D01*
X91200000Y-84043000D02*
X91200000Y-86120000D01*
X92500000Y-75380000D02*
X92500000Y-76620000D01*
X92500000Y-80380000D02*
X92500000Y-81688000D01*
X92500000Y-85312000D02*
X92500000Y-86120000D01*
X93500000Y-75380000D02*
X93500000Y-76620000D01*
X93500000Y-80380000D02*
X93500000Y-81688000D01*
X93500000Y-85312000D02*
X93500000Y-86120000D01*
X97120000Y-75380000D02*
X89080000Y-75380000D01*
X97120000Y-75380000D02*
X97120000Y-86120000D01*
X97120000Y-86120000D02*
X89080000Y-86120000D01*
X89080000Y-78500000D02*
X88470000Y-78940000D01*
X88470000Y-78060000D01*
X89080000Y-78500000D01*
G36*
X89080000Y-78500000D02*
G01*
X88470000Y-78940000D01*
X88470000Y-78060000D01*
X89080000Y-78500000D01*
G37*
%TO.C,R1*%
X102960000Y-100000000D02*
X103730000Y-100000000D01*
X103730000Y-98630000D02*
X103730000Y-101370000D01*
X103730000Y-101370000D02*
X110270000Y-101370000D01*
X110270000Y-98630000D02*
X103730000Y-98630000D01*
X110270000Y-101370000D02*
X110270000Y-98630000D01*
X111040000Y-100000000D02*
X110270000Y-100000000D01*
%TD*%
M02*
