M48
; DRILL file {KiCad 9.0.2} date 2025-05-27T21:29:41+0200
; FORMAT={-:-/ absolute / metric / decimal}
; #@! TF.CreationDate,2025-05-27T21:29:41+02:00
; #@! TF.GenerationSoftware,Kicad,Pcbnew,9.0.2
; #@! TF.FileFunction,Plated,1,2,PTH
FMAT,2
METRIC
; #@! TA.AperFunction,Plated,PTH,ViaDrill
T1C0.300
; #@! TA.AperFunction,Plated,PTH,ComponentDrill
T2C0.500
; #@! TA.AperFunction,Plated,PTH,ComponentDrill
T3C0.800
; #@! TA.AperFunction,Plated,PTH,ComponentDrill
T4C0.890
; #@! TA.AperFunction,Plated,PTH,ComponentDrill
T5C1.000
; #@! TA.AperFunction,Plated,PTH,ComponentDrill
T6C1.100
; #@! TA.AperFunction,Plated,PTH,ComponentDrill
T7C1.200
; #@! TA.AperFunction,Plated,PTH,ComponentDrill
T8C1.300
; #@! TA.AperFunction,Plated,PTH,ComponentDrill
T9C1.570
%
G90
G05
T1
X151.54Y-96.208
X154.52Y-105.05
X166.364Y-102.102
X216.699Y-63.79
T2
X150.5Y-59.5
X150.5Y-60.5
X150.5Y-66.96
X150.5Y-67.96
X177.5Y-59.5
X177.5Y-60.5
X177.5Y-64.96
X177.5Y-65.96
T3
X101.92Y-100.0
X101.92Y-105.0
X112.08Y-100.0
X112.08Y-105.0
X136.92Y-102.5
X147.08Y-102.5
X157.5Y-58.96
X157.5Y-61.5
X157.5Y-64.04
X157.5Y-66.58
X157.5Y-69.12
X157.5Y-71.66
X157.5Y-74.2
X157.5Y-76.74
X157.5Y-79.28
X172.74Y-58.96
X172.74Y-61.5
X172.74Y-64.04
X172.74Y-66.58
X172.74Y-69.12
X172.74Y-71.66
X172.74Y-74.2
X172.74Y-76.74
X172.74Y-79.28
T4
X204.15Y-53.265
X204.15Y-55.805
X204.15Y-58.345
X204.15Y-60.885
X204.15Y-67.385
X204.15Y-69.925
X204.15Y-72.465
X204.15Y-75.005
X206.65Y-51.995
X206.65Y-54.535
X206.65Y-57.075
X206.65Y-59.615
X206.65Y-66.115
X206.65Y-68.655
X206.65Y-71.195
X206.65Y-73.735
T5
X105.8Y-115.5
X105.8Y-118.04
X105.8Y-120.58
X105.8Y-123.12
X120.175Y-95.7
X120.175Y-98.05
X120.175Y-100.4
X120.175Y-102.75
X120.175Y-105.1
X120.175Y-107.45
X132.975Y-95.7
X132.975Y-98.05
X132.975Y-100.4
X132.975Y-102.75
X132.975Y-105.1
X132.975Y-107.45
X147.0Y-115.5
X147.0Y-118.04
X147.0Y-120.58
X147.0Y-123.12
T6
X103.96Y-51.055
X104.46Y-65.555
X104.92Y-79.555
X106.5Y-51.055
X107.0Y-65.555
X107.46Y-79.555
X109.04Y-51.055
X109.54Y-65.555
X110.0Y-79.555
T7
X116.5Y-46.42
X116.5Y-56.58
X116.5Y-60.92
X116.5Y-71.08
X116.5Y-75.92
X116.5Y-86.08
T8
X92.21Y-34.79
X93.0Y-50.0
X93.0Y-55.0
X93.0Y-78.5
X93.0Y-83.5
X93.0Y-89.5
X93.0Y-94.5
X93.0Y-101.75
X93.0Y-106.75
X93.0Y-114.0
X93.0Y-119.0
X93.0Y-124.0
X93.032Y-64.0
X93.032Y-69.0
X97.21Y-34.79
X104.21Y-34.79
X109.21Y-34.79
X116.427Y-34.797
X121.427Y-34.797
X128.427Y-34.797
X133.427Y-34.797
X140.5Y-34.935
X145.5Y-34.935
X152.5Y-34.935
X157.5Y-34.935
X164.5Y-34.935
X169.5Y-34.935
X189.25Y-35.032
X194.25Y-35.032
X201.0Y-35.065
X206.0Y-35.065
X213.0Y-35.0
X218.0Y-35.0
X219.0Y-118.0
X219.0Y-123.0
T9
X202.45Y-63.5
X217.45Y-47.95
X217.45Y-79.05
T3
G00X210.812Y-108.55
M15
G01X210.812Y-106.55
M16
G05
G00X214.762Y-102.65
M15
G01X213.062Y-102.65
M16
G05
G00X216.812Y-108.55
M15
G01X216.812Y-106.55
M16
G05
M30
