<?xml version="1.0" encoding="UTF-8" standalone="no"?>
<!-- Created with Inkscape (http://www.inkscape.org/) -->

<svg
   width="130mm"
   height="90mm"
   viewBox="0 0 130 90"
   version="1.1"
   id="svg1"
   inkscape:version="1.4.3 (0d15f75042, 2025-12-25)"
   sodipodi:docname="cosmic_cable_ltd.svg"
   xmlns:inkscape="http://www.inkscape.org/namespaces/inkscape"
   xmlns:sodipodi="http://sodipodi.sourceforge.net/DTD/sodipodi-0.dtd"
   xmlns="http://www.w3.org/2000/svg"
   xmlns:svg="http://www.w3.org/2000/svg">
  <sodipodi:namedview
     id="namedview1"
     pagecolor="#505050"
     bordercolor="#eeeeee"
     borderopacity="1"
     inkscape:showpageshadow="0"
     inkscape:pageopacity="0"
     inkscape:pagecheckerboard="0"
     inkscape:deskcolor="#505050"
     inkscape:document-units="mm"
     inkscape:zoom="2.1896303"
     inkscape:cx="282.69612"
     inkscape:cy="163.72627"
     inkscape:window-width="1916"
     inkscape:window-height="1030"
     inkscape:window-x="0"
     inkscape:window-y="0"
     inkscape:window-maximized="0"
     inkscape:current-layer="layer1" />
  <defs
     id="defs1" />
  <g
     inkscape:label="Layer 1"
     inkscape:groupmode="layer"
     id="layer1">
    <g
       id="g122"
       transform="matrix(0.03618237,0,0,0.03618237,91.99684,8.6933852)">
	<path
   d="m -893.6,775.9 c -3.4,6.4 -7.1,11.2 -11,14.4 -3.9,3.2 -8.2,4.7 -12.7,4.7 -7,0 -12.7,-3.2 -17.2,-9.5 -4.5,-6.3 -6.7,-14.6 -6.7,-24.8 0,-11 2.7,-20.4 8.1,-28.1 5.4,-7.7 11.7,-11.6 19,-11.6 2.8,0 5.2,0.6 7.4,1.9 2.2,1.3 4.1,3.2 5.8,5.8 l 2.5,-1.9 3.5,5.5 -16.7,16.9 -3.6,-5.5 c 0.9,-1.2 1.5,-2.3 1.8,-3.3 0.4,-1.1 0.6,-2.2 0.6,-3.2 0,-2 -0.6,-3.7 -1.7,-5 -1.1,-1.3 -2.5,-2 -4.2,-2 -2.6,0 -4.6,1.4 -5.8,4.3 -1.2,2.8 -1.9,7.3 -1.9,13.3 0,9.3 1.5,16.9 4.5,22.7 3,5.8 6.8,8.8 11.4,8.8 2.1,0 4.2,-0.7 6.3,-2 2.1,-1.3 4.3,-3.4 6.7,-6.2 z"
   id="path108" />

	<path
   d="m -889.2,768.9 c 0,-8.3 2.3,-15.1 6.8,-20.3 4.5,-5.2 10.3,-7.8 17.4,-7.8 6.7,0 12.1,2.5 16.2,7.4 4.1,4.9 6.1,11.5 6.1,19.8 0,7.8 -2.3,14.3 -6.9,19.4 -4.6,5.1 -10.4,7.7 -17.4,7.7 -6.6,0 -11.9,-2.4 -16,-7.2 -4.2,-4.9 -6.2,-11.2 -6.2,-19 z m 21.1,-20.8 c -1.9,0 -3.3,1 -4.3,2.9 -0.9,1.9 -1.4,4.9 -1.4,8.8 0,7.9 1,14.5 2.9,19.9 1.9,5.4 4.2,8.1 6.9,8.1 1.9,0 3.3,-1 4.3,-2.9 1,-1.9 1.4,-4.8 1.4,-8.7 0,-7.8 -1,-14.5 -2.9,-19.9 -2,-5.5 -4.3,-8.2 -6.9,-8.2 z"
   id="path109" />

	<path
   d="m -831.9,775.8 c 2.3,3.5 4.5,6.2 6.7,8 2.2,1.8 4.3,2.7 6.4,2.7 1.3,0 2.3,-0.3 3,-1 0.7,-0.6 1,-1.6 1,-2.8 0,-1 -0.4,-1.9 -1.3,-2.8 -0.9,-0.9 -2.8,-2.3 -5.7,-4.2 -0.5,-0.3 -1.3,-0.8 -2.3,-1.4 -7.1,-4.3 -10.6,-9.3 -10.6,-14.9 0,-5.2 1.5,-9.6 4.6,-13.2 3.1,-3.6 6.8,-5.4 11,-5.4 2.1,0 4.2,0.4 6.3,1.1 2.1,0.7 4.6,1.9 7.5,3.6 l -5.3,11 c -1.5,-2.3 -3.1,-4 -5,-5.3 -1.8,-1.2 -3.6,-1.8 -5.5,-1.8 -1.1,0 -2,0.3 -2.6,0.9 -0.6,0.6 -1,1.4 -1,2.5 0,1 0.4,1.9 1.1,2.7 0.7,0.9 2.1,2 4.2,3.3 0.4,0.3 0.9,0.6 1.7,1.1 8.5,5.5 12.7,11.1 12.7,16.6 0,5.4 -1.7,9.9 -5,13.3 -3.3,3.4 -7.7,5.1 -13,5.1 -2.8,0 -5.4,-0.5 -7.8,-1.5 -2.5,-1 -4.9,-2.6 -7.5,-4.9 z"
   id="path110" />

	<path
   d="m -797.6,793.6 v -6.5 h 3.6 v -35.6 l -3.6,1.1 v -5.5 l 17.9,-6.3 v 7.6 c 3.5,-3 6.3,-5 8.4,-6 2.1,-1.1 4,-1.6 5.9,-1.6 2.6,0 4.9,0.8 6.9,2.3 2,1.5 3.1,3.5 3.5,5.9 3.6,-3.2 6.5,-5.3 8.7,-6.5 2.1,-1.1 4.2,-1.7 6.1,-1.7 3.6,0 6.4,1.1 8.2,3.4 1.8,2.3 2.7,5.7 2.7,10.3 v 32.6 h 3.7 v 6.5 h -21.1 v -6.5 h 3.2 V 761 c 0,-3.6 -0.3,-6 -1,-7.1 -0.7,-1.1 -1.9,-1.6 -3.7,-1.6 -1,0 -2,0.2 -3,0.6 -1,0.4 -2,1 -3.1,1.7 v 32.5 h 3.1 v 6.5 H -772 v -6.5 h 3.1 V 761 c 0,-3.6 -0.3,-6 -1,-7.1 -0.7,-1.1 -1.9,-1.6 -3.6,-1.6 -1.1,0 -2.1,0.2 -3.1,0.6 -1,0.4 -2.1,1 -3.1,1.7 v 32.5 h 3.1 v 6.5 z"
   id="path111" />

	<path
   d="m -699.7,740.8 c -0.1,1.2 -0.2,2.4 -0.3,3.7 -0.1,1.3 -0.1,3.1 -0.1,5.3 v 37.3 h 3.7 v 6.5 h -22.1 v -6.5 h 3.6 v -35.6 l -3.6,1.1 v -5.5 z m -8.9,-2.3 c -1.7,0 -3,-0.5 -4,-1.4 -1,-1 -1.5,-2.3 -1.5,-3.9 0,-2.3 1,-4.5 3.1,-6.4 2.1,-1.9 4.3,-2.9 6.8,-2.9 1.6,0 2.9,0.5 4,1.5 1.1,1 1.6,2.3 1.6,3.8 0,2.3 -1,4.5 -3,6.4 -2.1,1.9 -4.4,2.9 -7,2.9 z"
   id="path112" />

	<path
   d="m -654.8,775.9 c -1.6,6.2 -3.9,10.9 -7.1,14.2 -3.1,3.3 -6.9,5 -11.2,5 -5,0 -9.1,-2.2 -12.3,-6.7 -3.2,-4.5 -4.8,-10.3 -4.8,-17.3 0,-8.4 2.2,-15.5 6.5,-21.4 4.3,-5.9 9.4,-8.8 15.4,-8.8 2.9,0 5.4,0.9 7.7,2.6 2.2,1.7 4.1,4.2 5.6,7.5 l -10.1,13.1 c -1.3,-4.9 -2.6,-8.3 -3.9,-10.3 -1.2,-2 -2.7,-3 -4.4,-3 -1.4,0 -2.4,0.6 -3.1,1.8 -0.7,1.2 -1,3 -1,5.4 0,6.7 1,12.1 2.9,16.2 1.9,4.1 4.5,6.2 7.6,6.2 1.6,0 3.2,-0.7 4.9,-2 1.6,-1.3 3,-3.2 4.3,-5.6 z"
   id="path113" />

	<path
   d="m -581.3,775.9 c -3.4,6.4 -7.1,11.2 -11,14.4 -3.9,3.2 -8.2,4.7 -12.7,4.7 -7,0 -12.7,-3.2 -17.2,-9.5 -4.5,-6.3 -6.7,-14.6 -6.7,-24.8 0,-11 2.7,-20.4 8.1,-28.1 5.4,-7.7 11.7,-11.6 19,-11.6 2.8,0 5.2,0.6 7.4,1.9 2.2,1.3 4.1,3.2 5.8,5.8 l 2.5,-1.9 3.5,5.5 -16.7,16.9 -3.6,-5.5 c 0.9,-1.2 1.5,-2.3 1.8,-3.3 0.4,-1.1 0.6,-2.2 0.6,-3.2 0,-2 -0.6,-3.7 -1.7,-5 -1.1,-1.3 -2.5,-2 -4.2,-2 -2.6,0 -4.6,1.4 -5.8,4.3 -1.2,2.8 -1.9,7.3 -1.9,13.3 0,9.3 1.5,16.9 4.5,22.7 3,5.9 6.8,8.8 11.4,8.8 2.1,0 4.2,-0.7 6.3,-2 2.1,-1.3 4.3,-3.4 6.7,-6.2 z"
   id="path114" />

	<path
   d="m -552,788.8 c -1.8,2.1 -3.7,3.6 -5.7,4.7 -2,1.1 -4.2,1.6 -6.4,1.6 -3.8,0 -6.9,-1.4 -9.3,-4.1 -2.3,-2.8 -3.5,-6.4 -3.5,-10.9 0,-5.9 1.9,-10.6 5.6,-14.3 3.7,-3.7 8.6,-5.5 14.6,-5.5 0.3,0 0.7,0 1.4,0.1 0.7,0 1.8,0.1 3.2,0.3 l 0.1,-3.8 c 0,-2.1 -0.5,-3.6 -1.4,-4.6 -0.9,-1 -2.3,-1.5 -4.1,-1.5 -1.8,0 -3.3,0.5 -4.6,1.6 -1.3,1 -2.7,2.9 -4.1,5.6 l -5.6,-1.4 5,-17.8 5.8,1 -0.9,3.8 c 1.8,-0.9 3.6,-1.5 5.3,-2 1.7,-0.4 3.4,-0.6 5.1,-0.6 5.1,0 8.7,1.4 10.9,4.1 2.2,2.7 3.3,7.4 3.3,13.9 v 28.3 h 3.7 v 6.5 h -16.6 z m 0,-22.7 c -0.4,-0.1 -0.8,-0.2 -1.2,-0.2 -0.4,-0.1 -0.7,-0.1 -1,-0.1 -2.5,0 -4.4,1 -5.8,3 -1.4,2 -2.1,4.8 -2.1,8.3 0,2.7 0.4,4.7 1.2,5.9 0.8,1.2 2,1.8 3.7,1.8 1.7,0 3,-0.6 3.9,-1.8 0.8,-1.2 1.3,-3 1.3,-5.4 z"
   id="path115" />

	<path
   d="m -523.9,732.9 -3.7,1.2 v -5.6 l 22.1,-7.1 v 5.5 l -3.6,1.4 v 17.9 c 2.2,-1.9 4.2,-3.2 6,-4.1 1.8,-0.9 3.7,-1.3 5.5,-1.3 4,0 7.3,1.8 9.8,5.5 2.6,3.7 3.9,8.5 3.9,14.3 0,4.6 -0.9,9.2 -2.6,13.9 -1.7,4.6 -4.1,8.7 -7.1,12.4 -2.2,2.6 -4.7,4.6 -7.6,6 -2.9,1.4 -5.8,2.1 -8.9,2.1 -2.6,0 -5,-0.5 -7.5,-1.6 -2.4,-1.1 -4.5,-2.5 -6.3,-4.4 z m 14.8,19.1 v 24 c 0,3.4 0.4,5.7 1.1,6.8 0.7,1.1 2,1.7 3.9,1.7 2.4,0 4.2,-1.1 5.3,-3.4 1.2,-2.3 1.8,-5.7 1.8,-10.2 0,-6.3 -0.7,-11.2 -2.2,-14.5 -1.5,-3.4 -3.6,-5 -6.4,-5 -0.6,0 -1.2,0.1 -1.8,0.2 -0.6,0 -1.1,0.2 -1.7,0.4 z"
   id="path116" />

	<path
   d="m -459.3,787.1 h 3.6 v 6.5 h -22 v -6.5 h 3.5 v -54.2 l -3.5,1.2 v -5.6 l 22.1,-7.1 v 5.5 l -3.7,1.4 z"
   id="path117" />

	<path
   d="m -411.5,781.9 c -2.8,4.4 -5.7,7.7 -8.9,9.9 -3.2,2.2 -6.6,3.3 -10.3,3.3 -5.3,0 -9.7,-2.4 -13.2,-7.1 -3.4,-4.7 -5.2,-10.8 -5.2,-18.4 0,-8.2 1.9,-15 5.7,-20.5 3.8,-5.5 8.4,-8.3 13.8,-8.3 4.7,0 8.7,2.1 12.2,6.2 3.4,4.2 5.4,9.6 6.1,16.3 -1.7,0.5 -3.3,1.1 -4.9,1.7 -1.6,0.6 -3.2,1.3 -4.8,2.1 l -12.7,6.2 c 1.1,3.4 2.4,5.8 3.8,7.3 1.4,1.5 3.3,2.2 5.4,2.2 1.7,0 3.4,-0.4 5.1,-1.4 1.7,-0.9 3.5,-2.3 5.5,-4.2 z m -24,-15.9 10.9,-5.2 c -0.7,-4.2 -1.6,-7.3 -2.8,-9.3 -1.2,-2.1 -2.6,-3.1 -4.2,-3.1 -1.5,0 -2.7,0.9 -3.5,2.8 -0.8,1.8 -1.2,4.5 -1.2,8 0,1.3 0.1,2.4 0.2,3.5 0.1,1 0.3,2.2 0.6,3.3 z"
   id="path118" />

	<path
   d="m -381.8,793.6 v -8 h 3.6 v -55.2 h -3.6 v -8.1 h 23.9 v 8.1 h -3.6 v 55.2 c 2.9,0 5.4,-0.4 7.7,-1.2 2.3,-0.8 4.4,-2 6.3,-3.6 l 0.8,-6.8 h 6.5 l -1.9,22 h -6.5 l 0.1,-2.4 z"
   id="path119" />

	<path
   d="m -316.5,779 c 0,2 0.2,3.3 0.6,4.1 0.4,0.8 1.2,1.1 2.3,1.1 0.5,0 1.1,-0.1 1.8,-0.3 0.6,-0.2 1.4,-0.6 2.2,-1 l 2,3.7 c -2.5,2.9 -4.8,5 -7.1,6.4 -2.3,1.4 -4.6,2.1 -6.9,2.1 -3.4,0 -5.9,-1 -7.4,-2.9 -1.5,-1.9 -2.2,-5.1 -2.2,-9.7 V 750 h -3.7 v -5.8 c 3.6,-0.8 6.5,-2.4 8.9,-4.9 2.3,-2.5 4.1,-5.9 5.3,-10.2 l 4.3,1.3 v 11.8 h 8 l -1.7,7.8 h -6.3 v 29 z"
   id="path120" />

	<path
   d="m -276.8,732.9 -4.1,1.5 v -5.6 l 22.6,-7.4 v 5.5 l -3.7,1.4 v 58.8 h 3.6 v 6.5 h -17.3 l -0.8,-4.1 c -2.3,2 -4.4,3.4 -6.3,4.3 -1.8,0.9 -3.7,1.3 -5.5,1.3 -4.4,0 -8,-2.3 -11.1,-7 -3,-4.7 -4.5,-10.6 -4.5,-17.7 0,-8.3 2,-15.3 5.9,-21 3.9,-5.6 8.6,-8.5 14,-8.5 1.2,0 2.4,0.2 3.6,0.5 1.2,0.3 2.4,0.8 3.6,1.4 z m 0,50.9 V 757 c 0,-3.1 -0.4,-5.4 -1.1,-6.7 -0.7,-1.4 -2,-2 -3.7,-2 -2.4,0 -4.2,1.4 -5.5,4.3 -1.2,2.9 -1.9,7.1 -1.9,12.7 0,6.2 0.7,11 2.2,14.3 1.5,3.3 3.6,5 6.4,5 0.5,0 1.1,-0.1 1.6,-0.2 0.7,-0.1 1.3,-0.3 2,-0.6 z"
   id="path121" />

	<path
   d="m -244.2,794.3 c -1.9,0 -3.4,-0.8 -4.5,-2.3 -1.2,-1.5 -1.7,-3.6 -1.7,-6.1 0,-2.5 0.6,-4.5 1.7,-6 1.2,-1.5 2.7,-2.3 4.5,-2.3 1.9,0 3.4,0.8 4.5,2.3 1.2,1.5 1.7,3.5 1.7,6 0,2.5 -0.6,4.5 -1.7,6 -1.2,1.6 -2.7,2.4 -4.5,2.4 z"
   id="path122" />

</g>
  </g>
</svg>
