<?xml version="1.0" encoding="UTF-8" standalone="no"?>
<!-- Created with Inkscape (http://www.inkscape.org/) -->

<svg
   width="130mm"
   height="90mm"
   viewBox="0 0 130 90"
   version="1.1"
   id="svg1"
   inkscape:version="1.4.3 (0d15f75042, 2025-12-25)"
   sodipodi:docname="rotary_phone.svg"
   xmlns:inkscape="http://www.inkscape.org/namespaces/inkscape"
   xmlns:sodipodi="http://sodipodi.sourceforge.net/DTD/sodipodi-0.dtd"
   xmlns="http://www.w3.org/2000/svg"
   xmlns:svg="http://www.w3.org/2000/svg">
  <sodipodi:namedview
     id="namedview1"
     pagecolor="#505050"
     bordercolor="#eeeeee"
     borderopacity="1"
     inkscape:showpageshadow="0"
     inkscape:pageopacity="0"
     inkscape:pagecheckerboard="0"
     inkscape:deskcolor="#505050"
     inkscape:document-units="mm"
     inkscape:zoom="1.5483025"
     inkscape:cx="273.8483"
     inkscape:cy="162.43596"
     inkscape:window-width="1916"
     inkscape:window-height="1030"
     inkscape:window-x="0"
     inkscape:window-y="0"
     inkscape:window-maximized="0"
     inkscape:current-layer="layer1" />
  <defs
     id="defs1" />
  <g
     inkscape:label="Layer 1"
     inkscape:groupmode="layer"
     id="layer1">
    <g
       id="g92"
       transform="matrix(0.02983505,0,0,0.02983505,99.621378,23.498413)">
	<path
   class="st38"
   d="m -680.4,362.2 c 5.2,33.4 24.1,55.9 53.1,70.2 23,11.4 47.5,14.4 72.9,9.8 25.8,-4.7 47.6,-16.1 64.5,-36.2 9.7,-11.5 15.9,-24.8 18.3,-39.8 0.2,-1 0.4,-1.9 0.6,-2.9 0,-0.2 0.3,-0.3 1.1,-1.1 6.4,3.7 13.2,7.3 19.7,11.4 18.9,12.2 33.7,28.2 43.4,48.5 9.4,19.7 13.1,40.5 11.8,62.3 -0.2,3.5 -1.9,4.1 -5.1,4.1 -98,-0.1 -196.1,-0.1 -294.1,-0.1 -19.2,0 -38.4,-0.1 -57.6,0.1 -3.2,0 -4.1,-0.9 -4.3,-4.1 -1.9,-29.4 5.1,-56.3 22.4,-80.3 11.9,-16.4 27.4,-28.7 45.3,-38 2.6,-1.4 5.2,-2.5 8,-3.9 z"
   id="path66"
   style="clip-rule:evenodd;fill-rule:evenodd" />

	<path
   class="st38"
   d="m -856.6,421 c 7.4,-6.1 11.6,-13.8 13.9,-22.5 4.4,-17.1 3.4,-34.2 -1.9,-50.9 -5.2,-16.3 -11.2,-32.4 -17.4,-48.3 -7.4,-19.1 -15.7,-37.8 -20.3,-57.9 -8.2,-36.3 -0.8,-69 23.1,-97.8 10.7,-12.9 23,-24.2 36.2,-34.5 1.9,-1.5 3,-3.9 4.4,-6 0.8,-1.1 1.4,-2.4 2.6,-4.3 3.1,4.7 5.6,8.6 8.4,12.7 -1,0.5 -1.7,1.2 -2.3,1.1 -5.9,-1 -9.2,3.3 -12.9,6.4 -15.8,12.9 -30.3,27 -40.9,44.7 -12.1,20.4 -16.6,42.3 -12.9,65.9 3.1,19.8 10.3,38.2 17.7,56.7 6.9,17.5 14,35 20,52.9 6.1,18 8.5,36.6 5.1,55.6 -2.2,12 -7.1,22.8 -16.4,31.2 -1.7,1.6 -1.8,2.7 -0.6,4.3 7.6,10.7 14.5,22 22.9,32.1 13.9,16.8 30.4,30.5 50.6,39.3 2.2,1 3.9,0.8 6.1,-0.7 6.6,-4.6 13.7,-7.6 22.2,-7.6 117,0.2 234,0.1 351,0.1 9.8,0 23.7,9.1 26.4,17.4 0.3,0.9 0.4,1.9 0.8,3.8 -4.7,-1.2 -8.8,-2.2 -12.9,-3.4 -0.6,-0.2 -1.2,-1.8 -1.2,-2.7 0,-2.8 0.2,-5.6 0.4,-9.2 -5.5,3.5 -1.8,9.2 -4.6,13.3 -3.3,-3.9 -6.5,-7.8 -9.7,-11.6 -2.7,0.9 -2.6,2.2 -1.2,4 3.1,3.7 6.1,7.5 9.1,11.3 0.7,0.9 1.4,1.9 2.4,3.4 -5.5,0 -10.3,0 -15.2,0 -0.1,-0.3 -0.2,-0.5 -0.3,-0.8 2.4,-1.1 4.8,-2.2 7.7,-3.6 -4.3,-2.5 -7.6,-2 -10.5,1.7 -1.8,2.4 -3.8,2.9 -6.6,2.9 -119.8,-0.1 -239.7,0 -359.5,0 -7.1,0 -8.4,-1.8 -6.5,-8.9 0.1,-0.5 0.2,-1 0.4,-1.9 -36.3,-15.1 -59,-44.5 -79.4,-76.7 -2.7,1 -5.3,2 -7.9,3 -13.2,4.9 -26.8,6.5 -40.8,4.3 -6.5,-1 -12.4,-3.5 -17.1,-8 -9.3,-8.9 -7.8,-22.5 3.2,-29.8 9,-5.9 18.9,-6.8 29.2,-5.2 14.5,2.2 25.1,10.7 33.7,22.1 0.1,0.5 0.7,1.1 1.5,2.1 z m -5.8,4.5 c -4.2,-4.5 -7.4,-8.6 -11.3,-11.9 -11.7,-10 -25.1,-12.6 -39.6,-7.4 -9.3,3.3 -12.5,12.6 -6.7,18.8 2.2,2.3 5.2,4.5 8.2,5.4 16.7,5.4 32.6,2 49.4,-4.9 z"
   id="path67"
   style="clip-rule:evenodd;fill-rule:evenodd" />

	<path
   class="st38"
   d="m -470.3,107.2 c 0,-4 0,-7.7 0,-11.4 0,-0.4 -0.1,-0.9 -0.3,-1 -4.5,-2.7 -3.1,-7.1 -3.2,-11 -0.1,-5.8 -0.3,-11.6 0.1,-17.4 0.1,-2.1 1.6,-4.1 2.5,-6.1 0.3,-0.7 0.6,-1.3 1,-1.9 0.5,-0.8 1.1,-1.6 1.6,-2.4 0.5,0.7 1.1,1.4 1.5,2.1 0.2,0.4 0.1,1.2 0.5,1.3 4.2,2.5 3,6.6 3.1,10.3 0.1,6.3 0.2,12.6 -0.1,18.9 -0.1,1.9 -1.4,3.6 -2.2,5.5 -0.4,1 -1.1,1.9 -1.2,2.9 -0.2,2.1 0.1,4.2 -0.1,6.3 -0.3,3 0.7,4.3 3.9,4.1 1.2,-0.1 2.4,1.2 3.6,1.8 -0.8,1.1 -1.5,2.2 -2.3,3.2 -0.4,0.5 -1.5,1.1 -1.4,1.5 0.7,3.6 -1.4,5.2 -3.9,7.3 -1.6,1.4 -1.5,4.6 -2.2,7.4 1.9,0.1 2.9,0.2 4.2,0.3 0.3,-1.9 0.5,-3.5 0.8,-5.4 1.9,3.4 3.6,6.5 5.4,9.8 -2.8,1.1 -4.8,2.3 -2.2,5.1 0.3,0.3 -0.2,1.9 -0.7,2.2 -4.3,2.4 -2.3,5.8 -1.2,8.7 1.3,3.3 2.6,5.9 -1.7,7.8 -0.7,0.3 -0.8,2.2 -0.9,3.3 -0.8,8.8 -1,17.8 -2.6,26.5 -2.1,11.8 -10.2,20.7 -23.8,21.1 -10.7,0.3 -19.6,-2.4 -25,-12.3 -4,-7.2 -4.8,-15.2 -5.4,-23.3 -0.2,-2.2 -0.2,-4.4 -0.3,-6.7 -0.2,-4.8 -2.5,-7.4 -7.3,-7.1 -5.1,0.3 -10.3,1.1 -15.2,2.3 -3.3,0.8 -5.4,3.2 -5,7.2 0.2,2.7 0,5.5 -0.3,8.1 -0.6,4.3 -4.4,6.9 -8.7,6.6 -2.4,-0.2 -4.9,0.5 -7.3,0.7 0.5,2.7 0.5,5.6 1.7,7.9 2.2,4.2 5.4,8 7.5,12.2 3.3,6.6 -0.2,11.8 -4.1,16.5 0.6,2.3 1.6,4.3 1.7,6.4 0.1,1 -1.4,3 -2.2,3 -9.4,0.2 -18.8,0.1 -29,0.1 0.4,-3.2 0.7,-6 1,-8.8 0.3,0 0.6,0 0.9,-0.1 -1.2,-1.7 -2.4,-3.4 -3.5,-5.1 -3.3,-5.1 -2.5,-10 0.6,-14.9 2.4,-3.7 5,-7.3 7,-11.3 0.9,-1.8 1.3,-4.6 0.4,-6.2 -0.6,-1.1 -3.8,-1.2 -5.7,-0.9 -6,0.8 -9.4,-1.4 -10.3,-7.6 -0.4,-2.4 -0.4,-5 -0.2,-7.4 0.3,-3.3 -1.5,-5.2 -4,-6.4 -5.7,-2.9 -12,-3.2 -18.1,-2.4 -2.9,0.4 -5.1,2.7 -5.4,6.5 -0.6,7.5 -1.1,15.1 -2.6,22.4 -2.3,11.2 -10.4,19.8 -23.4,20.2 -10.2,0.3 -19.3,-1.7 -24.4,-11.3 -2.7,-5.1 -4.4,-11 -5.4,-16.7 -1.1,-6.4 -0.8,-13.1 -1.3,-19.6 -0.1,-1.4 -1.4,-2.8 -2.1,-4.2 -0.6,-1.3 -1.3,-2.7 -1.3,-4 0,-1.4 0.8,-2.8 1.4,-4.2 1.1,-2.8 1.7,-5.1 -1.4,-7.4 -2.8,-2.1 -3.7,-8.1 -1.4,-10.4 2.9,-2.9 2.8,-6.2 2.5,-9.6 -0.3,-3.2 1.9,-7.2 -3.1,-9.1 -1.5,-0.6 -0.3,-3.8 1.7,-4 1.4,-0.2 2.9,-0.2 4.9,-0.3 0,-3.9 0,-7.6 0,-11.2 0,-0.4 0,-0.9 -0.3,-1.1 -4.6,-3 -3,-7.7 -3.2,-11.8 -0.2,-5.6 -0.3,-11.2 0.1,-16.7 0.1,-2.1 1.6,-4.1 2.4,-6.1 0.4,-1 0.6,-2.1 1.1,-3 0.3,-0.6 1,-1.2 1.6,-1.2 0.5,0 1.1,0.7 1.5,1.3 6.9,10.6 2.3,22.4 3.4,33.6 0.1,0.6 -0.2,1.4 -0.6,1.7 -4.7,3.3 -2.3,8.1 -2.8,12.3 -0.3,2.3 1.5,2.2 3.2,2.5 1.5,0.2 2.9,1.2 4.3,1.9 -0.9,1.1 -1.8,2.2 -2.8,3.3 -0.2,0.3 -0.8,0.5 -0.8,0.7 0.2,4.8 -1,10.3 1,14.2 3.3,6.4 3.9,9 -1.2,14.3 -0.7,0.7 -1,2.2 -0.9,3.2 0.4,2 0.9,4.1 1.8,6 1.1,2.2 1.1,3.9 -1.1,5.4 -0.8,0.5 -1.5,1.7 -1.5,2.6 0,9.9 0,19.8 3.2,29.3 3.2,9.6 9.7,13.7 20,13.3 14.1,-0.5 18.1,-9.2 20.2,-21.6 0.8,-4.9 0.8,-9.9 1.1,-14.8 0.2,-3.9 -4.6,-8.7 -8.4,-8.7 -2,0 -4,0 -5.9,0 -3.8,0 -6.2,2 -6.7,5.7 -0.4,2.4 -0.9,4.9 -0.7,7.4 0.1,1.6 1.4,3 2.1,4.5 0.4,0.9 1.2,2 1,2.8 -0.2,0.8 -1.4,1.7 -2.2,1.8 -1.9,0.3 -4,0.3 -5.9,0 -0.9,-0.1 -2.1,-1 -2.4,-1.8 -0.2,-0.7 0.5,-2.3 1.2,-2.6 2.4,-1.2 2.6,-3.1 2.3,-5.3 -0.5,-3.9 0.1,-8.1 -3.5,-11.3 -2.1,-1.9 -1.2,-6.4 1.1,-8.3 2.7,-2.4 6.2,-2.7 8.6,0 4.1,4.6 9.2,1.8 13.9,2.3 0.7,0.1 1.6,-1.7 2.4,-2.6 2.8,-3.7 7.4,-5 10.7,-2.1 3.9,3.5 8.2,3.1 12.4,2.6 5.9,-0.7 11.7,-1.9 15.1,-7.9 0.8,-1.5 3.5,-2.7 5.3,-2.7 12.5,-0.2 25,-0.3 37.5,0.1 2.2,0.1 4.8,2.2 6.3,4.1 3.6,4.5 8.5,5.8 13.7,6.4 4.5,0.5 9.1,1 13.2,-2.6 3.3,-2.9 8.3,-1.6 10.6,2.2 1.4,2.3 3,3 5.4,2.8 1.8,-0.1 3.8,0.2 5.6,-0.1 1.5,-0.3 3.3,-0.9 4.4,-1.9 3.3,-3 6.6,-3.3 9.5,-0.5 3,2.9 3,6 0,9.4 -3.7,4.2 -1.9,9.2 -2.1,13.8 0,0.4 1.3,0.7 1.6,1.3 0.6,0.9 1.5,2.2 1.3,3 -0.3,0.8 -1.7,1.6 -2.7,1.8 -1.6,0.3 -3.2,0.3 -4.8,0 -1,-0.2 -2.5,-0.9 -2.8,-1.7 -0.3,-0.8 0.6,-2 1.1,-3.1 0.6,-1.2 1.8,-2.4 1.7,-3.5 -0.3,-4 1.5,-8.6 -2.4,-11.8 -1.3,-1 -3,-1.7 -4.7,-2.1 -1.3,-0.3 -2.7,-0.1 -4.1,-0.1 -6.9,0 -10.9,4 -10.3,10.8 0.7,7.1 1.4,14.3 3.2,21.2 2.8,10.5 10.1,13.4 19.7,13.1 10.7,-0.3 16.7,-4.8 18.7,-15.3 1.7,-8.8 1.9,-17.9 2.7,-26.8 0.1,-0.9 -0.2,-2.4 -0.8,-2.7 -3.8,-1.9 -2.3,-4.5 -1.3,-7.2 0.5,-1.1 1.3,-2.3 1.2,-3.5 -0.1,-1.5 -0.3,-3.4 -1.3,-4.4 -3.6,-3.9 -3.8,-8.5 -1.4,-13.2 1.5,-2.8 1.5,-6.5 1.6,-9.9 0.1,-2.5 1.3,-5.7 -2.7,-7.1 -1.6,-0.6 -0.5,-3.9 1.4,-4.2 1.1,0.2 2.6,0.3 4.8,0.2 z"
   id="path68"
   style="clip-rule:evenodd;fill-rule:evenodd" />

	<path
   class="st38"
   d="m -660.5,354.1 c -0.1,-15 4.9,-28.2 14,-40.1 0.4,-0.6 0.9,-1.3 1.5,-1.5 4.3,-1.7 7.4,-4.4 8.7,-8.9 0.2,-0.6 0.8,-1.5 1.1,-1.4 4.8,1 5.1,-4 7.9,-5.8 21.4,-13.3 44.5,-18.1 69.3,-13.5 19.6,3.6 36.5,12.1 49.9,27.2 24.5,27.4 23.2,66.3 -3.4,91.7 -19.8,19 -43.7,26.4 -70.7,24.8 -21,-1.2 -39.7,-8.5 -55.3,-22.7 -14.6,-13.2 -22.9,-29.7 -23,-49.8 z m 83.7,38.2 c 12.7,-0.3 22.9,-3.6 31.9,-10.6 15.6,-12.3 18.3,-33.9 5.9,-48.9 -16.8,-20.5 -50.6,-22.4 -69.7,-3.9 -11.8,11.5 -14.8,27.5 -7.1,41.2 8.8,15.5 23.3,21.4 39,22.2 z m -68,-65.4 c 0.6,1.7 1,3.5 2,5 4.1,6.4 13.7,8 19.9,3.4 6.6,-4.9 6.8,-12.4 0.4,-17.4 -4.9,-3.8 -12.8,-3.7 -17.6,0.3 -2.7,2.2 -4.6,4.9 -4.7,8.7 z m 111.7,-0.2 c 0,6.3 5.8,11.3 13.1,11.3 7.1,0 13.6,-5.6 13.5,-11.6 -0.2,-5.9 -6.7,-11.4 -13.4,-11.4 -7.2,0 -13.2,5.3 -13.2,11.7 z m -42.2,-39.6 c -0.1,0.2 -0.2,0.5 -0.3,0.7 -1.1,0.1 -2.2,0.1 -3.3,0.2 -4.2,0.6 -9,4.9 -9.7,8.7 -0.9,5 1.1,9.1 5.7,11.7 5.3,3.1 10.6,2.8 15.7,-0.5 6.4,-4.1 6.8,-13.1 0.6,-17.3 -2.6,-1.7 -5.8,-2.3 -8.7,-3.5 z m -64.5,55.6 c -7.1,0 -13.3,5.2 -13.4,11.2 -0.1,6.1 6.3,11.6 13.4,11.6 7.2,0 13.4,-5.4 13.3,-11.7 -0.1,-6 -6.1,-11.1 -13.3,-11.1 z m 96.4,-47.8 c -7.1,0 -13.4,5.5 -13.4,11.7 0.1,6.1 6.1,11.3 13.2,11.3 7.4,0 13.1,-4.8 13.1,-11.2 0.2,-6.5 -5.6,-11.8 -12.9,-11.8 z m -45.3,114.3 c 0,5.8 4.3,10.1 11.1,11.3 6.8,1.2 13.6,-3.1 15.2,-9.4 1.2,-4.9 -2.6,-10.5 -8.6,-12.5 -8.2,-3 -17.7,2.8 -17.7,10.6 z m -19.1,-114.3 c -7,0 -13.2,5.4 -13.2,11.4 -0.1,6.3 6.1,11.6 13.4,11.5 7.4,0 13.5,-5.4 13.3,-11.7 -0.3,-6 -6.5,-11.3 -13.5,-11.2 z m -23,74.8 c -0.1,0.2 -0.2,0.5 -0.3,0.7 -1,0.1 -2,0 -3,0.2 -4.6,0.6 -9.5,5 -10.2,9 -0.8,4.8 1.2,9 6,11.6 4.9,2.7 9.9,2.6 14.7,-0.3 6.9,-4.1 7.7,-12.8 1.3,-17.4 -2.4,-1.9 -5.6,-2.6 -8.5,-3.8 z m 110.8,23.2 c 5,0.1 9,-1.8 11.8,-6.1 2.3,-3.7 2,-7.2 -0.2,-10.8 -3.2,-5.2 -12,-7.5 -17.8,-4.4 -3.5,1.8 -6.4,4.3 -6.8,8.6 -0.7,7.3 5,12.7 13,12.7 z m -88.1,21 c 6,-0.8 11.1,-3.7 12.7,-7.9 1.8,-4.5 0.7,-8.9 -2.8,-12.1 -4.5,-4 -11.6,-4.6 -17.2,-1.3 -6.7,4 -7.7,12.5 -1.5,17.3 2.5,1.9 5.8,2.7 8.8,4 z m 64.7,-0.8 c 0.7,0 1.5,-0.1 2.2,-0.1 4.8,-0.4 9.8,-4.4 10.6,-8.5 1.1,-5.5 -0.8,-10 -6.3,-12.3 -3,-1.3 -6.8,-1.8 -10,-1.3 -8.1,1.2 -12.3,9.9 -8.2,16.4 2.7,4.1 6.7,6 11.7,5.8 z m 32.1,-70.4 c -7.3,0 -13,4.9 -13.1,11.2 -0.1,6.4 5.8,11.7 13.1,11.7 7.2,0 13.4,-5.4 13.3,-11.7 -0.2,-6 -6.2,-11.2 -13.3,-11.2 z"
   id="path69"
   style="clip-rule:evenodd;fill-rule:evenodd" />

	<path
   class="st38"
   d="m -662.3,77 c 0,-4.5 -0.1,-8.9 0.1,-13.4 0,-1 1.3,-2.7 2,-2.7 3.2,-0.1 6.5,-0.3 9.5,0.6 7.2,2.3 14.5,2.4 21.6,0.6 28.5,-7 57.2,-7.9 86.2,-3.9 7.2,1 14.3,2.9 21.5,4.1 6.9,1.2 13.8,1.7 20.5,-0.8 0.7,-0.3 1.4,-0.5 2.1,-0.7 8.6,-1.7 10.2,-0.4 10.2,8.2 0,6.9 -0.1,13.9 0,20.8 0.1,2.5 -1,3.8 -3.3,3.9 -2.6,0 -5.3,0.2 -7.6,-0.6 -8,-2.8 -16.1,-2.6 -24.1,-0.7 -26.5,6.4 -53.3,7.9 -80.3,4.2 -10,-1.4 -19.9,-3.9 -29.9,-5 -5.4,-0.6 -11,0.7 -16.4,1.1 -3,0.3 -6.1,0.8 -9.1,0.9 -1.9,0 -3,-1.1 -2.9,-3.4 0.1,-4.3 -0.1,-8.8 -0.1,-13.2 z"
   id="path70"
   style="clip-rule:evenodd;fill-rule:evenodd" />

	<path
   class="st38"
   d="m -803.4,118.2 c 11.9,9.1 24.7,7.2 37.4,3.8 10.1,-2.7 19.5,-7.1 26.7,-15 2.8,-3.1 4.6,-7.1 7.2,-11.2 2,2.4 4.7,5.1 7,8.2 8.3,10.8 15.3,22.6 20.8,35.1 1.1,2.4 0.1,3.7 -1.2,5.2 -6.5,7.1 -14.4,12.3 -22.9,16.6 -12.4,6.3 -25.6,10.5 -39.2,12.9 -9.4,1.6 -19,1.8 -28.5,0.3 -2.3,-0.4 -4.5,-0.8 -5.1,-3.9 -3.4,-16.7 -4.8,-33.5 -2.7,-50.5 0.1,-0.3 0.2,-0.6 0.5,-1.5 z"
   id="path71"
   style="clip-rule:evenodd;fill-rule:evenodd" />

	<path
   class="st38"
   d="m -418.3,95.4 c 2.5,10.5 9.9,16.3 18.4,20.8 11.5,6.1 23.9,9.8 37.1,8.1 5.1,-0.7 9.9,-3 15.2,-4.8 0.1,0.7 0.5,2.3 0.6,3.9 1.2,15.9 0.3,31.6 -3.3,47.2 -0.3,1.2 -1.9,2.8 -3,3 -5,0.8 -10,1.7 -15.1,1.6 -18.5,-0.3 -35.8,-5.3 -52.4,-13.1 -9.7,-4.6 -18.8,-10.3 -25.7,-18.7 -0.7,-0.8 -1.3,-2.5 -0.9,-3.3 7.1,-15.8 16,-30.5 27.6,-43.4 0.3,-0.4 0.7,-0.6 1.5,-1.3 z"
   id="path72"
   style="clip-rule:evenodd;fill-rule:evenodd" />

	<path
   class="st38"
   d="m -664.3,329.3 c -1.6,-1.1 -2.7,-1.9 -4.6,-3.2 4.2,-7 8.7,-14.3 13.6,-22.2 2.6,3 4.4,5.1 6.7,7.9 -1,0.7 -1.9,1.3 -2.8,2 -1,-1.2 -1.7,-2.4 -2.8,-3.3 -0.6,-0.5 -1.6,-0.4 -2.4,-0.6 -0.2,0.9 -0.7,2.1 -0.4,2.5 2.4,2.6 2.3,4.7 -0.6,6.7 -0.3,0.2 -0.6,0.8 -0.5,0.9 2.8,4.3 -0.9,7.5 -2.2,10.9 -12,31.7 2.4,64.2 28.3,81.9 22.3,15.3 46.9,20.4 73.6,15.9 22.2,-3.8 41.1,-13.6 55.5,-31.1 13.3,-16.2 18.8,-34.7 14.9,-55.6 -3.8,-20.4 -15.3,-35.8 -32,-47.2 -20.6,-14.1 -43.5,-19 -68.3,-16 -12.2,1.5 -23.6,5 -34.3,10.8 -3.3,1.8 -6.5,0.8 -9.2,-0.8 -2.6,-1.6 -0.6,-3.6 1.2,-4.5 5.2,-2.6 10.3,-5.3 15.7,-7.4 15.8,-6.2 32.4,-8.3 49.2,-6.6 33.7,3.4 61.4,17.7 79,47.8 15.6,26.8 11.5,61.7 -9.4,85.6 -14.9,17 -33.5,27.7 -55.5,31.9 -38.2,7.3 -72.4,-0.5 -100.3,-28.9 -17.2,-17.5 -23.8,-39 -21,-63.4 0.4,-3.2 1.3,-6.3 2.2,-9.4 0.3,-0.9 1.3,-1.7 2.1,-2.2 1,-0.8 2.3,-1.3 4.3,-2.4 z"
   id="path73"
   style="clip-rule:evenodd;fill-rule:evenodd" />

	<path
   class="st38"
   d="m -346.1,107.4 c -32.7,-17.9 -68.2,-22 -104,-25.6 0,-2.3 -0.1,-4.2 0,-6.2 0.1,-2.6 0.4,-5.1 0.7,-8.6 7,0.7 13.7,1.1 20.4,2.1 14.3,2.2 28.6,4.3 42.7,7.4 15.9,3.5 31.4,8.7 45.6,17.1 2,1.2 2.4,2.1 1.1,4 -2.3,3.2 -4.4,6.5 -6.5,9.8 z"
   id="path74"
   style="clip-rule:evenodd;fill-rule:evenodd" />

	<path
   class="st38"
   d="m -701.7,66.5 c 0.3,5.3 0.6,9.4 0.5,13.4 0,0.7 -1.6,2 -2.6,2.1 -8.7,1.1 -17.5,1.7 -26.1,3.2 -13.6,2.4 -27.3,4.7 -40.6,8.3 -10.5,2.9 -20.4,7.8 -30.6,11.8 -1.2,0.5 -2.3,1.3 -4,2.3 -2.3,-3.7 -4.7,-7.4 -6.9,-11.2 -0.3,-0.5 0.5,-2.3 1.2,-2.6 9.9,-4.4 19.5,-9.5 29.8,-12.8 11.3,-3.7 23.1,-6.4 34.8,-8.5 14.7,-2.5 29.3,-3.9 44.5,-6 z"
   id="path75"
   style="clip-rule:evenodd;fill-rule:evenodd" />

	<path
   class="st38"
   d="m -448.3,160.1 c 26.8,16.6 55.5,25.7 86.7,28.2 -7.7,7.4 -15.8,12.6 -27.3,11 -16.6,-2.4 -32.2,-7.2 -46.6,-15.8 -5.5,-3.3 -8.4,-8.5 -10.5,-14.2 -0.8,-3 -1.4,-6 -2.3,-9.2 z"
   id="path76"
   style="clip-rule:evenodd;fill-rule:evenodd" />

	<path
   class="st38"
   d="m -789.5,188.3 c 31.1,-2.6 59.7,-11.5 86.2,-27.9 -1.5,10.7 -5.3,19.8 -15.4,25 -13.8,7.1 -28.3,11.9 -43.8,13.9 -9.4,1.2 -16.9,-2 -23.7,-7.9 -1.1,-0.9 -2.1,-2 -3.3,-3.1 z"
   id="path77"
   style="clip-rule:evenodd;fill-rule:evenodd" />

	<path
   class="st38"
   d="m -742.8,91.6 c 6.8,0 7.1,0.3 5,6.7 -2.6,7.8 -8.8,12.2 -15.7,15.8 -7.8,4.1 -16.2,6.7 -25,7.5 -7.1,0.7 -14.1,0.3 -20.1,-4.4 -4.3,-3.4 -4.5,-4.9 0.3,-7.3 8.1,-4 16.4,-7.9 24.9,-10.9 7.5,-2.7 15.4,-4.3 23.2,-6.3 2.5,-0.6 5,-0.7 7.4,-1.1 z"
   id="path78"
   style="clip-rule:evenodd;fill-rule:evenodd" />

	<path
   class="st38"
   d="m -414.5,91.7 c 4.4,0.2 8.3,-0.1 11.9,0.7 15.8,3.2 31.1,7.7 45.5,15.1 2,1 3.8,2.3 5.6,3.5 2.7,1.6 2.3,3.4 0.2,5.2 -5.9,5.2 -13.1,6.3 -20.5,5.5 -13.1,-1.4 -25.4,-5.2 -35.5,-14.1 -4.3,-4 -7.2,-8.9 -7.2,-15.9 z"
   id="path79"
   style="clip-rule:evenodd;fill-rule:evenodd" />

	<path
   class="st38"
   d="m -557.2,263.3 c -12.2,0 -24.6,0 -36.8,0 0.7,-1.1 2.1,-2.8 3,-4.7 2.1,-4.4 2.1,-8.7 -0.4,-13 -0.9,-1.6 -1.5,-3.7 -1.4,-5.6 0.1,-4.8 1.7,-6.3 6.5,-6.3 7.7,-0.1 15.3,0.1 23,-0.2 3.3,-0.1 4.8,1.3 4.8,4.1 0,2.8 0.1,5.9 -1.2,8.2 -3.4,6 -1.9,11.1 1.8,16.1 0.4,0.6 0.7,1.3 0.7,1.4 z"
   id="path80"
   style="clip-rule:evenodd;fill-rule:evenodd" />

	<path
   class="st38"
   d="m -798.6,176.9 c 30.4,5.5 71,-7.5 95.8,-30.4 1.4,6.4 0.8,8.9 -4.7,11.8 -9.3,4.9 -18.7,10.1 -28.6,13.6 -12.4,4.4 -25.3,7.3 -38.1,10.6 -4.2,1.1 -8.6,0.9 -12.9,1.6 -5.7,0.8 -9,-2.1 -11.5,-7.2 z"
   id="path81"
   style="clip-rule:evenodd;fill-rule:evenodd" />

	<path
   class="st38"
   d="m -352.5,176.7 c -2.6,6.2 -7,7.9 -13.4,7.2 -26.2,-2.7 -50.6,-10.8 -73.7,-23.1 -1,-0.5 -1.8,-1.4 -2.8,-1.8 -5.7,-2.4 -7.2,-6.8 -6.1,-13 12.1,13.7 28.1,20.4 44.7,25.6 16.5,5.3 33.4,9.9 51.3,5.1 z"
   id="path82"
   style="clip-rule:evenodd;fill-rule:evenodd" />

	<path
   class="st38"
   d="m -477.5,77.4 c 0,5.8 0.1,11.6 -0.1,17.5 0,1.5 -0.4,3.2 -1.1,4.6 -1.3,2.4 -4.7,2.5 -6,0.1 -0.8,-1.4 -1.1,-3.3 -1.1,-4.9 -0.1,-11.6 -0.1,-23.3 -0.1,-34.9 0,-0.2 0,-0.5 0,-0.7 0.1,-3.7 1.8,-6.2 4.2,-5.9 3.3,0.4 4,2.9 4,5.7 0.3,6.1 0.2,12.3 0.2,18.5 z"
   id="path83"
   style="clip-rule:evenodd;fill-rule:evenodd" />

	<path
   class="st38"
   d="m -673.4,77.4 c 0,-6.4 0,-12.9 0,-19.3 0,-2.7 0.8,-4.9 3.7,-5 3.2,-0.2 4.1,2.4 4.1,5 0.1,12.6 0.1,25.2 0,37.8 0,2.6 -0.5,5.2 -3.9,5.1 -3.3,0 -3.9,-2.4 -3.9,-5.2 0,-6 0,-12.2 0,-18.4 z"
   id="path84"
   style="clip-rule:evenodd;fill-rule:evenodd" />

	<path
   class="st38"
   d="m -697.7,100.8 c 0,-16 0,-31.2 0,-47.5 3.4,4.2 6.9,7 6.5,12.5 -0.5,7 -0.6,14.1 0,21.1 0.5,5.9 -2.3,9.7 -6.5,13.9 z"
   id="path85"
   style="clip-rule:evenodd;fill-rule:evenodd" />

	<path
   class="st38"
   d="m -453.7,100.3 c -5.7,-4.1 -6.2,-9.6 -5.9,-15.6 0.3,-5.4 0.4,-10.9 0,-16.3 -0.5,-5.8 0.8,-10.6 5.9,-14.4 0,15.5 0,30.9 0,46.3 z"
   id="path86"
   style="clip-rule:evenodd;fill-rule:evenodd" />

	<path
   class="st38"
   d="m -566.6,136.3 c -5.3,0 -10.5,-0.1 -15.7,0 -3.3,0.1 -3.3,-1.9 -2.9,-4.1 1,-5.1 7.7,-8.2 13.1,-6.2 5.3,2.1 6.8,4.9 5.5,10.3 z"
   id="path87"
   style="clip-rule:evenodd;fill-rule:evenodd" />

	<path
   class="st38"
   d="m -646.6,308 c -6.6,-5.3 -6.6,-6.3 -0.5,-11.4 0.2,-0.2 0.3,-0.4 0.5,-0.5 6,-5.2 6,-5.2 10.7,1.8 -3.5,3.3 -7,6.6 -10.7,10.1 z"
   id="path88"
   style="clip-rule:evenodd;fill-rule:evenodd" />

	<path
   class="st38"
   d="m -335.4,97.5 c 3.5,3.1 4.3,7.2 2.3,10.1 -2.4,3.5 -6,4.3 -10.2,1.9 2.5,-3.9 5.1,-7.8 7.9,-12 z"
   id="path89"
   style="clip-rule:evenodd;fill-rule:evenodd" />

	<path
   class="st38"
   d="m -384.9,515.1 c 4.6,-0.6 8.7,3.6 13.1,0.2 0.8,3.8 0.4,4.4 -2.9,4.5 -2.2,0 -4.4,0.1 -6.7,0 -3,-0.1 -4.2,-1.5 -3.5,-4.7 z"
   id="path90"
   style="clip-rule:evenodd;fill-rule:evenodd" />

	<path
   class="st38"
   d="m -573.6,388.7 c -16.4,0 -28.4,-5.2 -36.8,-16.9 -9.7,-13.5 -6.6,-31.2 6.8,-42.7 16.2,-13.9 44.4,-12.5 59.2,2.8 14.7,15.3 11.6,38.4 -6.7,49.8 -7.5,4.8 -15.6,7.3 -22.5,7 z m -2,-6.9 c 6.4,0.2 12.2,-1.6 17.8,-4.5 15,-7.9 19,-26.7 8.4,-39.3 -11.5,-13.6 -34.5,-15.4 -48.2,-3.8 -11,9.3 -13.4,23.4 -5.7,33.9 6.8,9.3 16.3,13.4 27.7,13.7 z"
   id="path91"
   style="clip-rule:evenodd;fill-rule:evenodd" />

	<path
   class="st38"
   d="m -417.4,519.9 h 42.6 c 0,0 2.5,0.7 3.2,-3.8 0.7,-4.5 -1.1,-8.9 -4.8,-12.2 -3.7,-3.3 -12.1,-9.7 -18.1,-10.1 -5.9,-0.4 -16.2,6.2 -16.2,6.2 0,0 -2.9,4.7 -2.7,5.2 0.2,0.5 -6.9,6.9 -6.4,7.4 0.5,0.4 2.4,7.3 2.4,7.3 z"
   id="path92"
   style="clip-rule:evenodd;fill-rule:evenodd" />

</g>
  </g>
</svg>
