%TF.GenerationSoftware,KiCad,Pcbnew,9.0.7*%
%TF.CreationDate,2026-02-24T22:41:48+01:00*%
%TF.ProjectId,mystery_box-v3,6d797374-6572-4795-9f62-6f782d76332e,rev?*%
%TF.SameCoordinates,Original*%
%TF.FileFunction,Soldermask,Bot*%
%TF.FilePolarity,Negative*%
%FSLAX46Y46*%
G04 Gerber Fmt 4.6, Leading zero omitted, Abs format (unit mm)*
G04 Created by KiCad (PCBNEW 9.0.7) date 2026-02-24 22:41:48*
%MOMM*%
%LPD*%
G01*
G04 APERTURE LIST*
G04 Aperture macros list*
%AMRoundRect*
0 Rectangle with rounded corners*
0 $1 Rounding radius*
0 $2 $3 $4 $5 $6 $7 $8 $9 X,Y pos of 4 corners*
0 Add a 4 corners polygon primitive as box body*
4,1,4,$2,$3,$4,$5,$6,$7,$8,$9,$2,$3,0*
0 Add four circle primitives for the rounded corners*
1,1,$1+$1,$2,$3*
1,1,$1+$1,$4,$5*
1,1,$1+$1,$6,$7*
1,1,$1+$1,$8,$9*
0 Add four rect primitives between the rounded corners*
20,1,$1+$1,$2,$3,$4,$5,0*
20,1,$1+$1,$4,$5,$6,$7,0*
20,1,$1+$1,$6,$7,$8,$9,0*
20,1,$1+$1,$8,$9,$2,$3,0*%
G04 Aperture macros list end*
%ADD10R,1.700000X1.700000*%
%ADD11C,1.700000*%
%ADD12C,1.600000*%
%ADD13RoundRect,0.250001X-1.149999X-1.149999X1.149999X-1.149999X1.149999X1.149999X-1.149999X1.149999X0*%
%ADD14C,2.800000*%
%ADD15RoundRect,0.250001X1.149999X1.149999X-1.149999X1.149999X-1.149999X-1.149999X1.149999X-1.149999X0*%
%ADD16RoundRect,0.250001X0.949999X-0.949999X0.949999X0.949999X-0.949999X0.949999X-0.949999X-0.949999X0*%
%ADD17C,2.400000*%
%ADD18R,1.800000X1.800000*%
%ADD19C,1.800000*%
%ADD20C,1.905000*%
%ADD21C,3.250000*%
%ADD22C,1.500000*%
%ADD23R,1.500000X1.500000*%
%ADD24C,2.300000*%
%ADD25O,1.854000X3.504000*%
%ADD26O,1.754000X3.304000*%
%ADD27O,3.004000X1.604000*%
%ADD28RoundRect,0.250000X-0.550000X-0.550000X0.550000X-0.550000X0.550000X0.550000X-0.550000X0.550000X0*%
%ADD29RoundRect,0.250001X-1.149999X1.149999X-1.149999X-1.149999X1.149999X-1.149999X1.149999X1.149999X0*%
%ADD30RoundRect,0.250001X1.149999X-1.149999X1.149999X1.149999X-1.149999X1.149999X-1.149999X-1.149999X0*%
%ADD31R,2.000000X1.905000*%
%ADD32O,2.000000X1.905000*%
%ADD33RoundRect,0.400050X-0.400050X0.899950X-0.400050X-0.899950X0.400050X-0.899950X0.400050X0.899950X0*%
%ADD34RoundRect,0.400000X-0.400000X0.900000X-0.400000X-0.900000X0.400000X-0.900000X0.400000X0.900000X0*%
%ADD35C,3.400000*%
%ADD36C,2.900000*%
G04 APERTURE END LIST*
D10*
%TO.C,JMP_NEO1_PWR1*%
X164550000Y-111450000D03*
D11*
X164550000Y-108910000D03*
X164550000Y-106370000D03*
%TD*%
D12*
%TO.C,R7*%
X222920000Y-100000000D03*
X233080000Y-100000000D03*
%TD*%
D13*
%TO.C,SW02*%
X227000000Y-120750000D03*
D14*
X232000000Y-120750000D03*
%TD*%
D13*
%TO.C,SW01*%
X217000000Y-120750000D03*
D14*
X222000000Y-120750000D03*
%TD*%
D15*
%TO.C,J12*%
X204250000Y-29032500D03*
D14*
X199250000Y-29032500D03*
%TD*%
D13*
%TO.C,NEO_T1*%
X164750000Y-120967500D03*
D14*
X169750000Y-120967500D03*
X174750000Y-120967500D03*
%TD*%
D16*
%TO.C,D3*%
X243000000Y-114080000D03*
D17*
X243000000Y-103920000D03*
%TD*%
D18*
%TO.C,LED_12V_SW1*%
X255450000Y-72165000D03*
D19*
X255450000Y-69625000D03*
%TD*%
D20*
%TO.C,24V-Boost-Converter1*%
X217850000Y-39500000D03*
X217850000Y-42025000D03*
X217850000Y-49770000D03*
X217850000Y-52320000D03*
X240350000Y-52320000D03*
X240350000Y-49770000D03*
X240350000Y-42025000D03*
X240350000Y-39500000D03*
%TD*%
D21*
%TO.C,J20*%
X264950000Y-65150000D03*
X264950000Y-39850000D03*
D22*
X258400000Y-64005000D03*
X255900000Y-62735000D03*
X258400000Y-61465000D03*
X255900000Y-60195000D03*
X258400000Y-58925000D03*
X255900000Y-57655000D03*
X258400000Y-56385000D03*
X255900000Y-55115000D03*
X258400000Y-49885000D03*
X255900000Y-48615000D03*
X258400000Y-47345000D03*
X255900000Y-46075000D03*
X258400000Y-44805000D03*
X255900000Y-43535000D03*
X258400000Y-42265000D03*
D23*
X255900000Y-40995000D03*
D24*
X269200000Y-68050000D03*
X254200000Y-52500000D03*
X269200000Y-36950000D03*
%TD*%
D25*
%TO.C,J18*%
X261312500Y-109550000D03*
D26*
X267312500Y-109550000D03*
D27*
X264412500Y-104650000D03*
%TD*%
D28*
%TO.C,D4*%
X179290000Y-97700000D03*
D12*
X186910000Y-97700000D03*
%TD*%
D29*
%TO.C,GPIO_T2*%
X142032500Y-49750000D03*
D14*
X142032500Y-54750000D03*
%TD*%
D15*
%TO.C,J8*%
X214250000Y-29032500D03*
D14*
X209250000Y-29032500D03*
%TD*%
D15*
%TO.C,J9*%
X224250000Y-29032500D03*
D14*
X219250000Y-29032500D03*
%TD*%
D12*
%TO.C,R5*%
X250675000Y-79630000D03*
X250675000Y-69470000D03*
%TD*%
D10*
%TO.C,JMP_NEO2_PWR1*%
X180025000Y-111190000D03*
D11*
X180025000Y-108650000D03*
X180025000Y-106110000D03*
%TD*%
D12*
%TO.C,C2*%
X184500000Y-44000000D03*
X184500000Y-39000000D03*
%TD*%
%TO.C,R4*%
X148920000Y-65000000D03*
X159080000Y-65000000D03*
%TD*%
D30*
%TO.C,J15*%
X268967500Y-78250000D03*
D14*
X268967500Y-73250000D03*
%TD*%
D12*
%TO.C,R6*%
X209420000Y-100000000D03*
X219580000Y-100000000D03*
%TD*%
D10*
%TO.C,JMP_24V_12V_POE1*%
X248000000Y-47000000D03*
D11*
X248000000Y-44460000D03*
X248000000Y-41920000D03*
%TD*%
D20*
%TO.C,5V-Buck-Converter1*%
X168850000Y-78610000D03*
X168850000Y-81150000D03*
X168850000Y-90150000D03*
X168850000Y-92690000D03*
X195350000Y-92690000D03*
X195350000Y-90150000D03*
X195350000Y-81150000D03*
X195350000Y-78610000D03*
%TD*%
D10*
%TO.C,PWR_12V_FAN1*%
X258650000Y-75425000D03*
D11*
X256110000Y-75425000D03*
%TD*%
D16*
%TO.C,D2*%
X231500000Y-113830000D03*
D17*
X231500000Y-103670000D03*
%TD*%
D10*
%TO.C,GPIO_CONN1*%
X163150000Y-36075000D03*
D11*
X163150000Y-38615000D03*
X163150000Y-41155000D03*
%TD*%
D15*
%TO.C,J10*%
X234250000Y-29032500D03*
D14*
X229250000Y-29032500D03*
%TD*%
D15*
%TO.C,J14*%
X184250000Y-29032500D03*
D14*
X179250000Y-29032500D03*
%TD*%
D15*
%TO.C,J1*%
X174250000Y-29032500D03*
D14*
X169250000Y-29032500D03*
%TD*%
D30*
%TO.C,J17*%
X269000000Y-88250000D03*
D14*
X269000000Y-83250000D03*
%TD*%
D29*
%TO.C,GPIO_T3*%
X142032500Y-59750000D03*
D14*
X142032500Y-64750000D03*
%TD*%
D31*
%TO.C,Q1*%
X217000000Y-110500000D03*
D32*
X217000000Y-107960000D03*
X217000000Y-105420000D03*
%TD*%
D31*
%TO.C,Q2*%
X227500000Y-110500000D03*
D32*
X227500000Y-107960000D03*
X227500000Y-105420000D03*
%TD*%
D16*
%TO.C,D1*%
X221000000Y-113830000D03*
D17*
X221000000Y-103670000D03*
%TD*%
D18*
%TO.C,LED_12V1*%
X255665000Y-103270000D03*
D19*
X255665000Y-100730000D03*
%TD*%
D30*
%TO.C,J16*%
X269000000Y-98250000D03*
D14*
X269000000Y-93250000D03*
%TD*%
D13*
%TO.C,SW03*%
X237000000Y-120750000D03*
D14*
X242000000Y-120750000D03*
%TD*%
D29*
%TO.C,GPIO_T1*%
X142032500Y-39750000D03*
D14*
X142032500Y-44750000D03*
%TD*%
D12*
%TO.C,R9*%
X255500000Y-86420000D03*
X255500000Y-96580000D03*
%TD*%
D15*
%TO.C,J11*%
X244250000Y-29032500D03*
D14*
X239250000Y-29032500D03*
%TD*%
D12*
%TO.C,R3*%
X196000000Y-50920000D03*
X196000000Y-61080000D03*
%TD*%
D33*
%TO.C,ESP32_S3*%
X181865000Y-47725000D03*
X179325000Y-47725000D03*
X176785000Y-47725000D03*
X184405000Y-47725000D03*
X174245000Y-47725000D03*
X171705000Y-47725000D03*
X189485000Y-47725000D03*
X169165000Y-47725000D03*
X169165000Y-64165000D03*
X171705000Y-64165000D03*
X174245000Y-64165000D03*
X176785000Y-64165000D03*
D34*
X179325000Y-64165000D03*
X181865000Y-64165000D03*
X184405000Y-64165000D03*
D33*
X186945000Y-47725000D03*
D34*
X186945000Y-64165000D03*
X189485000Y-64165000D03*
%TD*%
D12*
%TO.C,R1*%
X148840000Y-45000000D03*
X159000000Y-45000000D03*
%TD*%
D10*
%TO.C,JMP_BUCK_PWR1*%
X201225000Y-81580000D03*
D11*
X201225000Y-79040000D03*
X201225000Y-76500000D03*
%TD*%
D15*
%TO.C,J13*%
X194250000Y-29032500D03*
D14*
X189250000Y-29032500D03*
%TD*%
D12*
%TO.C,R2*%
X148840000Y-55000000D03*
X159000000Y-55000000D03*
%TD*%
%TO.C,R8*%
X236145000Y-100025000D03*
X246305000Y-100025000D03*
%TD*%
%TO.C,C1*%
X189500000Y-39000000D03*
X189500000Y-44000000D03*
%TD*%
D13*
%TO.C,NEO_T2*%
X179750000Y-120967500D03*
D14*
X184750000Y-120967500D03*
X189750000Y-120967500D03*
%TD*%
D13*
%TO.C,NEO_T3*%
X194750000Y-120967500D03*
D14*
X199750000Y-120967500D03*
X204750000Y-120967500D03*
%TD*%
D10*
%TO.C,JMP_5V_USB-BUCK1*%
X200950000Y-93275000D03*
D11*
X200950000Y-90735000D03*
%TD*%
D10*
%TO.C,J3*%
X192040000Y-68875000D03*
D11*
X189500000Y-68875000D03*
X186960000Y-68875000D03*
%TD*%
D31*
%TO.C,Q3*%
X238000000Y-110500000D03*
D32*
X238000000Y-107960000D03*
X238000000Y-105420000D03*
%TD*%
D10*
%TO.C,JMP_NEO3_PWR1*%
X196625000Y-111350000D03*
D11*
X196625000Y-108810000D03*
X196625000Y-106270000D03*
%TD*%
D12*
%TO.C,DMX_XLR1*%
X146580000Y-96880000D03*
X141500000Y-104500000D03*
D35*
X150390000Y-104500000D03*
X151025000Y-96880000D03*
D36*
X154840000Y-100690000D03*
%TD*%
D29*
%TO.C,DMX_T1*%
X142000000Y-72500000D03*
D14*
X142000000Y-77500000D03*
X142000000Y-82500000D03*
%TD*%
M02*
