M48
; DRILL file {KiCad 9.0.7} date 2026-02-24T22:41:45+0100
; FORMAT={-:-/ absolute / metric / decimal}
; #@! TF.CreationDate,2026-02-24T22:41:45+01:00
; #@! TF.GenerationSoftware,Kicad,Pcbnew,9.0.7
; #@! TF.FileFunction,Plated,1,2,PTH
FMAT,2
METRIC
; #@! TA.AperFunction,Plated,PTH,ViaDrill
T1C0.800
; #@! TA.AperFunction,Plated,PTH,ComponentDrill
T2C0.800
; #@! TA.AperFunction,Plated,PTH,ComponentDrill
T3C0.890
; #@! TA.AperFunction,Plated,PTH,ComponentDrill
T4C0.900
; #@! TA.AperFunction,Plated,PTH,ComponentDrill
T5C1.000
; #@! TA.AperFunction,Plated,PTH,ComponentDrill
T6C1.100
; #@! TA.AperFunction,Plated,PTH,ComponentDrill
T7C1.200
; #@! TA.AperFunction,Plated,PTH,ComponentDrill
T8C1.300
; #@! TA.AperFunction,Plated,PTH,ComponentDrill
T9C1.570
; #@! TA.AperFunction,Plated,PTH,ComponentDrill
T10C1.600
%
G90
G05
T1
X159.5Y-73.5
X174.5Y-103.1
X179.6Y-115.3
X179.75Y-87.025
X181.65Y-85.075
X184.3Y-82.925
X190.1Y-103.2
X191.749Y-99.751
X202.275Y-117.575
X204.825Y-77.625
X208.6Y-121.925
X209.25Y-109.225
X209.25Y-111.05
X209.25Y-112.875
X210.425Y-121.925
X212.25Y-121.925
X227.66Y-75.135
X232.75Y-75.275
X232.775Y-73.175
X233.125Y-61.575
X234.912Y-63.325
X236.7Y-65.15
X237.35Y-78.35
X238.725Y-69.275
X239.2Y-55.6
X240.987Y-57.35
X242.775Y-59.175
X246.45Y-90.925
X246.45Y-92.75
X246.45Y-94.575
X247.025Y-118.175
X247.025Y-120.0
X247.025Y-121.825
X255.475Y-77.95
X255.475Y-79.775
X255.475Y-81.6
X255.575Y-107.375
X255.575Y-109.2
X255.575Y-111.025
T2
X148.84Y-45.0
X148.84Y-55.0
X148.92Y-65.0
X159.0Y-45.0
X159.0Y-55.0
X159.08Y-65.0
X169.165Y-48.325
X169.165Y-63.565
X171.705Y-48.325
X171.705Y-63.565
X174.245Y-48.325
X174.245Y-63.565
X176.785Y-48.325
X176.785Y-63.565
X179.29Y-97.7
X179.325Y-48.325
X179.325Y-63.565
X181.865Y-48.325
X181.865Y-63.565
X184.405Y-48.325
X184.405Y-63.565
X184.5Y-39.0
X184.5Y-44.0
X186.91Y-97.7
X186.945Y-48.325
X186.945Y-63.565
X189.485Y-48.325
X189.485Y-63.565
X189.5Y-39.0
X189.5Y-44.0
X196.0Y-50.92
X196.0Y-61.08
X209.42Y-100.0
X219.58Y-100.0
X222.92Y-100.0
X233.08Y-100.0
X236.145Y-100.025
X246.305Y-100.025
X250.675Y-69.47
X250.675Y-79.63
X255.5Y-86.42
X255.5Y-96.58
T3
X255.9Y-40.995
X255.9Y-43.535
X255.9Y-46.075
X255.9Y-48.615
X255.9Y-55.115
X255.9Y-57.655
X255.9Y-60.195
X255.9Y-62.735
X258.4Y-42.265
X258.4Y-44.805
X258.4Y-47.345
X258.4Y-49.885
X258.4Y-56.385
X258.4Y-58.925
X258.4Y-61.465
X258.4Y-64.005
T4
X255.45Y-69.625
X255.45Y-72.165
X255.665Y-100.73
X255.665Y-103.27
T5
X163.15Y-36.075
X163.15Y-38.615
X163.15Y-41.155
X164.55Y-106.37
X164.55Y-108.91
X164.55Y-111.45
X168.85Y-78.61
X168.85Y-81.15
X168.85Y-90.15
X168.85Y-92.69
X180.025Y-106.11
X180.025Y-108.65
X180.025Y-111.19
X186.96Y-68.875
X189.5Y-68.875
X192.04Y-68.875
X195.35Y-78.61
X195.35Y-81.15
X195.35Y-90.15
X195.35Y-92.69
X196.625Y-106.27
X196.625Y-108.81
X196.625Y-111.35
X200.95Y-90.735
X200.95Y-93.275
X201.225Y-76.5
X201.225Y-79.04
X201.225Y-81.58
X217.85Y-39.5
X217.85Y-42.025
X217.85Y-49.77
X217.85Y-52.32
X240.35Y-39.5
X240.35Y-42.025
X240.35Y-49.77
X240.35Y-52.32
X248.0Y-41.92
X248.0Y-44.46
X248.0Y-47.0
X256.11Y-75.425
X258.65Y-75.425
T6
X217.0Y-105.42
X217.0Y-107.96
X217.0Y-110.5
X227.5Y-105.42
X227.5Y-107.96
X227.5Y-110.5
X238.0Y-105.42
X238.0Y-107.96
X238.0Y-110.5
T7
X154.84Y-100.69
X221.0Y-103.67
X221.0Y-113.83
X231.5Y-103.67
X231.5Y-113.83
X243.0Y-103.92
X243.0Y-114.08
T8
X142.0Y-72.5
X142.0Y-77.5
X142.0Y-82.5
X142.032Y-39.75
X142.032Y-44.75
X142.032Y-49.75
X142.032Y-54.75
X142.032Y-59.75
X142.032Y-64.75
X164.75Y-120.968
X169.25Y-29.032
X169.75Y-120.968
X174.25Y-29.032
X174.75Y-120.968
X179.25Y-29.032
X179.75Y-120.968
X184.25Y-29.032
X184.75Y-120.968
X189.25Y-29.032
X189.75Y-120.968
X194.25Y-29.032
X194.75Y-120.968
X199.25Y-29.032
X199.75Y-120.968
X204.25Y-29.032
X204.75Y-120.968
X209.25Y-29.032
X214.25Y-29.032
X217.0Y-120.75
X219.25Y-29.032
X222.0Y-120.75
X224.25Y-29.032
X227.0Y-120.75
X229.25Y-29.032
X232.0Y-120.75
X234.25Y-29.032
X237.0Y-120.75
X239.25Y-29.032
X242.0Y-120.75
X244.25Y-29.032
X268.967Y-73.25
X268.967Y-78.25
X269.0Y-83.25
X269.0Y-88.25
X269.0Y-93.25
X269.0Y-98.25
T9
X254.2Y-52.5
X269.2Y-36.95
X269.2Y-68.05
T10
X150.39Y-104.5
X151.025Y-96.88
T2
G00X261.312Y-110.55
M15
G01X261.312Y-108.55
M16
G05
G00X265.262Y-104.65
M15
G01X263.562Y-104.65
M16
G05
G00X267.312Y-110.55
M15
G01X267.312Y-108.55
M16
G05
M30
