%TF.GenerationSoftware,KiCad,Pcbnew,9.0.7*%
%TF.CreationDate,2026-02-24T22:41:48+01:00*%
%TF.ProjectId,mystery_box-v3,6d797374-6572-4795-9f62-6f782d76332e,rev?*%
%TF.SameCoordinates,Original*%
%TF.FileFunction,Profile,NP*%
%FSLAX46Y46*%
G04 Gerber Fmt 4.6, Leading zero omitted, Abs format (unit mm)*
G04 Created by KiCad (PCBNEW 9.0.7) date 2026-02-24 22:41:48*
%MOMM*%
%LPD*%
G01*
G04 APERTURE LIST*
%TA.AperFunction,Profile*%
%ADD10C,0.050000*%
%TD*%
G04 APERTURE END LIST*
D10*
X145500000Y-116000000D02*
G75*
G02*
X146500000Y-117000000I0J-1000000D01*
G01*
X147500000Y-125000000D02*
G75*
G02*
X146500000Y-124000000I0J1000000D01*
G01*
X265500000Y-34000000D02*
G75*
G02*
X264500000Y-33000000I0J1000000D01*
G01*
X156600000Y-32375000D02*
G75*
G02*
X150600000Y-32375000I-3000000J0D01*
G01*
X150600000Y-32375000D02*
G75*
G02*
X156600000Y-32375000I3000000J0D01*
G01*
X263495699Y-125000000D02*
X147500000Y-125000000D01*
X258375000Y-118250000D02*
G75*
G02*
X252375000Y-118250000I-3000000J0D01*
G01*
X252375000Y-118250000D02*
G75*
G02*
X258375000Y-118250000I3000000J0D01*
G01*
X147500000Y-24999971D02*
X263500000Y-25000000D01*
X264495699Y-124000000D02*
X264495699Y-116995825D01*
X138500000Y-116000000D02*
G75*
G02*
X137500000Y-115000000I0J1000000D01*
G01*
X264495699Y-116995825D02*
G75*
G02*
X265495699Y-115995799I1000001J25D01*
G01*
X146500000Y-25999971D02*
G75*
G02*
X147500000Y-25000000I1000000J-29D01*
G01*
X265500000Y-34000000D02*
X272500000Y-34000000D01*
X138500000Y-116000000D02*
X145500000Y-116000000D01*
X146500000Y-25999971D02*
X146500000Y-32999946D01*
X272500000Y-115995825D02*
X265495699Y-115995825D01*
X137500000Y-34999628D02*
G75*
G02*
X138500045Y-33999600I1000000J28D01*
G01*
X137500000Y-115000000D02*
X137500000Y-34999628D01*
X263500000Y-25000000D02*
G75*
G02*
X264500000Y-26000000I0J-1000000D01*
G01*
X146500000Y-117000000D02*
X146500000Y-124000000D01*
X264495699Y-124000000D02*
G75*
G02*
X263495699Y-124999999I-999999J0D01*
G01*
X273500000Y-114995825D02*
G75*
G02*
X272500000Y-115995800I-1000000J25D01*
G01*
X138500045Y-33999628D02*
X145499955Y-33999946D01*
X272500000Y-34000000D02*
G75*
G02*
X273500000Y-35000000I0J-1000000D01*
G01*
X264500000Y-26000000D02*
X264500000Y-33000000D01*
X273500000Y-35000000D02*
X273500000Y-114995825D01*
X146500000Y-32999946D02*
G75*
G02*
X145499955Y-33999900I-1000000J46D01*
G01*
M02*
