%
M48
M72
T01C0.0120
T02C0.0236
T03C0.0320
T04C0.0350
T05C0.0440
T06C0.0470
T07C0.0512
T08C0.0520
T09C0.1260
T10C0.1280
%
T01
X24821Y15724
X25017Y13926
X22240Y13013
X21955Y13010
X21671Y13010
X21668Y12725
X21953Y12725
X22237Y12728
X24821Y11724
X23299Y10183
X18620Y11808
X15626Y12712
X15341Y12714
X15339Y12997
X15623Y13001
X15054Y12997
X14770Y12998
X14773Y12714
X15057Y12712
X14773Y12424
X14483Y12424
X14486Y12713
X14483Y13001
X15053Y13870
X15368Y13870
X15683Y13870
X15998Y13870
X15998Y14185
X15998Y14500
X15683Y14500
X15683Y14185
X15368Y14185
X15053Y14185
X15053Y14500
X15368Y14500
X12189Y16047
X11904Y16047
X11619Y16045
X11619Y16332
X11904Y16332
X12189Y16335
X12187Y16620
X11904Y16617
X11617Y16620
X9184Y16398
X9184Y16114
X8900Y16117
X8900Y16400
X8616Y16400
X8613Y16116
X8613Y15830
X8897Y15830
X8899Y15544
X8615Y15546
X9183Y15544
X9183Y15828
X10347Y8988
X11320Y11379
T02
X22264Y11437
T03
X30527Y14483
X30527Y13483
X30527Y12483
X27527Y12483
X27527Y13483
X27527Y14483
X14726Y9147
X13326Y9147
X9744Y3610
X10744Y3610
T04
X41902Y9835
X40902Y10335
X41902Y10835
X40902Y11335
X41858Y15352
X40858Y15852
X41858Y16352
X40858Y16852
X6690Y18452
X5690Y17952
X6690Y17452
X5690Y16952
X6690Y16452
X5690Y15952
X6690Y15452
X5690Y12452
X6690Y11952
X5690Y11452
X6690Y10952
X5690Y10452
X6690Y9952
X5690Y9452
X6690Y8952
X5690Y18952
T05
X37283Y5612
X37292Y7012
X37284Y8187
X37292Y9425
X33292Y9425
X33284Y8187
X33292Y7012
X33283Y5612
T06
X35971Y23457
X35971Y12657
T07
X23571Y3650
X22071Y3650
X20571Y3650
X19071Y3650
X17571Y3650
X16071Y3650
X14571Y3650
X13071Y3650
T08
X27275Y3537
X25667Y3542
T09
X41804Y4781
X41804Y21809
X5721Y21809
X5721Y4781
T10
X44402Y8585
X44402Y12585
X44358Y14102
X44358Y18102
X3190Y19452
X3190Y14952
X3190Y12952
X3190Y8452
M30
