G75*
%MOIN*%
%OFA0B0*%
%FSLAX24Y24*%
%IPPOS*%
%LPD*%
%AMOC8*
5,1,8,0,0,1.08239X$1,22.5*
%
%ADD10C,0.0100*%
%ADD11C,0.0000*%
%ADD12C,0.0550*%
%ADD13OC8,0.0705*%
%ADD14C,0.0660*%
%ADD15C,0.0520*%
%ADD16C,0.0768*%
%ADD17OC8,0.1250*%
%ADD18OC8,0.0520*%
%ADD19OC8,0.0630*%
%ADD20C,0.0630*%
%ADD21OC8,0.0240*%
%ADD22C,0.0240*%
%ADD23C,0.0320*%
%ADD24C,0.0400*%
%ADD25OC8,0.0356*%
%ADD26C,0.0560*%
D10*
X004668Y002075D02*
X042857Y002075D01*
X042857Y005224D01*
X045810Y005224D01*
X045810Y021366D01*
X042857Y021366D01*
X042857Y024516D01*
X004668Y024516D01*
X004668Y021366D01*
X001715Y021366D01*
X001715Y005224D01*
X004668Y005224D01*
X004668Y002075D01*
X006690Y011952D02*
X006690Y012610D01*
X004744Y014556D01*
X004733Y018169D01*
X004959Y018395D01*
X006647Y018406D01*
X006690Y018452D01*
X005690Y018952D02*
X005233Y018586D01*
X004884Y018575D01*
X004553Y018243D01*
X004564Y014482D01*
X005895Y013151D01*
X005895Y012657D01*
X005690Y012452D01*
D11*
X002550Y012952D02*
X002552Y013002D01*
X002558Y013052D01*
X002568Y013101D01*
X002581Y013150D01*
X002599Y013197D01*
X002620Y013243D01*
X002644Y013286D01*
X002672Y013328D01*
X002703Y013368D01*
X002737Y013405D01*
X002774Y013439D01*
X002814Y013470D01*
X002856Y013498D01*
X002899Y013522D01*
X002945Y013543D01*
X002992Y013561D01*
X003041Y013574D01*
X003090Y013584D01*
X003140Y013590D01*
X003190Y013592D01*
X003240Y013590D01*
X003290Y013584D01*
X003339Y013574D01*
X003388Y013561D01*
X003435Y013543D01*
X003481Y013522D01*
X003524Y013498D01*
X003566Y013470D01*
X003606Y013439D01*
X003643Y013405D01*
X003677Y013368D01*
X003708Y013328D01*
X003736Y013286D01*
X003760Y013243D01*
X003781Y013197D01*
X003799Y013150D01*
X003812Y013101D01*
X003822Y013052D01*
X003828Y013002D01*
X003830Y012952D01*
X003828Y012902D01*
X003822Y012852D01*
X003812Y012803D01*
X003799Y012754D01*
X003781Y012707D01*
X003760Y012661D01*
X003736Y012618D01*
X003708Y012576D01*
X003677Y012536D01*
X003643Y012499D01*
X003606Y012465D01*
X003566Y012434D01*
X003524Y012406D01*
X003481Y012382D01*
X003435Y012361D01*
X003388Y012343D01*
X003339Y012330D01*
X003290Y012320D01*
X003240Y012314D01*
X003190Y012312D01*
X003140Y012314D01*
X003090Y012320D01*
X003041Y012330D01*
X002992Y012343D01*
X002945Y012361D01*
X002899Y012382D01*
X002856Y012406D01*
X002814Y012434D01*
X002774Y012465D01*
X002737Y012499D01*
X002703Y012536D01*
X002672Y012576D01*
X002644Y012618D01*
X002620Y012661D01*
X002599Y012707D01*
X002581Y012754D01*
X002568Y012803D01*
X002558Y012852D01*
X002552Y012902D01*
X002550Y012952D01*
X002550Y014952D02*
X002552Y015002D01*
X002558Y015052D01*
X002568Y015101D01*
X002581Y015150D01*
X002599Y015197D01*
X002620Y015243D01*
X002644Y015286D01*
X002672Y015328D01*
X002703Y015368D01*
X002737Y015405D01*
X002774Y015439D01*
X002814Y015470D01*
X002856Y015498D01*
X002899Y015522D01*
X002945Y015543D01*
X002992Y015561D01*
X003041Y015574D01*
X003090Y015584D01*
X003140Y015590D01*
X003190Y015592D01*
X003240Y015590D01*
X003290Y015584D01*
X003339Y015574D01*
X003388Y015561D01*
X003435Y015543D01*
X003481Y015522D01*
X003524Y015498D01*
X003566Y015470D01*
X003606Y015439D01*
X003643Y015405D01*
X003677Y015368D01*
X003708Y015328D01*
X003736Y015286D01*
X003760Y015243D01*
X003781Y015197D01*
X003799Y015150D01*
X003812Y015101D01*
X003822Y015052D01*
X003828Y015002D01*
X003830Y014952D01*
X003828Y014902D01*
X003822Y014852D01*
X003812Y014803D01*
X003799Y014754D01*
X003781Y014707D01*
X003760Y014661D01*
X003736Y014618D01*
X003708Y014576D01*
X003677Y014536D01*
X003643Y014499D01*
X003606Y014465D01*
X003566Y014434D01*
X003524Y014406D01*
X003481Y014382D01*
X003435Y014361D01*
X003388Y014343D01*
X003339Y014330D01*
X003290Y014320D01*
X003240Y014314D01*
X003190Y014312D01*
X003140Y014314D01*
X003090Y014320D01*
X003041Y014330D01*
X002992Y014343D01*
X002945Y014361D01*
X002899Y014382D01*
X002856Y014406D01*
X002814Y014434D01*
X002774Y014465D01*
X002737Y014499D01*
X002703Y014536D01*
X002672Y014576D01*
X002644Y014618D01*
X002620Y014661D01*
X002599Y014707D01*
X002581Y014754D01*
X002568Y014803D01*
X002558Y014852D01*
X002552Y014902D01*
X002550Y014952D01*
X002550Y019452D02*
X002552Y019502D01*
X002558Y019552D01*
X002568Y019601D01*
X002581Y019650D01*
X002599Y019697D01*
X002620Y019743D01*
X002644Y019786D01*
X002672Y019828D01*
X002703Y019868D01*
X002737Y019905D01*
X002774Y019939D01*
X002814Y019970D01*
X002856Y019998D01*
X002899Y020022D01*
X002945Y020043D01*
X002992Y020061D01*
X003041Y020074D01*
X003090Y020084D01*
X003140Y020090D01*
X003190Y020092D01*
X003240Y020090D01*
X003290Y020084D01*
X003339Y020074D01*
X003388Y020061D01*
X003435Y020043D01*
X003481Y020022D01*
X003524Y019998D01*
X003566Y019970D01*
X003606Y019939D01*
X003643Y019905D01*
X003677Y019868D01*
X003708Y019828D01*
X003736Y019786D01*
X003760Y019743D01*
X003781Y019697D01*
X003799Y019650D01*
X003812Y019601D01*
X003822Y019552D01*
X003828Y019502D01*
X003830Y019452D01*
X003828Y019402D01*
X003822Y019352D01*
X003812Y019303D01*
X003799Y019254D01*
X003781Y019207D01*
X003760Y019161D01*
X003736Y019118D01*
X003708Y019076D01*
X003677Y019036D01*
X003643Y018999D01*
X003606Y018965D01*
X003566Y018934D01*
X003524Y018906D01*
X003481Y018882D01*
X003435Y018861D01*
X003388Y018843D01*
X003339Y018830D01*
X003290Y018820D01*
X003240Y018814D01*
X003190Y018812D01*
X003140Y018814D01*
X003090Y018820D01*
X003041Y018830D01*
X002992Y018843D01*
X002945Y018861D01*
X002899Y018882D01*
X002856Y018906D01*
X002814Y018934D01*
X002774Y018965D01*
X002737Y018999D01*
X002703Y019036D01*
X002672Y019076D01*
X002644Y019118D01*
X002620Y019161D01*
X002599Y019207D01*
X002581Y019254D01*
X002568Y019303D01*
X002558Y019352D01*
X002552Y019402D01*
X002550Y019452D01*
X005091Y021809D02*
X005093Y021859D01*
X005099Y021909D01*
X005109Y021958D01*
X005123Y022006D01*
X005140Y022053D01*
X005161Y022098D01*
X005186Y022142D01*
X005214Y022183D01*
X005246Y022222D01*
X005280Y022259D01*
X005317Y022293D01*
X005357Y022323D01*
X005399Y022350D01*
X005443Y022374D01*
X005489Y022395D01*
X005536Y022411D01*
X005584Y022424D01*
X005634Y022433D01*
X005683Y022438D01*
X005734Y022439D01*
X005784Y022436D01*
X005833Y022429D01*
X005882Y022418D01*
X005930Y022403D01*
X005976Y022385D01*
X006021Y022363D01*
X006064Y022337D01*
X006105Y022308D01*
X006144Y022276D01*
X006180Y022241D01*
X006212Y022203D01*
X006242Y022163D01*
X006269Y022120D01*
X006292Y022076D01*
X006311Y022030D01*
X006327Y021982D01*
X006339Y021933D01*
X006347Y021884D01*
X006351Y021834D01*
X006351Y021784D01*
X006347Y021734D01*
X006339Y021685D01*
X006327Y021636D01*
X006311Y021588D01*
X006292Y021542D01*
X006269Y021498D01*
X006242Y021455D01*
X006212Y021415D01*
X006180Y021377D01*
X006144Y021342D01*
X006105Y021310D01*
X006064Y021281D01*
X006021Y021255D01*
X005976Y021233D01*
X005930Y021215D01*
X005882Y021200D01*
X005833Y021189D01*
X005784Y021182D01*
X005734Y021179D01*
X005683Y021180D01*
X005634Y021185D01*
X005584Y021194D01*
X005536Y021207D01*
X005489Y021223D01*
X005443Y021244D01*
X005399Y021268D01*
X005357Y021295D01*
X005317Y021325D01*
X005280Y021359D01*
X005246Y021396D01*
X005214Y021435D01*
X005186Y021476D01*
X005161Y021520D01*
X005140Y021565D01*
X005123Y021612D01*
X005109Y021660D01*
X005099Y021709D01*
X005093Y021759D01*
X005091Y021809D01*
X002550Y008452D02*
X002552Y008502D01*
X002558Y008552D01*
X002568Y008601D01*
X002581Y008650D01*
X002599Y008697D01*
X002620Y008743D01*
X002644Y008786D01*
X002672Y008828D01*
X002703Y008868D01*
X002737Y008905D01*
X002774Y008939D01*
X002814Y008970D01*
X002856Y008998D01*
X002899Y009022D01*
X002945Y009043D01*
X002992Y009061D01*
X003041Y009074D01*
X003090Y009084D01*
X003140Y009090D01*
X003190Y009092D01*
X003240Y009090D01*
X003290Y009084D01*
X003339Y009074D01*
X003388Y009061D01*
X003435Y009043D01*
X003481Y009022D01*
X003524Y008998D01*
X003566Y008970D01*
X003606Y008939D01*
X003643Y008905D01*
X003677Y008868D01*
X003708Y008828D01*
X003736Y008786D01*
X003760Y008743D01*
X003781Y008697D01*
X003799Y008650D01*
X003812Y008601D01*
X003822Y008552D01*
X003828Y008502D01*
X003830Y008452D01*
X003828Y008402D01*
X003822Y008352D01*
X003812Y008303D01*
X003799Y008254D01*
X003781Y008207D01*
X003760Y008161D01*
X003736Y008118D01*
X003708Y008076D01*
X003677Y008036D01*
X003643Y007999D01*
X003606Y007965D01*
X003566Y007934D01*
X003524Y007906D01*
X003481Y007882D01*
X003435Y007861D01*
X003388Y007843D01*
X003339Y007830D01*
X003290Y007820D01*
X003240Y007814D01*
X003190Y007812D01*
X003140Y007814D01*
X003090Y007820D01*
X003041Y007830D01*
X002992Y007843D01*
X002945Y007861D01*
X002899Y007882D01*
X002856Y007906D01*
X002814Y007934D01*
X002774Y007965D01*
X002737Y007999D01*
X002703Y008036D01*
X002672Y008076D01*
X002644Y008118D01*
X002620Y008161D01*
X002599Y008207D01*
X002581Y008254D01*
X002568Y008303D01*
X002558Y008352D01*
X002552Y008402D01*
X002550Y008452D01*
X005091Y004781D02*
X005093Y004831D01*
X005099Y004881D01*
X005109Y004930D01*
X005123Y004978D01*
X005140Y005025D01*
X005161Y005070D01*
X005186Y005114D01*
X005214Y005155D01*
X005246Y005194D01*
X005280Y005231D01*
X005317Y005265D01*
X005357Y005295D01*
X005399Y005322D01*
X005443Y005346D01*
X005489Y005367D01*
X005536Y005383D01*
X005584Y005396D01*
X005634Y005405D01*
X005683Y005410D01*
X005734Y005411D01*
X005784Y005408D01*
X005833Y005401D01*
X005882Y005390D01*
X005930Y005375D01*
X005976Y005357D01*
X006021Y005335D01*
X006064Y005309D01*
X006105Y005280D01*
X006144Y005248D01*
X006180Y005213D01*
X006212Y005175D01*
X006242Y005135D01*
X006269Y005092D01*
X006292Y005048D01*
X006311Y005002D01*
X006327Y004954D01*
X006339Y004905D01*
X006347Y004856D01*
X006351Y004806D01*
X006351Y004756D01*
X006347Y004706D01*
X006339Y004657D01*
X006327Y004608D01*
X006311Y004560D01*
X006292Y004514D01*
X006269Y004470D01*
X006242Y004427D01*
X006212Y004387D01*
X006180Y004349D01*
X006144Y004314D01*
X006105Y004282D01*
X006064Y004253D01*
X006021Y004227D01*
X005976Y004205D01*
X005930Y004187D01*
X005882Y004172D01*
X005833Y004161D01*
X005784Y004154D01*
X005734Y004151D01*
X005683Y004152D01*
X005634Y004157D01*
X005584Y004166D01*
X005536Y004179D01*
X005489Y004195D01*
X005443Y004216D01*
X005399Y004240D01*
X005357Y004267D01*
X005317Y004297D01*
X005280Y004331D01*
X005246Y004368D01*
X005214Y004407D01*
X005186Y004448D01*
X005161Y004492D01*
X005140Y004537D01*
X005123Y004584D01*
X005109Y004632D01*
X005099Y004681D01*
X005093Y004731D01*
X005091Y004781D01*
X041174Y004781D02*
X041176Y004831D01*
X041182Y004881D01*
X041192Y004930D01*
X041206Y004978D01*
X041223Y005025D01*
X041244Y005070D01*
X041269Y005114D01*
X041297Y005155D01*
X041329Y005194D01*
X041363Y005231D01*
X041400Y005265D01*
X041440Y005295D01*
X041482Y005322D01*
X041526Y005346D01*
X041572Y005367D01*
X041619Y005383D01*
X041667Y005396D01*
X041717Y005405D01*
X041766Y005410D01*
X041817Y005411D01*
X041867Y005408D01*
X041916Y005401D01*
X041965Y005390D01*
X042013Y005375D01*
X042059Y005357D01*
X042104Y005335D01*
X042147Y005309D01*
X042188Y005280D01*
X042227Y005248D01*
X042263Y005213D01*
X042295Y005175D01*
X042325Y005135D01*
X042352Y005092D01*
X042375Y005048D01*
X042394Y005002D01*
X042410Y004954D01*
X042422Y004905D01*
X042430Y004856D01*
X042434Y004806D01*
X042434Y004756D01*
X042430Y004706D01*
X042422Y004657D01*
X042410Y004608D01*
X042394Y004560D01*
X042375Y004514D01*
X042352Y004470D01*
X042325Y004427D01*
X042295Y004387D01*
X042263Y004349D01*
X042227Y004314D01*
X042188Y004282D01*
X042147Y004253D01*
X042104Y004227D01*
X042059Y004205D01*
X042013Y004187D01*
X041965Y004172D01*
X041916Y004161D01*
X041867Y004154D01*
X041817Y004151D01*
X041766Y004152D01*
X041717Y004157D01*
X041667Y004166D01*
X041619Y004179D01*
X041572Y004195D01*
X041526Y004216D01*
X041482Y004240D01*
X041440Y004267D01*
X041400Y004297D01*
X041363Y004331D01*
X041329Y004368D01*
X041297Y004407D01*
X041269Y004448D01*
X041244Y004492D01*
X041223Y004537D01*
X041206Y004584D01*
X041192Y004632D01*
X041182Y004681D01*
X041176Y004731D01*
X041174Y004781D01*
X043762Y008585D02*
X043764Y008635D01*
X043770Y008685D01*
X043780Y008734D01*
X043793Y008783D01*
X043811Y008830D01*
X043832Y008876D01*
X043856Y008919D01*
X043884Y008961D01*
X043915Y009001D01*
X043949Y009038D01*
X043986Y009072D01*
X044026Y009103D01*
X044068Y009131D01*
X044111Y009155D01*
X044157Y009176D01*
X044204Y009194D01*
X044253Y009207D01*
X044302Y009217D01*
X044352Y009223D01*
X044402Y009225D01*
X044452Y009223D01*
X044502Y009217D01*
X044551Y009207D01*
X044600Y009194D01*
X044647Y009176D01*
X044693Y009155D01*
X044736Y009131D01*
X044778Y009103D01*
X044818Y009072D01*
X044855Y009038D01*
X044889Y009001D01*
X044920Y008961D01*
X044948Y008919D01*
X044972Y008876D01*
X044993Y008830D01*
X045011Y008783D01*
X045024Y008734D01*
X045034Y008685D01*
X045040Y008635D01*
X045042Y008585D01*
X045040Y008535D01*
X045034Y008485D01*
X045024Y008436D01*
X045011Y008387D01*
X044993Y008340D01*
X044972Y008294D01*
X044948Y008251D01*
X044920Y008209D01*
X044889Y008169D01*
X044855Y008132D01*
X044818Y008098D01*
X044778Y008067D01*
X044736Y008039D01*
X044693Y008015D01*
X044647Y007994D01*
X044600Y007976D01*
X044551Y007963D01*
X044502Y007953D01*
X044452Y007947D01*
X044402Y007945D01*
X044352Y007947D01*
X044302Y007953D01*
X044253Y007963D01*
X044204Y007976D01*
X044157Y007994D01*
X044111Y008015D01*
X044068Y008039D01*
X044026Y008067D01*
X043986Y008098D01*
X043949Y008132D01*
X043915Y008169D01*
X043884Y008209D01*
X043856Y008251D01*
X043832Y008294D01*
X043811Y008340D01*
X043793Y008387D01*
X043780Y008436D01*
X043770Y008485D01*
X043764Y008535D01*
X043762Y008585D01*
X043762Y012585D02*
X043764Y012635D01*
X043770Y012685D01*
X043780Y012734D01*
X043793Y012783D01*
X043811Y012830D01*
X043832Y012876D01*
X043856Y012919D01*
X043884Y012961D01*
X043915Y013001D01*
X043949Y013038D01*
X043986Y013072D01*
X044026Y013103D01*
X044068Y013131D01*
X044111Y013155D01*
X044157Y013176D01*
X044204Y013194D01*
X044253Y013207D01*
X044302Y013217D01*
X044352Y013223D01*
X044402Y013225D01*
X044452Y013223D01*
X044502Y013217D01*
X044551Y013207D01*
X044600Y013194D01*
X044647Y013176D01*
X044693Y013155D01*
X044736Y013131D01*
X044778Y013103D01*
X044818Y013072D01*
X044855Y013038D01*
X044889Y013001D01*
X044920Y012961D01*
X044948Y012919D01*
X044972Y012876D01*
X044993Y012830D01*
X045011Y012783D01*
X045024Y012734D01*
X045034Y012685D01*
X045040Y012635D01*
X045042Y012585D01*
X045040Y012535D01*
X045034Y012485D01*
X045024Y012436D01*
X045011Y012387D01*
X044993Y012340D01*
X044972Y012294D01*
X044948Y012251D01*
X044920Y012209D01*
X044889Y012169D01*
X044855Y012132D01*
X044818Y012098D01*
X044778Y012067D01*
X044736Y012039D01*
X044693Y012015D01*
X044647Y011994D01*
X044600Y011976D01*
X044551Y011963D01*
X044502Y011953D01*
X044452Y011947D01*
X044402Y011945D01*
X044352Y011947D01*
X044302Y011953D01*
X044253Y011963D01*
X044204Y011976D01*
X044157Y011994D01*
X044111Y012015D01*
X044068Y012039D01*
X044026Y012067D01*
X043986Y012098D01*
X043949Y012132D01*
X043915Y012169D01*
X043884Y012209D01*
X043856Y012251D01*
X043832Y012294D01*
X043811Y012340D01*
X043793Y012387D01*
X043780Y012436D01*
X043770Y012485D01*
X043764Y012535D01*
X043762Y012585D01*
X043718Y014102D02*
X043720Y014152D01*
X043726Y014202D01*
X043736Y014251D01*
X043749Y014300D01*
X043767Y014347D01*
X043788Y014393D01*
X043812Y014436D01*
X043840Y014478D01*
X043871Y014518D01*
X043905Y014555D01*
X043942Y014589D01*
X043982Y014620D01*
X044024Y014648D01*
X044067Y014672D01*
X044113Y014693D01*
X044160Y014711D01*
X044209Y014724D01*
X044258Y014734D01*
X044308Y014740D01*
X044358Y014742D01*
X044408Y014740D01*
X044458Y014734D01*
X044507Y014724D01*
X044556Y014711D01*
X044603Y014693D01*
X044649Y014672D01*
X044692Y014648D01*
X044734Y014620D01*
X044774Y014589D01*
X044811Y014555D01*
X044845Y014518D01*
X044876Y014478D01*
X044904Y014436D01*
X044928Y014393D01*
X044949Y014347D01*
X044967Y014300D01*
X044980Y014251D01*
X044990Y014202D01*
X044996Y014152D01*
X044998Y014102D01*
X044996Y014052D01*
X044990Y014002D01*
X044980Y013953D01*
X044967Y013904D01*
X044949Y013857D01*
X044928Y013811D01*
X044904Y013768D01*
X044876Y013726D01*
X044845Y013686D01*
X044811Y013649D01*
X044774Y013615D01*
X044734Y013584D01*
X044692Y013556D01*
X044649Y013532D01*
X044603Y013511D01*
X044556Y013493D01*
X044507Y013480D01*
X044458Y013470D01*
X044408Y013464D01*
X044358Y013462D01*
X044308Y013464D01*
X044258Y013470D01*
X044209Y013480D01*
X044160Y013493D01*
X044113Y013511D01*
X044067Y013532D01*
X044024Y013556D01*
X043982Y013584D01*
X043942Y013615D01*
X043905Y013649D01*
X043871Y013686D01*
X043840Y013726D01*
X043812Y013768D01*
X043788Y013811D01*
X043767Y013857D01*
X043749Y013904D01*
X043736Y013953D01*
X043726Y014002D01*
X043720Y014052D01*
X043718Y014102D01*
X043718Y018102D02*
X043720Y018152D01*
X043726Y018202D01*
X043736Y018251D01*
X043749Y018300D01*
X043767Y018347D01*
X043788Y018393D01*
X043812Y018436D01*
X043840Y018478D01*
X043871Y018518D01*
X043905Y018555D01*
X043942Y018589D01*
X043982Y018620D01*
X044024Y018648D01*
X044067Y018672D01*
X044113Y018693D01*
X044160Y018711D01*
X044209Y018724D01*
X044258Y018734D01*
X044308Y018740D01*
X044358Y018742D01*
X044408Y018740D01*
X044458Y018734D01*
X044507Y018724D01*
X044556Y018711D01*
X044603Y018693D01*
X044649Y018672D01*
X044692Y018648D01*
X044734Y018620D01*
X044774Y018589D01*
X044811Y018555D01*
X044845Y018518D01*
X044876Y018478D01*
X044904Y018436D01*
X044928Y018393D01*
X044949Y018347D01*
X044967Y018300D01*
X044980Y018251D01*
X044990Y018202D01*
X044996Y018152D01*
X044998Y018102D01*
X044996Y018052D01*
X044990Y018002D01*
X044980Y017953D01*
X044967Y017904D01*
X044949Y017857D01*
X044928Y017811D01*
X044904Y017768D01*
X044876Y017726D01*
X044845Y017686D01*
X044811Y017649D01*
X044774Y017615D01*
X044734Y017584D01*
X044692Y017556D01*
X044649Y017532D01*
X044603Y017511D01*
X044556Y017493D01*
X044507Y017480D01*
X044458Y017470D01*
X044408Y017464D01*
X044358Y017462D01*
X044308Y017464D01*
X044258Y017470D01*
X044209Y017480D01*
X044160Y017493D01*
X044113Y017511D01*
X044067Y017532D01*
X044024Y017556D01*
X043982Y017584D01*
X043942Y017615D01*
X043905Y017649D01*
X043871Y017686D01*
X043840Y017726D01*
X043812Y017768D01*
X043788Y017811D01*
X043767Y017857D01*
X043749Y017904D01*
X043736Y017953D01*
X043726Y018002D01*
X043720Y018052D01*
X043718Y018102D01*
X041174Y021809D02*
X041176Y021859D01*
X041182Y021909D01*
X041192Y021958D01*
X041206Y022006D01*
X041223Y022053D01*
X041244Y022098D01*
X041269Y022142D01*
X041297Y022183D01*
X041329Y022222D01*
X041363Y022259D01*
X041400Y022293D01*
X041440Y022323D01*
X041482Y022350D01*
X041526Y022374D01*
X041572Y022395D01*
X041619Y022411D01*
X041667Y022424D01*
X041717Y022433D01*
X041766Y022438D01*
X041817Y022439D01*
X041867Y022436D01*
X041916Y022429D01*
X041965Y022418D01*
X042013Y022403D01*
X042059Y022385D01*
X042104Y022363D01*
X042147Y022337D01*
X042188Y022308D01*
X042227Y022276D01*
X042263Y022241D01*
X042295Y022203D01*
X042325Y022163D01*
X042352Y022120D01*
X042375Y022076D01*
X042394Y022030D01*
X042410Y021982D01*
X042422Y021933D01*
X042430Y021884D01*
X042434Y021834D01*
X042434Y021784D01*
X042430Y021734D01*
X042422Y021685D01*
X042410Y021636D01*
X042394Y021588D01*
X042375Y021542D01*
X042352Y021498D01*
X042325Y021455D01*
X042295Y021415D01*
X042263Y021377D01*
X042227Y021342D01*
X042188Y021310D01*
X042147Y021281D01*
X042104Y021255D01*
X042059Y021233D01*
X042013Y021215D01*
X041965Y021200D01*
X041916Y021189D01*
X041867Y021182D01*
X041817Y021179D01*
X041766Y021180D01*
X041717Y021185D01*
X041667Y021194D01*
X041619Y021207D01*
X041572Y021223D01*
X041526Y021244D01*
X041482Y021268D01*
X041440Y021295D01*
X041400Y021325D01*
X041363Y021359D01*
X041329Y021396D01*
X041297Y021435D01*
X041269Y021476D01*
X041244Y021520D01*
X041223Y021565D01*
X041206Y021612D01*
X041192Y021660D01*
X041182Y021709D01*
X041176Y021759D01*
X041174Y021809D01*
D12*
X040858Y016852D03*
X041858Y016352D03*
X040858Y015852D03*
X041858Y015352D03*
X040902Y011335D03*
X041902Y010835D03*
X040902Y010335D03*
X041902Y009835D03*
X006690Y009952D03*
X005690Y009452D03*
X006690Y008952D03*
X005690Y010452D03*
X006690Y010952D03*
X005690Y011452D03*
X006690Y011952D03*
X005690Y012452D03*
X006690Y015452D03*
X005690Y015952D03*
X006690Y016452D03*
X005690Y016952D03*
X006690Y017452D03*
X005690Y017952D03*
X006690Y018452D03*
X005690Y018952D03*
D13*
X035971Y023457D03*
X035971Y012657D03*
D14*
X037292Y009425D03*
X037284Y008187D03*
X037292Y007012D03*
X037283Y005612D03*
X033283Y005612D03*
X033292Y007012D03*
X033284Y008187D03*
X033292Y009425D03*
D15*
X031047Y012483D02*
X030527Y012483D01*
X030527Y013483D02*
X031047Y013483D01*
X031047Y014483D02*
X030527Y014483D01*
X027527Y014483D02*
X027007Y014483D01*
X027007Y013483D02*
X027527Y013483D01*
X027527Y012483D02*
X027007Y012483D01*
D16*
X023571Y004033D02*
X023571Y003266D01*
X022071Y003266D02*
X022071Y004033D01*
X020571Y004033D02*
X020571Y003266D01*
X019071Y003266D02*
X019071Y004033D01*
X017571Y004033D02*
X017571Y003266D01*
X016071Y003266D02*
X016071Y004033D01*
X014571Y004033D02*
X014571Y003266D01*
X013071Y003266D02*
X013071Y004033D01*
D17*
X025667Y003542D03*
X027275Y003537D03*
D18*
X010744Y003610D03*
X009744Y003610D03*
D19*
X013326Y009147D03*
D20*
X014726Y009147D03*
D21*
X011320Y011379D03*
X014483Y012424D03*
X014486Y012713D03*
X014773Y012714D03*
X015057Y012712D03*
X015341Y012714D03*
X015339Y012997D03*
X015623Y013001D03*
X015626Y012712D03*
X015054Y012997D03*
X014770Y012998D03*
X014483Y013001D03*
X014773Y012424D03*
X015053Y013870D03*
X015368Y013870D03*
X015683Y013870D03*
X015998Y013870D03*
X015998Y014185D03*
X015998Y014500D03*
X015683Y014500D03*
X015683Y014185D03*
X015368Y014185D03*
X015053Y014185D03*
X015053Y014500D03*
X015368Y014500D03*
X012189Y016047D03*
X011904Y016047D03*
X011619Y016045D03*
X011619Y016332D03*
X011904Y016332D03*
X012189Y016335D03*
X012187Y016620D03*
X011904Y016617D03*
X011617Y016620D03*
X009184Y016398D03*
X009184Y016114D03*
X008900Y016117D03*
X008900Y016400D03*
X008616Y016400D03*
X008613Y016116D03*
X008613Y015830D03*
X008897Y015830D03*
X008899Y015544D03*
X008615Y015546D03*
X009183Y015544D03*
X009183Y015828D03*
X018620Y011808D03*
X021668Y012725D03*
X021953Y012725D03*
X022237Y012728D03*
X022240Y013013D03*
X021955Y013010D03*
X021671Y013010D03*
X024821Y011724D03*
X023299Y010183D03*
X025017Y013926D03*
X024821Y015724D03*
X010347Y008988D03*
D22*
X011714Y007616D02*
X011821Y007723D01*
X011960Y007781D01*
X021063Y007781D01*
X021622Y008340D01*
X021624Y008887D01*
X021624Y009528D01*
X021694Y009697D01*
X021804Y009808D01*
X021804Y011528D01*
X021874Y011697D01*
X022003Y011827D01*
X022172Y011897D01*
X022355Y011897D01*
X022524Y011827D01*
X022654Y011697D01*
X022724Y011528D01*
X022724Y009526D01*
X022654Y009357D01*
X022544Y009246D01*
X022544Y008977D01*
X022544Y008977D01*
X022544Y008886D01*
X022544Y008795D01*
X022543Y008794D01*
X022533Y004369D01*
X022549Y004353D01*
X022635Y004146D01*
X022635Y003154D01*
X022549Y002946D01*
X022391Y002788D01*
X022184Y002702D01*
X021959Y002702D01*
X021752Y002788D01*
X021593Y002946D01*
X021507Y003154D01*
X021507Y004146D01*
X021593Y004353D01*
X021613Y004373D01*
X021620Y007262D01*
X021436Y007079D01*
X021296Y007021D01*
X012193Y007021D01*
X011124Y005951D01*
X011124Y003852D01*
X011184Y003792D01*
X011184Y003428D01*
X010926Y003170D01*
X010561Y003170D01*
X010304Y003428D01*
X010304Y003792D01*
X010364Y003852D01*
X010364Y006184D01*
X010421Y006324D01*
X010528Y006430D01*
X010528Y006430D01*
X011714Y007616D01*
X011714Y007616D01*
X011658Y007560D02*
X004475Y007560D01*
X004475Y007322D02*
X011420Y007322D01*
X011181Y007083D02*
X004475Y007083D01*
X004475Y006845D02*
X010943Y006845D01*
X010704Y006606D02*
X004475Y006606D01*
X004475Y006368D02*
X010466Y006368D01*
X010364Y006129D02*
X004475Y006129D01*
X004475Y006111D02*
X004475Y014245D01*
X005665Y013056D01*
X005665Y012907D01*
X005599Y012907D01*
X005432Y012838D01*
X005304Y012710D01*
X005235Y012543D01*
X005235Y012362D01*
X005304Y012195D01*
X005432Y012067D01*
X005599Y011997D01*
X005781Y011997D01*
X005948Y012067D01*
X006076Y012195D01*
X006145Y012362D01*
X006145Y012543D01*
X006125Y012592D01*
X006125Y012850D01*
X006460Y012515D01*
X006460Y012350D01*
X006432Y012338D01*
X006304Y012210D01*
X006235Y012043D01*
X006235Y011862D01*
X006304Y011695D01*
X006432Y011567D01*
X006599Y011497D01*
X006781Y011497D01*
X006948Y011567D01*
X007076Y011695D01*
X007145Y011862D01*
X007145Y012043D01*
X007076Y012210D01*
X006948Y012338D01*
X006920Y012350D01*
X006920Y012515D01*
X006920Y012515D01*
X006920Y012610D01*
X006920Y012706D01*
X006849Y012776D01*
X006785Y012840D01*
X004973Y014652D01*
X004963Y018074D01*
X005055Y018165D01*
X005286Y018167D01*
X005235Y018043D01*
X005235Y017862D01*
X005304Y017695D01*
X005432Y017567D01*
X005599Y017497D01*
X005781Y017497D01*
X005948Y017567D01*
X006076Y017695D01*
X006145Y017862D01*
X006145Y018043D01*
X006092Y018172D01*
X006325Y018174D01*
X006432Y018067D01*
X006599Y017997D01*
X006781Y017997D01*
X006948Y018067D01*
X007076Y018195D01*
X007145Y018362D01*
X007145Y018543D01*
X007076Y018710D01*
X006948Y018838D01*
X006781Y018907D01*
X006599Y018907D01*
X006432Y018838D01*
X006304Y018710D01*
X006272Y018633D01*
X006013Y018632D01*
X006076Y018695D01*
X006145Y018862D01*
X006145Y019043D01*
X006076Y019210D01*
X005948Y019338D01*
X005781Y019407D01*
X005599Y019407D01*
X005432Y019338D01*
X005304Y019210D01*
X005235Y019043D01*
X005235Y018882D01*
X005149Y018813D01*
X004881Y018805D01*
X004789Y018805D01*
X004786Y018802D01*
X004782Y018802D01*
X004719Y018735D01*
X004475Y018491D01*
X004475Y020587D01*
X006841Y020587D01*
X006841Y022517D01*
X006797Y022517D01*
X006797Y022561D01*
X006841Y022561D01*
X006841Y023746D01*
X006797Y023833D01*
X027564Y023833D01*
X027564Y014963D01*
X027527Y014963D01*
X027527Y014483D01*
X027527Y014483D01*
X027527Y014963D01*
X026969Y014963D01*
X026894Y014951D01*
X026822Y014928D01*
X026755Y014893D01*
X026694Y014849D01*
X026640Y014795D01*
X026596Y014734D01*
X026562Y014667D01*
X026538Y014595D01*
X026527Y014520D01*
X026527Y014483D01*
X027527Y014483D01*
X025686Y014483D01*
X025666Y014462D01*
X025645Y014462D01*
X025635Y014452D01*
X025271Y014096D02*
X025187Y014180D01*
X025187Y014180D01*
X025141Y014226D01*
X024892Y014226D01*
X024847Y014180D01*
X024847Y014180D01*
X024762Y014096D01*
X024717Y014050D01*
X024717Y013196D01*
X023045Y011525D01*
X022999Y011414D01*
X022999Y010058D01*
X023045Y010013D01*
X023045Y010013D01*
X023129Y009928D01*
X023129Y009928D01*
X023175Y009883D01*
X023423Y009883D01*
X023469Y009928D01*
X023553Y010013D01*
X023599Y010058D01*
X023599Y011230D01*
X025187Y012818D01*
X025271Y012902D01*
X025317Y013012D01*
X025317Y013986D01*
X025317Y014050D01*
X025271Y014096D01*
X025271Y014096D01*
X025317Y014000D02*
X027564Y014000D01*
X027564Y014003D02*
X027564Y013923D01*
X026919Y013923D01*
X026757Y013856D01*
X026634Y013732D01*
X026567Y013570D01*
X026567Y013395D01*
X026634Y013233D01*
X026757Y013110D01*
X026919Y013043D01*
X027564Y013043D01*
X027564Y012923D01*
X026919Y012923D01*
X026757Y012856D01*
X026634Y012732D01*
X026567Y012570D01*
X026567Y012395D01*
X026634Y012233D01*
X026757Y012110D01*
X026919Y012043D01*
X027564Y012043D01*
X027564Y004342D01*
X026942Y004342D01*
X026502Y003902D01*
X026017Y004387D01*
X025677Y004387D01*
X025677Y003552D01*
X025657Y003552D01*
X025657Y004387D01*
X025317Y004387D01*
X024822Y003892D01*
X024822Y003552D01*
X025657Y003552D01*
X025657Y003532D01*
X024822Y003532D01*
X024822Y003192D01*
X025317Y002697D01*
X025657Y002697D01*
X025657Y003532D01*
X025677Y003532D01*
X025677Y002697D01*
X026017Y002697D01*
X026497Y003177D01*
X026942Y002732D01*
X027564Y002732D01*
X027564Y002645D01*
X006797Y002645D01*
X006797Y006111D01*
X004475Y006111D01*
X006797Y005891D02*
X010364Y005891D01*
X010364Y005652D02*
X006797Y005652D01*
X006797Y005414D02*
X010364Y005414D01*
X010364Y005175D02*
X006797Y005175D01*
X006797Y004937D02*
X010364Y004937D01*
X010364Y004698D02*
X006797Y004698D01*
X006797Y004460D02*
X010364Y004460D01*
X010364Y004221D02*
X006797Y004221D01*
X006797Y003983D02*
X009494Y003983D01*
X009561Y004050D02*
X009304Y003792D01*
X009304Y003428D01*
X009561Y003170D01*
X009926Y003170D01*
X010184Y003428D01*
X010184Y003792D01*
X009926Y004050D01*
X009561Y004050D01*
X009304Y003744D02*
X006797Y003744D01*
X006797Y003506D02*
X009304Y003506D01*
X009464Y003267D02*
X006797Y003267D01*
X006797Y003029D02*
X012514Y003029D01*
X012512Y003034D02*
X012555Y002949D01*
X012611Y002872D01*
X012678Y002805D01*
X012755Y002749D01*
X012840Y002706D01*
X012930Y002677D01*
X013024Y002662D01*
X013063Y002662D01*
X013063Y003642D01*
X012467Y003642D01*
X012467Y003218D01*
X012482Y003124D01*
X012512Y003034D01*
X012467Y003267D02*
X011023Y003267D01*
X011184Y003506D02*
X012467Y003506D01*
X012467Y003658D02*
X013063Y003658D01*
X013063Y004637D01*
X013024Y004637D01*
X012930Y004622D01*
X012840Y004593D01*
X012755Y004550D01*
X012678Y004494D01*
X012611Y004427D01*
X012555Y004350D01*
X012512Y004265D01*
X012482Y004175D01*
X012467Y004081D01*
X012467Y003658D01*
X012467Y003744D02*
X011184Y003744D01*
X011124Y003983D02*
X012467Y003983D01*
X012497Y004221D02*
X011124Y004221D01*
X011124Y004460D02*
X012644Y004460D01*
X013063Y004460D02*
X013079Y004460D01*
X013079Y004637D02*
X013079Y003658D01*
X013063Y003658D01*
X013063Y003642D01*
X013079Y003642D01*
X013079Y003658D01*
X013675Y003658D01*
X013675Y004081D01*
X013660Y004175D01*
X013631Y004265D01*
X013588Y004350D01*
X013532Y004427D01*
X013465Y004494D01*
X013388Y004550D01*
X013303Y004593D01*
X013213Y004622D01*
X013119Y004637D01*
X013079Y004637D01*
X013063Y004221D02*
X013079Y004221D01*
X013063Y003983D02*
X013079Y003983D01*
X013063Y003744D02*
X013079Y003744D01*
X013079Y003642D02*
X013675Y003642D01*
X013675Y003218D01*
X013660Y003124D01*
X013631Y003034D01*
X013588Y002949D01*
X013532Y002872D01*
X013465Y002805D01*
X013388Y002749D01*
X013303Y002706D01*
X013213Y002677D01*
X013119Y002662D01*
X013079Y002662D01*
X013079Y003642D01*
X013063Y003506D02*
X013079Y003506D01*
X013063Y003267D02*
X013079Y003267D01*
X013063Y003029D02*
X013079Y003029D01*
X013063Y002790D02*
X013079Y002790D01*
X013444Y002790D02*
X014249Y002790D01*
X014252Y002788D02*
X014459Y002702D01*
X014684Y002702D01*
X014891Y002788D01*
X015049Y002946D01*
X015135Y003154D01*
X015135Y004146D01*
X015049Y004353D01*
X014891Y004511D01*
X014684Y004597D01*
X014459Y004597D01*
X014252Y004511D01*
X014093Y004353D01*
X014007Y004146D01*
X014007Y003154D01*
X014093Y002946D01*
X014252Y002788D01*
X014059Y003029D02*
X013628Y003029D01*
X013675Y003267D02*
X014007Y003267D01*
X014007Y003506D02*
X013675Y003506D01*
X013675Y003744D02*
X014007Y003744D01*
X014007Y003983D02*
X013675Y003983D01*
X013645Y004221D02*
X014039Y004221D01*
X014200Y004460D02*
X013499Y004460D01*
X014942Y004460D02*
X015644Y004460D01*
X015611Y004427D02*
X015678Y004494D01*
X015755Y004550D01*
X015840Y004593D01*
X015930Y004622D01*
X016024Y004637D01*
X016063Y004637D01*
X016063Y003658D01*
X016079Y003658D01*
X016079Y004637D01*
X016119Y004637D01*
X016213Y004622D01*
X016303Y004593D01*
X016388Y004550D01*
X016465Y004494D01*
X016532Y004427D01*
X016588Y004350D01*
X016631Y004265D01*
X016660Y004175D01*
X016675Y004081D01*
X016675Y003658D01*
X016079Y003658D01*
X016079Y003642D01*
X016675Y003642D01*
X016675Y003218D01*
X016660Y003124D01*
X016631Y003034D01*
X016588Y002949D01*
X016532Y002872D01*
X016465Y002805D01*
X016388Y002749D01*
X016303Y002706D01*
X016213Y002677D01*
X016119Y002662D01*
X016079Y002662D01*
X016079Y003642D01*
X016063Y003642D01*
X015467Y003642D01*
X015467Y003218D01*
X015482Y003124D01*
X015512Y003034D01*
X015555Y002949D01*
X015611Y002872D01*
X015678Y002805D01*
X015755Y002749D01*
X015840Y002706D01*
X015930Y002677D01*
X016024Y002662D01*
X016063Y002662D01*
X016063Y003642D01*
X016063Y003658D01*
X015467Y003658D01*
X015467Y004081D01*
X015482Y004175D01*
X015512Y004265D01*
X015555Y004350D01*
X015611Y004427D01*
X015497Y004221D02*
X015104Y004221D01*
X015135Y003983D02*
X015467Y003983D01*
X015467Y003744D02*
X015135Y003744D01*
X015135Y003506D02*
X015467Y003506D01*
X015467Y003267D02*
X015135Y003267D01*
X015084Y003029D02*
X015514Y003029D01*
X015698Y002790D02*
X014893Y002790D01*
X016063Y002790D02*
X016079Y002790D01*
X016063Y003029D02*
X016079Y003029D01*
X016063Y003267D02*
X016079Y003267D01*
X016063Y003506D02*
X016079Y003506D01*
X016063Y003744D02*
X016079Y003744D01*
X016063Y003983D02*
X016079Y003983D01*
X016063Y004221D02*
X016079Y004221D01*
X016063Y004460D02*
X016079Y004460D01*
X016499Y004460D02*
X017200Y004460D01*
X017252Y004511D02*
X017093Y004353D01*
X017007Y004146D01*
X017007Y003154D01*
X017093Y002946D01*
X017252Y002788D01*
X017459Y002702D01*
X017684Y002702D01*
X017891Y002788D01*
X018049Y002946D01*
X018135Y003154D01*
X018135Y004146D01*
X018049Y004353D01*
X017891Y004511D01*
X017684Y004597D01*
X017459Y004597D01*
X017252Y004511D01*
X017039Y004221D02*
X016645Y004221D01*
X016675Y003983D02*
X017007Y003983D01*
X017007Y003744D02*
X016675Y003744D01*
X016675Y003506D02*
X017007Y003506D01*
X017007Y003267D02*
X016675Y003267D01*
X016628Y003029D02*
X017059Y003029D01*
X017249Y002790D02*
X016444Y002790D01*
X017893Y002790D02*
X018698Y002790D01*
X018678Y002805D02*
X018755Y002749D01*
X018840Y002706D01*
X018930Y002677D01*
X019024Y002662D01*
X019063Y002662D01*
X019063Y003642D01*
X018467Y003642D01*
X018467Y003218D01*
X018482Y003124D01*
X018512Y003034D01*
X018555Y002949D01*
X018611Y002872D01*
X018678Y002805D01*
X018514Y003029D02*
X018084Y003029D01*
X018135Y003267D02*
X018467Y003267D01*
X018467Y003506D02*
X018135Y003506D01*
X018135Y003744D02*
X018467Y003744D01*
X018467Y003658D02*
X019063Y003658D01*
X019063Y004637D01*
X019024Y004637D01*
X018930Y004622D01*
X018840Y004593D01*
X018755Y004550D01*
X018678Y004494D01*
X018611Y004427D01*
X018555Y004350D01*
X018512Y004265D01*
X018482Y004175D01*
X018467Y004081D01*
X018467Y003658D01*
X018467Y003983D02*
X018135Y003983D01*
X018104Y004221D02*
X018497Y004221D01*
X018644Y004460D02*
X017942Y004460D01*
X019063Y004460D02*
X019079Y004460D01*
X019079Y004637D02*
X019079Y003658D01*
X019063Y003658D01*
X019063Y003642D01*
X019079Y003642D01*
X019079Y003658D01*
X019675Y003658D01*
X019675Y004081D01*
X019660Y004175D01*
X019631Y004265D01*
X019588Y004350D01*
X019532Y004427D01*
X019465Y004494D01*
X019388Y004550D01*
X019303Y004593D01*
X019213Y004622D01*
X019119Y004637D01*
X019079Y004637D01*
X019063Y004221D02*
X019079Y004221D01*
X019063Y003983D02*
X019079Y003983D01*
X019063Y003744D02*
X019079Y003744D01*
X019079Y003642D02*
X019675Y003642D01*
X019675Y003218D01*
X019660Y003124D01*
X019631Y003034D01*
X019588Y002949D01*
X019532Y002872D01*
X019465Y002805D01*
X019388Y002749D01*
X019303Y002706D01*
X019213Y002677D01*
X019119Y002662D01*
X019079Y002662D01*
X019079Y003642D01*
X019063Y003506D02*
X019079Y003506D01*
X019063Y003267D02*
X019079Y003267D01*
X019063Y003029D02*
X019079Y003029D01*
X019063Y002790D02*
X019079Y002790D01*
X019444Y002790D02*
X020249Y002790D01*
X020252Y002788D02*
X020459Y002702D01*
X020684Y002702D01*
X020891Y002788D01*
X021049Y002946D01*
X021135Y003154D01*
X021135Y004146D01*
X021049Y004353D01*
X020891Y004511D01*
X020684Y004597D01*
X020459Y004597D01*
X020252Y004511D01*
X020093Y004353D01*
X020007Y004146D01*
X020007Y003154D01*
X020093Y002946D01*
X020252Y002788D01*
X020059Y003029D02*
X019628Y003029D01*
X019675Y003267D02*
X020007Y003267D01*
X020007Y003506D02*
X019675Y003506D01*
X019675Y003744D02*
X020007Y003744D01*
X020007Y003983D02*
X019675Y003983D01*
X019645Y004221D02*
X020039Y004221D01*
X020200Y004460D02*
X019499Y004460D01*
X020942Y004460D02*
X021613Y004460D01*
X021614Y004698D02*
X011124Y004698D01*
X011124Y004937D02*
X021614Y004937D01*
X021615Y005175D02*
X011124Y005175D01*
X011124Y005414D02*
X021615Y005414D01*
X021616Y005652D02*
X011124Y005652D01*
X011124Y005891D02*
X021617Y005891D01*
X021617Y006129D02*
X011302Y006129D01*
X011540Y006368D02*
X021618Y006368D01*
X021618Y006606D02*
X011779Y006606D01*
X012017Y006845D02*
X021619Y006845D01*
X021619Y007083D02*
X021441Y007083D01*
X022539Y007083D02*
X027564Y007083D01*
X027564Y006845D02*
X022539Y006845D01*
X022538Y006606D02*
X027564Y006606D01*
X027564Y006368D02*
X022538Y006368D01*
X022537Y006129D02*
X027564Y006129D01*
X027564Y005891D02*
X022537Y005891D01*
X022536Y005652D02*
X027564Y005652D01*
X027564Y005414D02*
X022535Y005414D01*
X022535Y005175D02*
X027564Y005175D01*
X027564Y004937D02*
X022534Y004937D01*
X022534Y004698D02*
X027564Y004698D01*
X027564Y004460D02*
X023942Y004460D01*
X023891Y004511D02*
X023684Y004597D01*
X023459Y004597D01*
X023252Y004511D01*
X023093Y004353D01*
X023007Y004146D01*
X023007Y003154D01*
X023093Y002946D01*
X023252Y002788D01*
X023459Y002702D01*
X023684Y002702D01*
X023891Y002788D01*
X024049Y002946D01*
X024135Y003154D01*
X024135Y004146D01*
X024049Y004353D01*
X023891Y004511D01*
X024104Y004221D02*
X025152Y004221D01*
X024914Y003983D02*
X024135Y003983D01*
X024135Y003744D02*
X024822Y003744D01*
X024822Y003506D02*
X024135Y003506D01*
X024135Y003267D02*
X024822Y003267D01*
X024985Y003029D02*
X024084Y003029D01*
X023893Y002790D02*
X025223Y002790D01*
X025657Y002790D02*
X025677Y002790D01*
X025657Y003029D02*
X025677Y003029D01*
X025657Y003267D02*
X025677Y003267D01*
X025657Y003506D02*
X025677Y003506D01*
X025657Y003744D02*
X025677Y003744D01*
X025657Y003983D02*
X025677Y003983D01*
X025657Y004221D02*
X025677Y004221D01*
X026182Y004221D02*
X026821Y004221D01*
X026582Y003983D02*
X026421Y003983D01*
X026350Y003029D02*
X026645Y003029D01*
X026884Y002790D02*
X026111Y002790D01*
X023249Y002790D02*
X022393Y002790D01*
X022584Y003029D02*
X023059Y003029D01*
X023007Y003267D02*
X022635Y003267D01*
X022635Y003506D02*
X023007Y003506D01*
X023007Y003744D02*
X022635Y003744D01*
X022635Y003983D02*
X023007Y003983D01*
X023039Y004221D02*
X022604Y004221D01*
X022533Y004460D02*
X023200Y004460D01*
X021539Y004221D02*
X021104Y004221D01*
X021135Y003983D02*
X021507Y003983D01*
X021507Y003744D02*
X021135Y003744D01*
X021135Y003506D02*
X021507Y003506D01*
X021507Y003267D02*
X021135Y003267D01*
X021084Y003029D02*
X021559Y003029D01*
X021749Y002790D02*
X020893Y002790D01*
X012698Y002790D02*
X006797Y002790D01*
X009993Y003983D02*
X010364Y003983D01*
X010304Y003744D02*
X010184Y003744D01*
X010184Y003506D02*
X010304Y003506D01*
X010464Y003267D02*
X010023Y003267D01*
X004475Y007799D02*
X021081Y007799D01*
X021320Y008037D02*
X004475Y008037D01*
X004475Y008276D02*
X021558Y008276D01*
X021623Y008514D02*
X006821Y008514D01*
X006781Y008497D02*
X006948Y008567D01*
X007076Y008695D01*
X007145Y008862D01*
X007145Y009043D01*
X007076Y009210D01*
X006948Y009338D01*
X006781Y009407D01*
X006599Y009407D01*
X006432Y009338D01*
X006304Y009210D01*
X006235Y009043D01*
X006235Y008862D01*
X006304Y008695D01*
X006432Y008567D01*
X006599Y008497D01*
X006781Y008497D01*
X006559Y008514D02*
X004475Y008514D01*
X004475Y008753D02*
X006280Y008753D01*
X006235Y008991D02*
X004475Y008991D01*
X004475Y009230D02*
X005290Y009230D01*
X005304Y009195D02*
X005432Y009067D01*
X005599Y008997D01*
X005781Y008997D01*
X005948Y009067D01*
X006076Y009195D01*
X006145Y009362D01*
X006145Y009543D01*
X006076Y009710D01*
X005948Y009838D01*
X005781Y009907D01*
X005599Y009907D01*
X005432Y009838D01*
X005304Y009710D01*
X005235Y009543D01*
X005235Y009362D01*
X005304Y009195D01*
X005235Y009468D02*
X004475Y009468D01*
X004475Y009707D02*
X005303Y009707D01*
X005432Y010067D02*
X005599Y009997D01*
X005781Y009997D01*
X005948Y010067D01*
X006076Y010195D01*
X006145Y010362D01*
X006145Y010543D01*
X006076Y010710D01*
X005948Y010838D01*
X005781Y010907D01*
X005599Y010907D01*
X005432Y010838D01*
X005304Y010710D01*
X005235Y010543D01*
X005235Y010362D01*
X005304Y010195D01*
X005432Y010067D01*
X005315Y010184D02*
X004475Y010184D01*
X004475Y010422D02*
X005235Y010422D01*
X005284Y010661D02*
X004475Y010661D01*
X004475Y010899D02*
X005580Y010899D01*
X005599Y010997D02*
X005781Y010997D01*
X005948Y011067D01*
X006076Y011195D01*
X006145Y011362D01*
X006145Y011543D01*
X006076Y011710D01*
X005948Y011838D01*
X005781Y011907D01*
X005599Y011907D01*
X005432Y011838D01*
X005304Y011710D01*
X005235Y011543D01*
X005235Y011362D01*
X005304Y011195D01*
X005432Y011067D01*
X005599Y010997D01*
X005800Y010899D02*
X006235Y010899D01*
X006235Y010862D02*
X006304Y010695D01*
X006432Y010567D01*
X006599Y010497D01*
X006781Y010497D01*
X006948Y010567D01*
X007076Y010695D01*
X007145Y010862D01*
X007145Y011043D01*
X007076Y011210D01*
X006948Y011338D01*
X006781Y011407D01*
X006599Y011407D01*
X006432Y011338D01*
X006304Y011210D01*
X006235Y011043D01*
X006235Y010862D01*
X006338Y010661D02*
X006096Y010661D01*
X006145Y010422D02*
X021804Y010422D01*
X021804Y010184D02*
X007087Y010184D01*
X007076Y010210D02*
X006948Y010338D01*
X006781Y010407D01*
X006599Y010407D01*
X006432Y010338D01*
X006304Y010210D01*
X006235Y010043D01*
X006235Y009862D01*
X006304Y009695D01*
X006432Y009567D01*
X006599Y009497D01*
X006781Y009497D01*
X006948Y009567D01*
X007076Y009695D01*
X007145Y009862D01*
X007145Y010043D01*
X007076Y010210D01*
X007145Y009945D02*
X021804Y009945D01*
X021703Y009707D02*
X007081Y009707D01*
X006299Y009707D02*
X006077Y009707D01*
X006145Y009468D02*
X012891Y009468D01*
X012791Y009368D02*
X012791Y009147D01*
X013326Y009147D01*
X013326Y009147D01*
X013326Y009682D01*
X013547Y009682D01*
X013861Y009368D01*
X013861Y009147D01*
X013326Y009147D01*
X013326Y009147D01*
X013326Y009682D01*
X013104Y009682D01*
X012791Y009368D01*
X012791Y009230D02*
X007056Y009230D01*
X007145Y008991D02*
X012791Y008991D01*
X012791Y008925D02*
X013104Y008612D01*
X013326Y008612D01*
X013547Y008612D01*
X013861Y008925D01*
X013861Y009147D01*
X013326Y009147D01*
X013326Y009147D01*
X013326Y008612D01*
X013326Y009147D01*
X013326Y009147D01*
X012791Y009147D01*
X012791Y008925D01*
X012963Y008753D02*
X007100Y008753D01*
X006324Y009230D02*
X006090Y009230D01*
X006235Y009945D02*
X004475Y009945D01*
X006065Y010184D02*
X006293Y010184D01*
X007042Y010661D02*
X021804Y010661D01*
X021804Y010899D02*
X007145Y010899D01*
X007106Y011138D02*
X011080Y011138D01*
X011127Y011091D02*
X011031Y011187D01*
X010980Y011312D01*
X010980Y011447D01*
X011031Y011572D01*
X011127Y011667D01*
X011252Y011719D01*
X018051Y011719D01*
X018427Y012096D01*
X018552Y012148D01*
X018688Y012148D01*
X018813Y012096D01*
X018908Y012000D01*
X018960Y011875D01*
X018960Y011740D01*
X018908Y011615D01*
X021840Y011615D01*
X021804Y011376D02*
X018669Y011376D01*
X018480Y011187D02*
X018908Y011615D01*
X018960Y011853D02*
X022068Y011853D01*
X022460Y011853D02*
X023374Y011853D01*
X023612Y012092D02*
X018817Y012092D01*
X018423Y012092D02*
X007125Y012092D01*
X007141Y011853D02*
X018185Y011853D01*
X018480Y011187D02*
X018384Y011091D01*
X018259Y011039D01*
X011252Y011039D01*
X011127Y011091D01*
X010980Y011376D02*
X006856Y011376D01*
X006996Y011615D02*
X011074Y011615D01*
X014445Y009566D02*
X014627Y009642D01*
X014824Y009642D01*
X015006Y009566D01*
X015145Y009427D01*
X015221Y009245D01*
X015221Y009048D01*
X015145Y008866D01*
X015006Y008727D01*
X014824Y008652D01*
X014627Y008652D01*
X014445Y008727D01*
X014306Y008866D01*
X014231Y009048D01*
X014231Y009245D01*
X014306Y009427D01*
X014445Y009566D01*
X014347Y009468D02*
X013761Y009468D01*
X013861Y009230D02*
X014231Y009230D01*
X014254Y008991D02*
X013861Y008991D01*
X013689Y008753D02*
X014420Y008753D01*
X015032Y008753D02*
X021623Y008753D01*
X021624Y008991D02*
X015197Y008991D01*
X015221Y009230D02*
X021624Y009230D01*
X021624Y009468D02*
X015104Y009468D01*
X013326Y009468D02*
X013326Y009468D01*
X013326Y009230D02*
X013326Y009230D01*
X013326Y008991D02*
X013326Y008991D01*
X013326Y008753D02*
X013326Y008753D01*
X018431Y011138D02*
X021804Y011138D01*
X022724Y011138D02*
X022999Y011138D01*
X022999Y011376D02*
X022724Y011376D01*
X022688Y011615D02*
X023135Y011615D01*
X023299Y011355D02*
X025017Y013072D01*
X025017Y013926D01*
X024762Y014096D02*
X024762Y014096D01*
X024717Y014000D02*
X005626Y014000D01*
X005864Y013761D02*
X024717Y013761D01*
X024717Y013523D02*
X006103Y013523D01*
X006341Y013284D02*
X024717Y013284D01*
X024566Y013046D02*
X006580Y013046D01*
X006785Y012840D02*
X006785Y012840D01*
X006818Y012807D02*
X024328Y012807D01*
X024089Y012569D02*
X006920Y012569D01*
X006920Y012706D02*
X006920Y012706D01*
X006920Y012706D01*
X006406Y012569D02*
X006134Y012569D01*
X006125Y012807D02*
X006168Y012807D01*
X005665Y013046D02*
X004475Y013046D01*
X004475Y013284D02*
X005436Y013284D01*
X005198Y013523D02*
X004475Y013523D01*
X004475Y013761D02*
X004959Y013761D01*
X004720Y014000D02*
X004475Y014000D01*
X004475Y014238D02*
X004482Y014238D01*
X005149Y014477D02*
X026527Y014477D01*
X026527Y014483D02*
X026527Y014445D01*
X026538Y014370D01*
X026562Y014298D01*
X026596Y014231D01*
X026640Y014170D01*
X026694Y014117D01*
X026755Y014072D01*
X026822Y014038D01*
X026894Y014015D01*
X026969Y014003D01*
X027527Y014003D01*
X027564Y014003D01*
X027527Y014003D02*
X027527Y014483D01*
X027527Y014483D01*
X027527Y014483D01*
X027527Y014003D01*
X027527Y014238D02*
X027527Y014238D01*
X027527Y014477D02*
X027527Y014477D01*
X027527Y014483D02*
X026527Y014483D01*
X026586Y014715D02*
X004973Y014715D01*
X004973Y014954D02*
X026913Y014954D01*
X027527Y014954D02*
X027527Y014954D01*
X027527Y014715D02*
X027527Y014715D01*
X027564Y015192D02*
X007113Y015192D01*
X007113Y015193D02*
X007149Y015262D01*
X007173Y015337D01*
X007185Y015414D01*
X007185Y015452D01*
X006690Y015452D01*
X006690Y014957D01*
X006729Y014957D01*
X006806Y014970D01*
X006880Y014994D01*
X006949Y015029D01*
X007012Y015075D01*
X007068Y015130D01*
X007113Y015193D01*
X007185Y015431D02*
X027564Y015431D01*
X027564Y015669D02*
X007135Y015669D01*
X007149Y015643D02*
X007113Y015712D01*
X007068Y015775D01*
X007012Y015830D01*
X006949Y015876D01*
X006880Y015911D01*
X006806Y015935D01*
X006729Y015947D01*
X006690Y015947D01*
X006651Y015947D01*
X006574Y015935D01*
X006500Y015911D01*
X006431Y015876D01*
X006368Y015830D01*
X006312Y015775D01*
X006267Y015712D01*
X006231Y015643D01*
X006207Y015568D01*
X006195Y015491D01*
X006195Y015453D01*
X006690Y015453D01*
X006690Y015947D01*
X006690Y015453D01*
X006690Y015453D01*
X006690Y015452D01*
X006690Y015452D01*
X006690Y014957D01*
X006651Y014957D01*
X006574Y014970D01*
X006500Y014994D01*
X006431Y015029D01*
X006368Y015075D01*
X006312Y015130D01*
X006267Y015193D01*
X006231Y015262D01*
X006207Y015337D01*
X006195Y015414D01*
X006195Y015452D01*
X006690Y015452D01*
X006690Y015453D01*
X007185Y015453D01*
X007185Y015491D01*
X007173Y015568D01*
X007149Y015643D01*
X006887Y015908D02*
X027564Y015908D01*
X027564Y016146D02*
X007027Y016146D01*
X007076Y016195D02*
X007145Y016362D01*
X007145Y016543D01*
X007076Y016710D01*
X006948Y016838D01*
X006781Y016907D01*
X006599Y016907D01*
X006432Y016838D01*
X006304Y016710D01*
X006235Y016543D01*
X006235Y016362D01*
X006304Y016195D01*
X006432Y016067D01*
X006599Y015997D01*
X006781Y015997D01*
X006948Y016067D01*
X007076Y016195D01*
X007145Y016385D02*
X027564Y016385D01*
X027564Y016623D02*
X007112Y016623D01*
X006891Y016862D02*
X027564Y016862D01*
X027564Y017100D02*
X006981Y017100D01*
X006948Y017067D02*
X007076Y017195D01*
X007145Y017362D01*
X007145Y017543D01*
X007076Y017710D01*
X006948Y017838D01*
X006781Y017907D01*
X006599Y017907D01*
X006432Y017838D01*
X006304Y017710D01*
X006235Y017543D01*
X006235Y017362D01*
X006304Y017195D01*
X006432Y017067D01*
X006599Y016997D01*
X006781Y016997D01*
X006948Y017067D01*
X007135Y017339D02*
X027564Y017339D01*
X027564Y017577D02*
X007131Y017577D01*
X006970Y017816D02*
X027564Y017816D01*
X027564Y018054D02*
X006918Y018054D01*
X007116Y018293D02*
X027564Y018293D01*
X027564Y018531D02*
X007145Y018531D01*
X007016Y018770D02*
X027564Y018770D01*
X027564Y019008D02*
X006145Y019008D01*
X006107Y018770D02*
X006364Y018770D01*
X006039Y019247D02*
X027564Y019247D01*
X027564Y019485D02*
X004475Y019485D01*
X004475Y019247D02*
X005341Y019247D01*
X005235Y019008D02*
X004475Y019008D01*
X004475Y018770D02*
X004752Y018770D01*
X004516Y018531D02*
X004475Y018531D01*
X004963Y018054D02*
X005240Y018054D01*
X005254Y017816D02*
X004964Y017816D01*
X004965Y017577D02*
X005422Y017577D01*
X005434Y017339D02*
X004965Y017339D01*
X004966Y017100D02*
X005259Y017100D01*
X005235Y017043D02*
X005304Y017210D01*
X005432Y017338D01*
X005599Y017407D01*
X005781Y017407D01*
X005948Y017338D01*
X006076Y017210D01*
X006145Y017043D01*
X006145Y016862D01*
X006076Y016695D01*
X005948Y016567D01*
X005781Y016497D01*
X005599Y016497D01*
X005432Y016567D01*
X005304Y016695D01*
X005235Y016862D01*
X005235Y017043D01*
X005235Y016862D02*
X004967Y016862D01*
X004967Y016623D02*
X005376Y016623D01*
X005500Y016411D02*
X005431Y016376D01*
X005368Y016330D01*
X005312Y016275D01*
X005267Y016212D01*
X005231Y016143D01*
X005207Y016068D01*
X005195Y015991D01*
X005195Y015953D01*
X005690Y015953D01*
X005690Y016447D01*
X005651Y016447D01*
X005574Y016435D01*
X005500Y016411D01*
X005448Y016385D02*
X004968Y016385D01*
X004969Y016146D02*
X005233Y016146D01*
X005195Y015952D02*
X005195Y015914D01*
X005207Y015837D01*
X005231Y015762D01*
X005267Y015693D01*
X005312Y015630D01*
X005368Y015575D01*
X005431Y015529D01*
X005500Y015494D01*
X005574Y015470D01*
X005651Y015457D01*
X005690Y015457D01*
X005729Y015457D01*
X005806Y015470D01*
X005880Y015494D01*
X005949Y015529D01*
X006012Y015575D01*
X006068Y015630D01*
X006113Y015693D01*
X006149Y015762D01*
X006173Y015837D01*
X006185Y015914D01*
X006185Y015952D01*
X005690Y015952D01*
X005690Y015457D01*
X005690Y015952D01*
X005690Y015952D01*
X005195Y015952D01*
X005196Y015908D02*
X004970Y015908D01*
X004970Y015669D02*
X005284Y015669D01*
X004971Y015431D02*
X006195Y015431D01*
X006245Y015669D02*
X006096Y015669D01*
X006184Y015908D02*
X006493Y015908D01*
X006690Y015908D02*
X006690Y015908D01*
X006690Y015669D02*
X006690Y015669D01*
X006690Y015431D02*
X006690Y015431D01*
X006690Y015192D02*
X006690Y015192D01*
X006267Y015192D02*
X004972Y015192D01*
X005690Y015669D02*
X005690Y015669D01*
X005690Y015908D02*
X005690Y015908D01*
X005690Y015952D02*
X005690Y015953D01*
X005690Y015953D01*
X005690Y016447D01*
X005729Y016447D01*
X005806Y016435D01*
X005880Y016411D01*
X005949Y016376D01*
X006012Y016330D01*
X006068Y016275D01*
X006113Y016212D01*
X006149Y016143D01*
X006173Y016068D01*
X006185Y015991D01*
X006185Y015953D01*
X005690Y015953D01*
X005690Y015952D01*
X005690Y016146D02*
X005690Y016146D01*
X005690Y016385D02*
X005690Y016385D01*
X005932Y016385D02*
X006235Y016385D01*
X006268Y016623D02*
X006004Y016623D01*
X006145Y016862D02*
X006489Y016862D01*
X006399Y017100D02*
X006121Y017100D01*
X006245Y017339D02*
X005946Y017339D01*
X005958Y017577D02*
X006249Y017577D01*
X006126Y017816D02*
X006410Y017816D01*
X006462Y018054D02*
X006140Y018054D01*
X004475Y019724D02*
X027564Y019724D01*
X027564Y019962D02*
X004475Y019962D01*
X004475Y020201D02*
X027564Y020201D01*
X027564Y020439D02*
X004475Y020439D01*
X006841Y020678D02*
X027564Y020678D01*
X027564Y020916D02*
X006841Y020916D01*
X006841Y021155D02*
X027564Y021155D01*
X027564Y021393D02*
X006841Y021393D01*
X006841Y021632D02*
X027564Y021632D01*
X027564Y021870D02*
X006841Y021870D01*
X006841Y022109D02*
X027564Y022109D01*
X027564Y022347D02*
X006841Y022347D01*
X006841Y022586D02*
X027564Y022586D01*
X027564Y022824D02*
X006841Y022824D01*
X006841Y023063D02*
X027564Y023063D01*
X027564Y023301D02*
X006841Y023301D01*
X006841Y023540D02*
X027564Y023540D01*
X027564Y023778D02*
X006825Y023778D01*
X006353Y016146D02*
X006147Y016146D01*
X005387Y014238D02*
X026592Y014238D01*
X026663Y013761D02*
X025317Y013761D01*
X025317Y013523D02*
X026567Y013523D01*
X026613Y013284D02*
X025317Y013284D01*
X025317Y013046D02*
X026912Y013046D01*
X026709Y012807D02*
X025176Y012807D01*
X024938Y012569D02*
X026567Y012569D01*
X026593Y012330D02*
X024699Y012330D01*
X024461Y012092D02*
X026801Y012092D01*
X027564Y011853D02*
X024222Y011853D01*
X023984Y011615D02*
X027564Y011615D01*
X027564Y011376D02*
X023745Y011376D01*
X023599Y011138D02*
X027564Y011138D01*
X027564Y010899D02*
X023599Y010899D01*
X023599Y010661D02*
X027564Y010661D01*
X027564Y010422D02*
X023599Y010422D01*
X023599Y010184D02*
X027564Y010184D01*
X027564Y009945D02*
X023486Y009945D01*
X023469Y009928D02*
X023469Y009928D01*
X023553Y010013D02*
X023553Y010013D01*
X023299Y010183D02*
X023299Y011355D01*
X022999Y010899D02*
X022724Y010899D01*
X022724Y010661D02*
X022999Y010661D01*
X022999Y010422D02*
X022724Y010422D01*
X022724Y010184D02*
X022999Y010184D01*
X023112Y009945D02*
X022724Y009945D01*
X022724Y009707D02*
X027564Y009707D01*
X027564Y009468D02*
X022700Y009468D01*
X022544Y009230D02*
X027564Y009230D01*
X027564Y008991D02*
X022544Y008991D01*
X022543Y008753D02*
X027564Y008753D01*
X027564Y008514D02*
X022543Y008514D01*
X022542Y008276D02*
X027564Y008276D01*
X027564Y008037D02*
X022542Y008037D01*
X022541Y007799D02*
X027564Y007799D01*
X027564Y007560D02*
X022540Y007560D01*
X022540Y007322D02*
X027564Y007322D01*
X023851Y012330D02*
X006956Y012330D01*
X006424Y012330D02*
X006132Y012330D01*
X006255Y012092D02*
X005973Y012092D01*
X005911Y011853D02*
X006239Y011853D01*
X006115Y011615D02*
X006384Y011615D01*
X006524Y011376D02*
X006145Y011376D01*
X006019Y011138D02*
X006274Y011138D01*
X005361Y011138D02*
X004475Y011138D01*
X004475Y011376D02*
X005235Y011376D01*
X005265Y011615D02*
X004475Y011615D01*
X004475Y011853D02*
X005469Y011853D01*
X005407Y012092D02*
X004475Y012092D01*
X004475Y012330D02*
X005248Y012330D01*
X005246Y012569D02*
X004475Y012569D01*
X004475Y012807D02*
X005401Y012807D01*
D23*
X011320Y011379D02*
X018192Y011379D01*
X018620Y011808D01*
D24*
X022055Y008858D02*
X022071Y003650D01*
X021221Y007401D02*
X022055Y008235D01*
X022055Y008858D01*
X021221Y007401D02*
X012036Y007401D01*
X010744Y006108D01*
X010744Y003610D01*
X030527Y012483D02*
X030571Y012438D01*
X031095Y012438D01*
X031424Y012110D01*
X031424Y009064D01*
X032486Y008001D01*
X032595Y008001D01*
X032212Y007618D01*
X032212Y006128D01*
X032715Y005624D01*
X033271Y005624D01*
X033283Y005612D01*
X033300Y007005D02*
X033292Y007012D01*
X033300Y007005D02*
X033701Y007005D01*
X034204Y007508D01*
X034204Y008867D01*
X033646Y009425D01*
X033292Y009425D01*
X032168Y010550D01*
X032168Y012876D01*
X031562Y013483D01*
X030527Y013483D01*
X038320Y009328D02*
X039327Y010335D01*
X039705Y010335D01*
X039684Y010357D01*
X039684Y014914D01*
X040622Y015852D01*
X040858Y015852D01*
X041858Y016352D02*
X042252Y016352D01*
X042638Y015966D01*
X042638Y011571D01*
X041902Y010835D01*
X040902Y010335D02*
X040902Y010335D01*
X039705Y010335D01*
X038320Y009328D02*
X038320Y007815D01*
X037517Y007012D01*
X037292Y007012D01*
X037283Y007003D01*
X037283Y005612D01*
X032781Y008187D02*
X032595Y008001D01*
X032781Y008187D02*
X033284Y008187D01*
D25*
X022264Y011437D03*
D26*
X022264Y009617D01*
X022084Y009437D01*
X022084Y008886D01*
X022071Y003650D01*
M02*
