G75*
%MOIN*%
%OFA0B0*%
%FSLAX24Y24*%
%IPPOS*%
%LPD*%
%AMOC8*
5,1,8,0,0,1.08239X$1,22.5*
%
%ADD10C,0.0100*%
%ADD11C,0.0000*%
D10*
X004668Y002075D02*
X042857Y002075D01*
X042857Y005224D01*
X045810Y005224D01*
X045810Y021366D01*
X042857Y021366D01*
X042857Y024516D01*
X004668Y024516D01*
X004668Y021366D01*
X001715Y021366D01*
X001715Y005224D01*
X004668Y005224D01*
X004668Y002075D01*
D11*
X005091Y004781D02*
X005093Y004831D01*
X005099Y004881D01*
X005109Y004930D01*
X005123Y004978D01*
X005140Y005025D01*
X005161Y005070D01*
X005186Y005114D01*
X005214Y005155D01*
X005246Y005194D01*
X005280Y005231D01*
X005317Y005265D01*
X005357Y005295D01*
X005399Y005322D01*
X005443Y005346D01*
X005489Y005367D01*
X005536Y005383D01*
X005584Y005396D01*
X005634Y005405D01*
X005683Y005410D01*
X005734Y005411D01*
X005784Y005408D01*
X005833Y005401D01*
X005882Y005390D01*
X005930Y005375D01*
X005976Y005357D01*
X006021Y005335D01*
X006064Y005309D01*
X006105Y005280D01*
X006144Y005248D01*
X006180Y005213D01*
X006212Y005175D01*
X006242Y005135D01*
X006269Y005092D01*
X006292Y005048D01*
X006311Y005002D01*
X006327Y004954D01*
X006339Y004905D01*
X006347Y004856D01*
X006351Y004806D01*
X006351Y004756D01*
X006347Y004706D01*
X006339Y004657D01*
X006327Y004608D01*
X006311Y004560D01*
X006292Y004514D01*
X006269Y004470D01*
X006242Y004427D01*
X006212Y004387D01*
X006180Y004349D01*
X006144Y004314D01*
X006105Y004282D01*
X006064Y004253D01*
X006021Y004227D01*
X005976Y004205D01*
X005930Y004187D01*
X005882Y004172D01*
X005833Y004161D01*
X005784Y004154D01*
X005734Y004151D01*
X005683Y004152D01*
X005634Y004157D01*
X005584Y004166D01*
X005536Y004179D01*
X005489Y004195D01*
X005443Y004216D01*
X005399Y004240D01*
X005357Y004267D01*
X005317Y004297D01*
X005280Y004331D01*
X005246Y004368D01*
X005214Y004407D01*
X005186Y004448D01*
X005161Y004492D01*
X005140Y004537D01*
X005123Y004584D01*
X005109Y004632D01*
X005099Y004681D01*
X005093Y004731D01*
X005091Y004781D01*
X002550Y008452D02*
X002552Y008502D01*
X002558Y008552D01*
X002568Y008601D01*
X002581Y008650D01*
X002599Y008697D01*
X002620Y008743D01*
X002644Y008786D01*
X002672Y008828D01*
X002703Y008868D01*
X002737Y008905D01*
X002774Y008939D01*
X002814Y008970D01*
X002856Y008998D01*
X002899Y009022D01*
X002945Y009043D01*
X002992Y009061D01*
X003041Y009074D01*
X003090Y009084D01*
X003140Y009090D01*
X003190Y009092D01*
X003240Y009090D01*
X003290Y009084D01*
X003339Y009074D01*
X003388Y009061D01*
X003435Y009043D01*
X003481Y009022D01*
X003524Y008998D01*
X003566Y008970D01*
X003606Y008939D01*
X003643Y008905D01*
X003677Y008868D01*
X003708Y008828D01*
X003736Y008786D01*
X003760Y008743D01*
X003781Y008697D01*
X003799Y008650D01*
X003812Y008601D01*
X003822Y008552D01*
X003828Y008502D01*
X003830Y008452D01*
X003828Y008402D01*
X003822Y008352D01*
X003812Y008303D01*
X003799Y008254D01*
X003781Y008207D01*
X003760Y008161D01*
X003736Y008118D01*
X003708Y008076D01*
X003677Y008036D01*
X003643Y007999D01*
X003606Y007965D01*
X003566Y007934D01*
X003524Y007906D01*
X003481Y007882D01*
X003435Y007861D01*
X003388Y007843D01*
X003339Y007830D01*
X003290Y007820D01*
X003240Y007814D01*
X003190Y007812D01*
X003140Y007814D01*
X003090Y007820D01*
X003041Y007830D01*
X002992Y007843D01*
X002945Y007861D01*
X002899Y007882D01*
X002856Y007906D01*
X002814Y007934D01*
X002774Y007965D01*
X002737Y007999D01*
X002703Y008036D01*
X002672Y008076D01*
X002644Y008118D01*
X002620Y008161D01*
X002599Y008207D01*
X002581Y008254D01*
X002568Y008303D01*
X002558Y008352D01*
X002552Y008402D01*
X002550Y008452D01*
X002550Y012952D02*
X002552Y013002D01*
X002558Y013052D01*
X002568Y013101D01*
X002581Y013150D01*
X002599Y013197D01*
X002620Y013243D01*
X002644Y013286D01*
X002672Y013328D01*
X002703Y013368D01*
X002737Y013405D01*
X002774Y013439D01*
X002814Y013470D01*
X002856Y013498D01*
X002899Y013522D01*
X002945Y013543D01*
X002992Y013561D01*
X003041Y013574D01*
X003090Y013584D01*
X003140Y013590D01*
X003190Y013592D01*
X003240Y013590D01*
X003290Y013584D01*
X003339Y013574D01*
X003388Y013561D01*
X003435Y013543D01*
X003481Y013522D01*
X003524Y013498D01*
X003566Y013470D01*
X003606Y013439D01*
X003643Y013405D01*
X003677Y013368D01*
X003708Y013328D01*
X003736Y013286D01*
X003760Y013243D01*
X003781Y013197D01*
X003799Y013150D01*
X003812Y013101D01*
X003822Y013052D01*
X003828Y013002D01*
X003830Y012952D01*
X003828Y012902D01*
X003822Y012852D01*
X003812Y012803D01*
X003799Y012754D01*
X003781Y012707D01*
X003760Y012661D01*
X003736Y012618D01*
X003708Y012576D01*
X003677Y012536D01*
X003643Y012499D01*
X003606Y012465D01*
X003566Y012434D01*
X003524Y012406D01*
X003481Y012382D01*
X003435Y012361D01*
X003388Y012343D01*
X003339Y012330D01*
X003290Y012320D01*
X003240Y012314D01*
X003190Y012312D01*
X003140Y012314D01*
X003090Y012320D01*
X003041Y012330D01*
X002992Y012343D01*
X002945Y012361D01*
X002899Y012382D01*
X002856Y012406D01*
X002814Y012434D01*
X002774Y012465D01*
X002737Y012499D01*
X002703Y012536D01*
X002672Y012576D01*
X002644Y012618D01*
X002620Y012661D01*
X002599Y012707D01*
X002581Y012754D01*
X002568Y012803D01*
X002558Y012852D01*
X002552Y012902D01*
X002550Y012952D01*
X002550Y014952D02*
X002552Y015002D01*
X002558Y015052D01*
X002568Y015101D01*
X002581Y015150D01*
X002599Y015197D01*
X002620Y015243D01*
X002644Y015286D01*
X002672Y015328D01*
X002703Y015368D01*
X002737Y015405D01*
X002774Y015439D01*
X002814Y015470D01*
X002856Y015498D01*
X002899Y015522D01*
X002945Y015543D01*
X002992Y015561D01*
X003041Y015574D01*
X003090Y015584D01*
X003140Y015590D01*
X003190Y015592D01*
X003240Y015590D01*
X003290Y015584D01*
X003339Y015574D01*
X003388Y015561D01*
X003435Y015543D01*
X003481Y015522D01*
X003524Y015498D01*
X003566Y015470D01*
X003606Y015439D01*
X003643Y015405D01*
X003677Y015368D01*
X003708Y015328D01*
X003736Y015286D01*
X003760Y015243D01*
X003781Y015197D01*
X003799Y015150D01*
X003812Y015101D01*
X003822Y015052D01*
X003828Y015002D01*
X003830Y014952D01*
X003828Y014902D01*
X003822Y014852D01*
X003812Y014803D01*
X003799Y014754D01*
X003781Y014707D01*
X003760Y014661D01*
X003736Y014618D01*
X003708Y014576D01*
X003677Y014536D01*
X003643Y014499D01*
X003606Y014465D01*
X003566Y014434D01*
X003524Y014406D01*
X003481Y014382D01*
X003435Y014361D01*
X003388Y014343D01*
X003339Y014330D01*
X003290Y014320D01*
X003240Y014314D01*
X003190Y014312D01*
X003140Y014314D01*
X003090Y014320D01*
X003041Y014330D01*
X002992Y014343D01*
X002945Y014361D01*
X002899Y014382D01*
X002856Y014406D01*
X002814Y014434D01*
X002774Y014465D01*
X002737Y014499D01*
X002703Y014536D01*
X002672Y014576D01*
X002644Y014618D01*
X002620Y014661D01*
X002599Y014707D01*
X002581Y014754D01*
X002568Y014803D01*
X002558Y014852D01*
X002552Y014902D01*
X002550Y014952D01*
X002550Y019452D02*
X002552Y019502D01*
X002558Y019552D01*
X002568Y019601D01*
X002581Y019650D01*
X002599Y019697D01*
X002620Y019743D01*
X002644Y019786D01*
X002672Y019828D01*
X002703Y019868D01*
X002737Y019905D01*
X002774Y019939D01*
X002814Y019970D01*
X002856Y019998D01*
X002899Y020022D01*
X002945Y020043D01*
X002992Y020061D01*
X003041Y020074D01*
X003090Y020084D01*
X003140Y020090D01*
X003190Y020092D01*
X003240Y020090D01*
X003290Y020084D01*
X003339Y020074D01*
X003388Y020061D01*
X003435Y020043D01*
X003481Y020022D01*
X003524Y019998D01*
X003566Y019970D01*
X003606Y019939D01*
X003643Y019905D01*
X003677Y019868D01*
X003708Y019828D01*
X003736Y019786D01*
X003760Y019743D01*
X003781Y019697D01*
X003799Y019650D01*
X003812Y019601D01*
X003822Y019552D01*
X003828Y019502D01*
X003830Y019452D01*
X003828Y019402D01*
X003822Y019352D01*
X003812Y019303D01*
X003799Y019254D01*
X003781Y019207D01*
X003760Y019161D01*
X003736Y019118D01*
X003708Y019076D01*
X003677Y019036D01*
X003643Y018999D01*
X003606Y018965D01*
X003566Y018934D01*
X003524Y018906D01*
X003481Y018882D01*
X003435Y018861D01*
X003388Y018843D01*
X003339Y018830D01*
X003290Y018820D01*
X003240Y018814D01*
X003190Y018812D01*
X003140Y018814D01*
X003090Y018820D01*
X003041Y018830D01*
X002992Y018843D01*
X002945Y018861D01*
X002899Y018882D01*
X002856Y018906D01*
X002814Y018934D01*
X002774Y018965D01*
X002737Y018999D01*
X002703Y019036D01*
X002672Y019076D01*
X002644Y019118D01*
X002620Y019161D01*
X002599Y019207D01*
X002581Y019254D01*
X002568Y019303D01*
X002558Y019352D01*
X002552Y019402D01*
X002550Y019452D01*
X005091Y021809D02*
X005093Y021859D01*
X005099Y021909D01*
X005109Y021958D01*
X005123Y022006D01*
X005140Y022053D01*
X005161Y022098D01*
X005186Y022142D01*
X005214Y022183D01*
X005246Y022222D01*
X005280Y022259D01*
X005317Y022293D01*
X005357Y022323D01*
X005399Y022350D01*
X005443Y022374D01*
X005489Y022395D01*
X005536Y022411D01*
X005584Y022424D01*
X005634Y022433D01*
X005683Y022438D01*
X005734Y022439D01*
X005784Y022436D01*
X005833Y022429D01*
X005882Y022418D01*
X005930Y022403D01*
X005976Y022385D01*
X006021Y022363D01*
X006064Y022337D01*
X006105Y022308D01*
X006144Y022276D01*
X006180Y022241D01*
X006212Y022203D01*
X006242Y022163D01*
X006269Y022120D01*
X006292Y022076D01*
X006311Y022030D01*
X006327Y021982D01*
X006339Y021933D01*
X006347Y021884D01*
X006351Y021834D01*
X006351Y021784D01*
X006347Y021734D01*
X006339Y021685D01*
X006327Y021636D01*
X006311Y021588D01*
X006292Y021542D01*
X006269Y021498D01*
X006242Y021455D01*
X006212Y021415D01*
X006180Y021377D01*
X006144Y021342D01*
X006105Y021310D01*
X006064Y021281D01*
X006021Y021255D01*
X005976Y021233D01*
X005930Y021215D01*
X005882Y021200D01*
X005833Y021189D01*
X005784Y021182D01*
X005734Y021179D01*
X005683Y021180D01*
X005634Y021185D01*
X005584Y021194D01*
X005536Y021207D01*
X005489Y021223D01*
X005443Y021244D01*
X005399Y021268D01*
X005357Y021295D01*
X005317Y021325D01*
X005280Y021359D01*
X005246Y021396D01*
X005214Y021435D01*
X005186Y021476D01*
X005161Y021520D01*
X005140Y021565D01*
X005123Y021612D01*
X005109Y021660D01*
X005099Y021709D01*
X005093Y021759D01*
X005091Y021809D01*
X041174Y021809D02*
X041176Y021859D01*
X041182Y021909D01*
X041192Y021958D01*
X041206Y022006D01*
X041223Y022053D01*
X041244Y022098D01*
X041269Y022142D01*
X041297Y022183D01*
X041329Y022222D01*
X041363Y022259D01*
X041400Y022293D01*
X041440Y022323D01*
X041482Y022350D01*
X041526Y022374D01*
X041572Y022395D01*
X041619Y022411D01*
X041667Y022424D01*
X041717Y022433D01*
X041766Y022438D01*
X041817Y022439D01*
X041867Y022436D01*
X041916Y022429D01*
X041965Y022418D01*
X042013Y022403D01*
X042059Y022385D01*
X042104Y022363D01*
X042147Y022337D01*
X042188Y022308D01*
X042227Y022276D01*
X042263Y022241D01*
X042295Y022203D01*
X042325Y022163D01*
X042352Y022120D01*
X042375Y022076D01*
X042394Y022030D01*
X042410Y021982D01*
X042422Y021933D01*
X042430Y021884D01*
X042434Y021834D01*
X042434Y021784D01*
X042430Y021734D01*
X042422Y021685D01*
X042410Y021636D01*
X042394Y021588D01*
X042375Y021542D01*
X042352Y021498D01*
X042325Y021455D01*
X042295Y021415D01*
X042263Y021377D01*
X042227Y021342D01*
X042188Y021310D01*
X042147Y021281D01*
X042104Y021255D01*
X042059Y021233D01*
X042013Y021215D01*
X041965Y021200D01*
X041916Y021189D01*
X041867Y021182D01*
X041817Y021179D01*
X041766Y021180D01*
X041717Y021185D01*
X041667Y021194D01*
X041619Y021207D01*
X041572Y021223D01*
X041526Y021244D01*
X041482Y021268D01*
X041440Y021295D01*
X041400Y021325D01*
X041363Y021359D01*
X041329Y021396D01*
X041297Y021435D01*
X041269Y021476D01*
X041244Y021520D01*
X041223Y021565D01*
X041206Y021612D01*
X041192Y021660D01*
X041182Y021709D01*
X041176Y021759D01*
X041174Y021809D01*
X043718Y018102D02*
X043720Y018152D01*
X043726Y018202D01*
X043736Y018251D01*
X043749Y018300D01*
X043767Y018347D01*
X043788Y018393D01*
X043812Y018436D01*
X043840Y018478D01*
X043871Y018518D01*
X043905Y018555D01*
X043942Y018589D01*
X043982Y018620D01*
X044024Y018648D01*
X044067Y018672D01*
X044113Y018693D01*
X044160Y018711D01*
X044209Y018724D01*
X044258Y018734D01*
X044308Y018740D01*
X044358Y018742D01*
X044408Y018740D01*
X044458Y018734D01*
X044507Y018724D01*
X044556Y018711D01*
X044603Y018693D01*
X044649Y018672D01*
X044692Y018648D01*
X044734Y018620D01*
X044774Y018589D01*
X044811Y018555D01*
X044845Y018518D01*
X044876Y018478D01*
X044904Y018436D01*
X044928Y018393D01*
X044949Y018347D01*
X044967Y018300D01*
X044980Y018251D01*
X044990Y018202D01*
X044996Y018152D01*
X044998Y018102D01*
X044996Y018052D01*
X044990Y018002D01*
X044980Y017953D01*
X044967Y017904D01*
X044949Y017857D01*
X044928Y017811D01*
X044904Y017768D01*
X044876Y017726D01*
X044845Y017686D01*
X044811Y017649D01*
X044774Y017615D01*
X044734Y017584D01*
X044692Y017556D01*
X044649Y017532D01*
X044603Y017511D01*
X044556Y017493D01*
X044507Y017480D01*
X044458Y017470D01*
X044408Y017464D01*
X044358Y017462D01*
X044308Y017464D01*
X044258Y017470D01*
X044209Y017480D01*
X044160Y017493D01*
X044113Y017511D01*
X044067Y017532D01*
X044024Y017556D01*
X043982Y017584D01*
X043942Y017615D01*
X043905Y017649D01*
X043871Y017686D01*
X043840Y017726D01*
X043812Y017768D01*
X043788Y017811D01*
X043767Y017857D01*
X043749Y017904D01*
X043736Y017953D01*
X043726Y018002D01*
X043720Y018052D01*
X043718Y018102D01*
X043718Y014102D02*
X043720Y014152D01*
X043726Y014202D01*
X043736Y014251D01*
X043749Y014300D01*
X043767Y014347D01*
X043788Y014393D01*
X043812Y014436D01*
X043840Y014478D01*
X043871Y014518D01*
X043905Y014555D01*
X043942Y014589D01*
X043982Y014620D01*
X044024Y014648D01*
X044067Y014672D01*
X044113Y014693D01*
X044160Y014711D01*
X044209Y014724D01*
X044258Y014734D01*
X044308Y014740D01*
X044358Y014742D01*
X044408Y014740D01*
X044458Y014734D01*
X044507Y014724D01*
X044556Y014711D01*
X044603Y014693D01*
X044649Y014672D01*
X044692Y014648D01*
X044734Y014620D01*
X044774Y014589D01*
X044811Y014555D01*
X044845Y014518D01*
X044876Y014478D01*
X044904Y014436D01*
X044928Y014393D01*
X044949Y014347D01*
X044967Y014300D01*
X044980Y014251D01*
X044990Y014202D01*
X044996Y014152D01*
X044998Y014102D01*
X044996Y014052D01*
X044990Y014002D01*
X044980Y013953D01*
X044967Y013904D01*
X044949Y013857D01*
X044928Y013811D01*
X044904Y013768D01*
X044876Y013726D01*
X044845Y013686D01*
X044811Y013649D01*
X044774Y013615D01*
X044734Y013584D01*
X044692Y013556D01*
X044649Y013532D01*
X044603Y013511D01*
X044556Y013493D01*
X044507Y013480D01*
X044458Y013470D01*
X044408Y013464D01*
X044358Y013462D01*
X044308Y013464D01*
X044258Y013470D01*
X044209Y013480D01*
X044160Y013493D01*
X044113Y013511D01*
X044067Y013532D01*
X044024Y013556D01*
X043982Y013584D01*
X043942Y013615D01*
X043905Y013649D01*
X043871Y013686D01*
X043840Y013726D01*
X043812Y013768D01*
X043788Y013811D01*
X043767Y013857D01*
X043749Y013904D01*
X043736Y013953D01*
X043726Y014002D01*
X043720Y014052D01*
X043718Y014102D01*
X043762Y012585D02*
X043764Y012635D01*
X043770Y012685D01*
X043780Y012734D01*
X043793Y012783D01*
X043811Y012830D01*
X043832Y012876D01*
X043856Y012919D01*
X043884Y012961D01*
X043915Y013001D01*
X043949Y013038D01*
X043986Y013072D01*
X044026Y013103D01*
X044068Y013131D01*
X044111Y013155D01*
X044157Y013176D01*
X044204Y013194D01*
X044253Y013207D01*
X044302Y013217D01*
X044352Y013223D01*
X044402Y013225D01*
X044452Y013223D01*
X044502Y013217D01*
X044551Y013207D01*
X044600Y013194D01*
X044647Y013176D01*
X044693Y013155D01*
X044736Y013131D01*
X044778Y013103D01*
X044818Y013072D01*
X044855Y013038D01*
X044889Y013001D01*
X044920Y012961D01*
X044948Y012919D01*
X044972Y012876D01*
X044993Y012830D01*
X045011Y012783D01*
X045024Y012734D01*
X045034Y012685D01*
X045040Y012635D01*
X045042Y012585D01*
X045040Y012535D01*
X045034Y012485D01*
X045024Y012436D01*
X045011Y012387D01*
X044993Y012340D01*
X044972Y012294D01*
X044948Y012251D01*
X044920Y012209D01*
X044889Y012169D01*
X044855Y012132D01*
X044818Y012098D01*
X044778Y012067D01*
X044736Y012039D01*
X044693Y012015D01*
X044647Y011994D01*
X044600Y011976D01*
X044551Y011963D01*
X044502Y011953D01*
X044452Y011947D01*
X044402Y011945D01*
X044352Y011947D01*
X044302Y011953D01*
X044253Y011963D01*
X044204Y011976D01*
X044157Y011994D01*
X044111Y012015D01*
X044068Y012039D01*
X044026Y012067D01*
X043986Y012098D01*
X043949Y012132D01*
X043915Y012169D01*
X043884Y012209D01*
X043856Y012251D01*
X043832Y012294D01*
X043811Y012340D01*
X043793Y012387D01*
X043780Y012436D01*
X043770Y012485D01*
X043764Y012535D01*
X043762Y012585D01*
X043762Y008585D02*
X043764Y008635D01*
X043770Y008685D01*
X043780Y008734D01*
X043793Y008783D01*
X043811Y008830D01*
X043832Y008876D01*
X043856Y008919D01*
X043884Y008961D01*
X043915Y009001D01*
X043949Y009038D01*
X043986Y009072D01*
X044026Y009103D01*
X044068Y009131D01*
X044111Y009155D01*
X044157Y009176D01*
X044204Y009194D01*
X044253Y009207D01*
X044302Y009217D01*
X044352Y009223D01*
X044402Y009225D01*
X044452Y009223D01*
X044502Y009217D01*
X044551Y009207D01*
X044600Y009194D01*
X044647Y009176D01*
X044693Y009155D01*
X044736Y009131D01*
X044778Y009103D01*
X044818Y009072D01*
X044855Y009038D01*
X044889Y009001D01*
X044920Y008961D01*
X044948Y008919D01*
X044972Y008876D01*
X044993Y008830D01*
X045011Y008783D01*
X045024Y008734D01*
X045034Y008685D01*
X045040Y008635D01*
X045042Y008585D01*
X045040Y008535D01*
X045034Y008485D01*
X045024Y008436D01*
X045011Y008387D01*
X044993Y008340D01*
X044972Y008294D01*
X044948Y008251D01*
X044920Y008209D01*
X044889Y008169D01*
X044855Y008132D01*
X044818Y008098D01*
X044778Y008067D01*
X044736Y008039D01*
X044693Y008015D01*
X044647Y007994D01*
X044600Y007976D01*
X044551Y007963D01*
X044502Y007953D01*
X044452Y007947D01*
X044402Y007945D01*
X044352Y007947D01*
X044302Y007953D01*
X044253Y007963D01*
X044204Y007976D01*
X044157Y007994D01*
X044111Y008015D01*
X044068Y008039D01*
X044026Y008067D01*
X043986Y008098D01*
X043949Y008132D01*
X043915Y008169D01*
X043884Y008209D01*
X043856Y008251D01*
X043832Y008294D01*
X043811Y008340D01*
X043793Y008387D01*
X043780Y008436D01*
X043770Y008485D01*
X043764Y008535D01*
X043762Y008585D01*
X041174Y004781D02*
X041176Y004831D01*
X041182Y004881D01*
X041192Y004930D01*
X041206Y004978D01*
X041223Y005025D01*
X041244Y005070D01*
X041269Y005114D01*
X041297Y005155D01*
X041329Y005194D01*
X041363Y005231D01*
X041400Y005265D01*
X041440Y005295D01*
X041482Y005322D01*
X041526Y005346D01*
X041572Y005367D01*
X041619Y005383D01*
X041667Y005396D01*
X041717Y005405D01*
X041766Y005410D01*
X041817Y005411D01*
X041867Y005408D01*
X041916Y005401D01*
X041965Y005390D01*
X042013Y005375D01*
X042059Y005357D01*
X042104Y005335D01*
X042147Y005309D01*
X042188Y005280D01*
X042227Y005248D01*
X042263Y005213D01*
X042295Y005175D01*
X042325Y005135D01*
X042352Y005092D01*
X042375Y005048D01*
X042394Y005002D01*
X042410Y004954D01*
X042422Y004905D01*
X042430Y004856D01*
X042434Y004806D01*
X042434Y004756D01*
X042430Y004706D01*
X042422Y004657D01*
X042410Y004608D01*
X042394Y004560D01*
X042375Y004514D01*
X042352Y004470D01*
X042325Y004427D01*
X042295Y004387D01*
X042263Y004349D01*
X042227Y004314D01*
X042188Y004282D01*
X042147Y004253D01*
X042104Y004227D01*
X042059Y004205D01*
X042013Y004187D01*
X041965Y004172D01*
X041916Y004161D01*
X041867Y004154D01*
X041817Y004151D01*
X041766Y004152D01*
X041717Y004157D01*
X041667Y004166D01*
X041619Y004179D01*
X041572Y004195D01*
X041526Y004216D01*
X041482Y004240D01*
X041440Y004267D01*
X041400Y004297D01*
X041363Y004331D01*
X041329Y004368D01*
X041297Y004407D01*
X041269Y004448D01*
X041244Y004492D01*
X041223Y004537D01*
X041206Y004584D01*
X041192Y004632D01*
X041182Y004681D01*
X041176Y004731D01*
X041174Y004781D01*
M02*
